{"glyphs":{"0":{"ha":833,"x_min":0,"x_max":0,"o":"m 417 -17 b 721 447 610 -17 721 154 b 417 904 721 742 610 904 b 113 447 224 904 113 742 b 417 -17 113 154 224 -17 z m 417 36 b 174 447 272 36 174 178 b 417 851 174 717 272 851 b 660 447 561 851 660 717 b 417 36 660 178 561 36 z m 417 376 b 493 460 456 376 493 406 b 417 543 493 514 456 543 b 340 460 378 543 340 514 b 417 376 340 406 378 376 z "},"1":{"ha":833,"x_min":0,"x_max":0,"o":"m 150 0 l 725 0 l 725 54 l 476 54 l 476 888 l 431 888 b 222 832 379 864 311 844 l 222 790 l 415 790 l 415 54 l 150 54 z "},"2":{"ha":833,"x_min":0,"x_max":0,"o":"m 114 0 l 714 0 l 714 56 l 374 56 b 207 49 318 56 264 51 b 664 656 489 310 664 479 b 389 904 664 806 563 904 b 110 774 269 904 183 847 l 150 735 b 383 851 211 801 293 851 b 603 654 536 851 603 765 b 114 39 603 494 442 335 z "},"3":{"ha":833,"x_min":0,"x_max":0,"o":"m 406 -17 b 710 235 575 -17 710 81 b 475 465 710 360 599 442 l 475 471 b 676 690 589 504 676 574 b 403 904 676 826 556 904 b 129 796 289 904 196 856 l 167 754 b 401 851 222 808 310 851 b 613 686 526 851 613 786 b 292 493 613 579 524 493 l 292 439 b 646 233 539 439 646 356 b 406 38 646 115 542 38 b 128 151 272 38 186 93 l 93 108 b 406 -17 154 49 251 -17 z "},"4":{"ha":833,"x_min":0,"x_max":0,"o":"m 533 0 l 593 0 l 593 265 l 747 265 l 747 319 l 593 319 l 593 889 l 544 889 l 58 303 l 58 265 l 533 265 z m 142 319 l 446 685 b 532 803 475 725 504 764 l 540 803 b 533 668 538 758 536 711 l 533 319 z "},"5":{"ha":833,"x_min":0,"x_max":0,"o":"m 399 -17 b 717 279 561 -17 717 90 b 411 560 717 474 585 560 b 219 513 331 560 276 540 l 249 833 l 671 833 l 671 888 l 193 888 l 160 472 l 203 446 b 401 506 268 482 319 506 b 653 276 557 506 653 419 b 399 38 653 133 536 38 b 121 146 257 38 182 92 l 86 103 b 399 -17 151 46 238 -17 z "},"6":{"ha":833,"x_min":0,"x_max":0,"o":"m 449 -17 b 732 261 600 -17 732 100 b 454 536 732 440 624 536 b 182 411 351 536 258 488 b 486 850 182 736 324 850 b 675 776 558 850 625 825 l 713 818 b 486 904 656 869 585 904 b 119 403 294 904 119 775 b 449 -17 119 133 249 -17 z m 451 36 b 183 349 282 36 197 161 b 446 483 272 447 369 483 b 669 261 594 483 669 401 b 451 36 669 135 576 36 z "},"7":{"ha":833,"x_min":0,"x_max":0,"o":"m 340 0 l 408 0 b 733 851 421 350 490 569 l 733 888 l 103 888 l 103 833 l 656 833 b 340 0 442 575 354 360 z "},"8":{"ha":833,"x_min":0,"x_max":0,"o":"m 422 -17 b 731 215 618 -17 731 86 b 550 444 731 344 651 394 l 550 450 b 692 672 629 506 692 588 b 424 904 692 806 596 904 b 167 688 276 904 167 815 b 306 482 167 593 232 524 l 306 476 b 100 228 207 432 100 358 b 422 -17 100 88 225 -17 z m 496 465 b 226 688 349 511 226 561 b 424 853 226 783 306 853 b 632 671 560 853 632 769 b 496 465 632 594 586 526 z m 424 35 b 161 231 260 35 161 121 b 353 454 161 340 243 401 b 668 217 524 399 668 365 b 424 35 668 115 583 35 z "},"9":{"ha":833,"x_min":0,"x_max":0,"o":"m 389 404 b 165 628 240 404 165 488 b 385 851 165 754 260 851 b 653 540 554 851 639 728 b 389 404 569 444 469 404 z m 350 -17 b 715 486 540 -17 715 114 b 386 904 715 756 588 904 b 104 628 236 904 104 789 b 382 353 104 449 211 353 b 654 476 485 353 576 401 b 350 38 654 151 511 38 b 160 111 276 38 211 63 l 122 69 b 350 -17 181 18 251 -17 z "}," ":{"ha":833,"x_min":0,"x_max":0,"o":""},"A":{"ha":833,"x_min":0,"x_max":0,"o":"m 313 539 b 414 856 349 647 382 743 l 419 856 b 521 539 451 743 483 647 l 579 368 l 254 368 z m 63 0 l 126 0 l 235 314 l 597 314 l 703 0 l 771 0 l 449 915 l 385 915 z "},"B":{"ha":833,"x_min":0,"x_max":0,"o":"m 158 0 l 408 0 b 747 267 619 0 747 90 b 528 488 747 393 664 468 l 528 493 b 690 693 636 521 690 597 b 390 915 690 846 579 915 l 158 915 z m 222 514 l 222 861 l 372 861 b 626 690 544 861 626 813 b 365 514 626 574 553 514 z m 222 54 l 222 458 l 392 458 b 683 267 579 458 683 397 b 392 54 683 119 578 54 z "},"C":{"ha":833,"x_min":0,"x_max":0,"o":"m 483 -17 b 757 114 603 -17 686 33 l 718 154 b 489 42 651 79 582 42 b 167 460 292 42 167 206 b 493 874 167 714 292 874 b 692 781 576 874 643 836 l 731 822 b 493 932 682 879 599 932 b 100 460 258 932 100 750 b 483 -17 100 168 258 -17 z "},"D":{"ha":833,"x_min":0,"x_max":0,"o":"m 133 0 l 346 0 b 758 461 626 0 758 183 b 344 915 758 738 626 915 l 133 915 z m 197 54 l 197 861 l 339 861 b 692 461 585 861 692 699 b 339 54 692 222 585 54 z "},"E":{"ha":833,"x_min":0,"x_max":0,"o":"m 176 0 l 732 0 l 732 56 l 240 56 l 240 458 l 643 458 l 643 514 l 240 514 l 240 860 l 718 860 l 718 915 l 176 915 z "},"F":{"ha":833,"x_min":0,"x_max":0,"o":"m 208 0 l 272 0 l 272 440 l 668 440 l 668 496 l 272 496 l 272 860 l 743 860 l 743 915 l 208 915 z "},"G":{"ha":833,"x_min":0,"x_max":0,"o":"m 464 -17 b 729 88 582 -17 674 26 l 729 450 l 456 450 l 456 396 l 667 396 l 667 111 b 468 42 624 67 549 42 b 149 460 268 42 149 206 b 476 874 149 714 275 874 b 682 781 574 874 636 832 l 719 822 b 476 932 672 874 597 932 b 82 460 240 932 82 750 b 464 -17 82 168 236 -17 z "},"H":{"ha":833,"x_min":0,"x_max":0,"o":"m 124 0 l 188 0 l 188 458 l 646 458 l 646 0 l 710 0 l 710 915 l 646 915 l 646 514 l 188 514 l 188 915 l 124 915 z "},"I":{"ha":833,"x_min":0,"x_max":0,"o":"m 149 0 l 685 0 l 685 56 l 449 56 l 449 860 l 685 860 l 685 915 l 149 915 l 149 860 l 385 860 l 385 56 l 149 56 z "},"J":{"ha":833,"x_min":0,"x_max":0,"o":"m 385 -17 b 667 283 597 -17 667 117 l 667 917 l 204 917 l 204 863 l 603 863 l 603 289 b 385 42 603 122 538 42 b 175 174 308 42 228 82 l 129 136 b 385 -17 183 35 283 -17 z "},"K":{"ha":833,"x_min":0,"x_max":0,"o":"m 160 0 l 225 0 l 225 315 l 414 529 l 719 0 l 793 0 l 457 578 l 756 915 l 679 915 l 228 407 l 225 407 l 225 915 l 160 915 z "},"L":{"ha":833,"x_min":0,"x_max":0,"o":"m 208 0 l 749 0 l 749 56 l 269 56 l 269 915 l 208 915 z "},"M":{"ha":833,"x_min":0,"x_max":0,"o":"m 113 0 l 174 0 l 174 625 b 164 842 174 690 167 779 l 167 842 l 221 685 l 390 243 l 440 243 l 613 685 l 663 842 l 667 842 b 658 625 664 779 658 690 l 658 0 l 721 0 l 721 915 l 636 915 l 474 486 l 419 326 l 414 326 l 357 486 l 197 915 l 113 915 z "},"N":{"ha":833,"x_min":0,"x_max":0,"o":"m 128 0 l 189 0 l 189 568 b 181 828 189 656 182 739 l 183 828 l 281 647 l 638 0 l 706 0 l 706 915 l 644 915 l 644 353 b 653 88 644 264 651 175 l 650 88 l 553 268 l 196 915 l 128 915 z "},"O":{"ha":833,"x_min":0,"x_max":0,"o":"m 417 -17 b 758 461 617 -17 758 169 b 417 932 758 751 617 932 b 75 461 217 932 75 751 b 417 -17 75 169 217 -17 z m 417 42 b 142 461 253 42 142 206 b 417 874 142 715 253 874 b 692 461 581 874 692 715 b 417 42 692 206 581 42 z "},"P":{"ha":833,"x_min":0,"x_max":0,"o":"m 164 0 l 228 0 l 228 393 l 413 393 b 739 660 617 393 739 481 b 413 915 739 849 617 915 l 164 915 z m 228 447 l 228 861 l 397 861 b 674 660 583 861 674 814 b 397 447 674 510 583 447 z "},"Q":{"ha":833,"x_min":0,"x_max":0,"o":"m 417 38 b 144 461 250 38 144 204 b 417 878 144 715 250 878 b 689 461 583 878 689 715 b 417 38 689 204 583 38 z m 663 -212 b 747 -200 692 -212 718 -208 l 735 -142 b 669 -153 719 -149 697 -153 b 453 -14 557 -153 483 -103 b 754 461 635 7 754 189 b 417 933 754 751 618 933 b 79 461 217 933 79 751 b 382 -15 79 188 201 6 b 663 -212 422 -126 511 -212 z "},"R":{"ha":833,"x_min":0,"x_max":0,"o":"m 163 0 l 226 0 l 226 421 l 421 421 l 668 0 l 743 0 l 490 425 b 725 674 633 444 725 528 b 424 915 725 849 606 915 l 163 915 z m 226 474 l 226 861 l 407 861 b 660 674 569 861 660 811 b 407 474 660 539 569 474 z "},"S":{"ha":833,"x_min":0,"x_max":0,"o":"m 429 -17 b 735 229 614 -17 735 89 b 528 472 735 369 638 426 l 390 533 b 218 710 318 564 218 604 b 432 874 218 810 304 874 b 665 781 531 874 608 836 l 703 822 b 433 932 643 882 550 932 b 154 707 274 932 154 839 b 354 479 154 571 268 514 l 492 417 b 671 224 589 375 671 339 b 431 42 671 117 578 42 b 147 165 317 42 217 90 l 106 121 b 429 -17 182 40 289 -17 z "},"T":{"ha":833,"x_min":0,"x_max":0,"o":"m 385 0 l 449 0 l 449 860 l 767 860 l 767 915 l 67 915 l 67 860 l 385 860 z "},"U":{"ha":833,"x_min":0,"x_max":0,"o":"m 417 -17 b 710 343 571 -17 710 65 l 710 915 l 650 915 l 650 350 b 417 42 650 114 542 42 b 188 350 294 42 188 114 l 188 915 l 124 915 l 124 343 b 417 -17 124 65 264 -17 z "},"V":{"ha":833,"x_min":0,"x_max":0,"o":"m 383 0 l 453 0 l 751 915 l 688 915 l 518 381 b 421 74 483 269 458 185 l 415 74 b 319 381 378 185 354 269 l 150 915 l 82 915 z "},"W":{"ha":833,"x_min":0,"x_max":0,"o":"m 169 0 l 251 0 l 374 435 b 415 594 390 488 401 540 l 419 594 b 458 435 433 540 444 488 l 585 0 l 667 0 l 814 917 l 751 917 l 658 290 b 631 74 649 217 639 150 l 625 74 b 565 290 604 150 585 217 l 451 678 l 386 678 l 272 290 b 213 74 253 217 233 151 l 208 74 b 181 290 201 151 189 217 l 83 917 l 19 917 z "},"X":{"ha":833,"x_min":0,"x_max":0,"o":"m 104 0 l 169 0 l 331 281 b 410 426 356 326 379 371 l 415 426 b 499 281 447 371 474 326 l 660 0 l 729 0 l 453 471 l 710 915 l 644 915 l 493 646 b 425 521 469 604 451 571 l 419 521 b 344 646 389 571 369 604 l 193 915 l 124 915 l 381 474 z "},"Y":{"ha":833,"x_min":0,"x_max":0,"o":"m 385 0 l 449 0 l 449 336 l 763 915 l 700 915 l 542 614 b 422 397 504 543 465 471 l 417 397 b 299 613 375 471 340 543 l 136 915 l 71 915 l 385 336 z "},"Z":{"ha":833,"x_min":0,"x_max":0,"o":"m 97 0 l 743 0 l 743 56 l 174 56 l 733 878 l 733 917 l 144 917 l 144 863 l 657 863 l 97 39 z "},"a":{"ha":833,"x_min":0,"x_max":0,"o":"m 360 -17 b 639 100 458 -17 563 39 l 642 100 l 649 0 l 700 0 l 700 426 b 447 683 700 569 626 683 b 160 585 329 683 213 622 l 188 539 b 440 629 243 578 340 629 b 639 418 593 629 638 528 b 128 167 278 386 128 315 b 360 -17 128 40 240 -17 z m 371 36 b 190 169 281 36 190 74 b 639 371 190 276 300 340 l 639 157 b 371 36 546 78 456 36 z "},"b":{"ha":833,"x_min":0,"x_max":0,"o":"m 431 -17 b 740 343 594 -17 740 117 b 457 683 740 550 646 683 b 207 567 371 683 275 636 l 204 567 l 208 710 l 208 999 l 146 999 l 146 0 l 197 0 l 204 75 l 207 75 b 431 -17 274 19 363 -17 z m 428 38 b 208 136 372 38 286 65 l 208 507 b 447 629 292 590 378 629 b 675 343 611 629 675 507 b 428 38 675 163 571 38 z "},"c":{"ha":833,"x_min":0,"x_max":0,"o":"m 482 -17 b 742 90 586 -17 672 26 l 710 133 b 485 38 650 78 575 38 b 186 332 306 38 186 157 b 486 629 186 508 308 629 b 689 540 568 629 632 593 l 725 582 b 485 683 669 635 596 683 b 121 332 285 683 121 556 b 482 -17 121 111 275 -17 z "},"d":{"ha":833,"x_min":0,"x_max":0,"o":"m 388 -17 b 625 99 481 -17 567 38 l 628 99 l 635 0 l 688 0 l 688 999 l 625 999 l 625 724 l 629 589 l 626 589 b 407 683 560 649 492 683 b 93 332 242 683 93 547 b 388 -17 93 107 213 -17 z m 396 38 b 158 332 247 38 158 156 b 411 629 158 500 271 629 b 625 531 481 629 550 603 l 625 160 b 396 38 551 82 474 38 z "},"e":{"ha":833,"x_min":0,"x_max":0,"o":"m 458 -17 b 711 63 576 -17 651 22 l 686 108 b 463 36 624 65 553 36 b 169 324 307 36 175 138 l 736 324 b 739 375 739 340 739 358 b 440 683 739 567 624 683 b 107 333 267 683 107 550 b 458 -17 107 114 265 -17 z m 442 631 b 683 376 578 631 674 549 l 172 376 b 442 631 190 539 314 631 z "},"f":{"ha":833,"x_min":0,"x_max":0,"o":"m 361 0 l 419 0 l 419 614 l 729 614 l 729 667 l 419 667 l 419 753 b 614 963 419 878 474 963 b 778 928 676 963 715 956 l 797 975 b 610 1015 729 1007 669 1015 b 361 747 443 1015 361 915 l 361 667 l 160 661 l 160 614 l 361 614 z "},"g":{"ha":833,"x_min":0,"x_max":0,"o":"m 428 -321 b 781 -93 643 -321 781 -208 b 538 57 781 15 707 57 l 372 57 b 218 150 279 57 218 86 b 283 243 218 186 244 219 b 410 213 324 222 369 213 b 656 444 546 213 656 308 b 578 614 656 515 618 574 l 779 614 l 779 667 l 501 667 b 410 683 475 678 446 683 b 161 446 274 683 161 583 b 240 274 161 365 197 308 l 240 268 b 160 142 188 232 160 185 b 229 35 160 86 196 51 l 229 29 b 117 -128 157 -15 117 -75 b 428 -321 117 -244 219 -321 z m 410 261 b 224 446 307 261 224 336 b 410 632 224 554 307 632 b 594 446 511 632 594 554 b 410 261 594 336 511 261 z m 424 -271 b 175 -129 257 -271 175 -210 b 283 11 175 -81 203 -32 b 385 -1 314 1 351 -1 l 543 -1 b 717 -100 660 -1 717 -25 b 424 -271 717 -183 607 -271 z "},"h":{"ha":833,"x_min":0,"x_max":0,"o":"m 146 0 l 208 0 l 208 478 b 464 628 304 579 369 628 b 651 407 596 628 651 557 l 651 0 l 714 0 l 714 415 b 474 683 714 596 636 683 b 207 535 368 683 286 621 l 204 535 l 208 710 l 208 999 l 146 999 z "},"i":{"ha":833,"x_min":0,"x_max":0,"o":"m 469 0 l 531 0 l 531 667 l 135 667 l 135 614 l 469 614 z m 485 829 b 550 896 521 829 550 854 b 485 963 550 936 521 963 b 419 896 449 963 419 936 b 485 829 419 854 449 829 z "},"j":{"ha":833,"x_min":0,"x_max":0,"o":"m 269 -318 b 531 -51 468 -318 531 -215 l 531 667 l 135 667 l 135 614 l 469 614 l 469 -60 b 274 -265 469 -183 429 -265 b 113 -225 217 -265 157 -247 l 88 -274 b 269 -318 138 -299 207 -318 z m 485 829 b 550 896 521 829 550 854 b 485 963 550 936 521 963 b 419 896 449 963 419 936 b 485 829 419 854 449 829 z "},"k":{"ha":833,"x_min":0,"x_max":0,"o":"m 171 0 l 233 0 l 233 189 l 428 371 l 717 0 l 788 0 l 469 410 l 743 667 l 667 667 l 239 265 l 233 265 l 233 999 l 171 999 z "},"l":{"ha":833,"x_min":0,"x_max":0,"o":"m 575 -17 b 740 25 640 -17 683 -3 l 721 72 b 583 38 672 49 626 38 b 438 193 489 38 438 88 l 438 999 l 128 999 l 128 946 l 376 946 l 376 201 b 575 -17 376 50 449 -17 z "},"m":{"ha":833,"x_min":0,"x_max":0,"o":"m 103 0 l 164 0 l 164 503 b 307 628 207 586 246 628 b 401 476 371 628 401 576 l 401 0 l 460 0 l 460 503 b 601 628 504 586 542 628 b 697 476 667 628 697 576 l 697 0 l 758 0 l 758 483 b 614 683 758 617 707 683 b 450 565 539 683 499 642 b 318 683 432 644 390 683 b 164 576 243 683 203 642 l 161 576 l 154 667 l 103 667 z "},"n":{"ha":833,"x_min":0,"x_max":0,"o":"m 146 0 l 208 0 l 208 478 b 464 628 304 579 369 628 b 651 407 596 628 651 557 l 651 0 l 714 0 l 714 415 b 474 683 714 596 636 683 b 211 539 367 683 288 621 l 206 539 l 199 667 l 146 667 z "},"o":{"ha":833,"x_min":0,"x_max":0,"o":"m 417 -17 b 740 332 592 -17 740 111 b 417 683 740 556 592 683 b 93 332 242 683 93 556 b 417 -17 93 111 242 -17 z m 417 38 b 158 332 267 38 158 157 b 417 629 158 508 267 629 b 675 332 567 629 675 508 b 417 38 675 157 567 38 z "},"p":{"ha":833,"x_min":0,"x_max":0,"o":"m 146 -301 l 208 -301 l 208 -58 l 204 78 l 207 78 b 428 -17 274 18 364 -17 b 740 343 594 -17 740 117 b 457 683 740 550 646 683 b 208 571 371 683 275 635 l 206 571 l 199 667 l 146 667 z m 425 38 b 208 136 372 38 286 65 l 208 507 b 447 629 292 590 378 629 b 675 343 611 629 675 507 b 425 38 675 163 571 38 z "},"q":{"ha":833,"x_min":0,"x_max":0,"o":"m 625 -301 l 688 -301 l 688 667 l 636 667 l 629 590 l 626 590 b 407 683 560 649 493 683 b 93 332 242 683 93 547 b 388 -17 93 107 213 -17 b 626 100 481 -17 564 36 l 629 100 l 625 -33 z m 396 38 b 158 332 247 38 158 156 b 411 629 158 500 271 629 b 625 531 481 629 550 603 l 625 160 b 396 38 551 82 474 38 z "},"r":{"ha":833,"x_min":0,"x_max":0,"o":"m 226 0 l 289 0 l 289 417 b 593 625 381 568 482 625 b 719 601 646 625 671 618 l 736 656 b 603 683 694 678 647 683 b 289 503 469 683 361 608 l 286 503 l 279 667 l 226 667 z "},"s":{"ha":833,"x_min":0,"x_max":0,"o":"m 443 -17 b 718 171 618 -17 718 71 b 436 372 718 271 667 324 b 217 510 286 404 217 439 b 410 631 217 572 264 631 b 636 557 500 631 576 601 l 669 601 b 414 683 606 649 503 683 b 153 506 235 683 153 603 b 419 319 153 408 250 353 b 654 168 631 276 654 228 b 449 36 654 97 585 36 b 146 133 308 36 221 76 l 114 89 b 443 -17 193 33 306 -17 z "},"t":{"ha":833,"x_min":0,"x_max":0,"o":"m 551 -17 b 754 25 633 -17 693 0 l 738 72 b 560 38 683 50 629 38 b 374 244 411 38 374 115 l 374 614 l 729 614 l 729 667 l 374 667 l 374 888 l 322 888 l 314 667 l 111 661 l 111 614 l 313 614 l 313 250 b 551 -17 313 90 368 -17 z "},"u":{"ha":833,"x_min":0,"x_max":0,"o":"m 360 -17 b 622 129 467 -17 550 44 l 628 129 l 635 0 l 686 0 l 686 667 l 625 667 l 625 190 b 369 39 533 86 464 39 b 182 260 238 39 182 111 l 182 667 l 121 667 l 121 251 b 360 -17 121 71 199 -17 z "},"v":{"ha":833,"x_min":0,"x_max":0,"o":"m 386 0 l 451 0 l 747 667 l 688 667 l 503 249 b 422 57 474 182 449 118 l 417 57 b 333 249 392 118 364 182 l 150 667 l 86 667 z "},"w":{"ha":833,"x_min":0,"x_max":0,"o":"m 186 0 l 269 0 l 371 401 b 414 594 388 461 400 525 l 419 594 b 463 403 436 525 447 463 l 567 0 l 650 0 l 818 667 l 757 667 l 653 235 b 611 57 639 174 626 117 l 606 57 b 561 235 593 117 576 174 l 456 656 l 382 656 l 275 235 b 232 57 260 174 244 117 l 226 57 b 186 235 215 117 201 174 l 81 667 l 15 667 z "},"x":{"ha":833,"x_min":0,"x_max":0,"o":"m 111 0 l 179 0 l 317 179 b 410 304 349 224 378 263 l 415 304 b 510 181 447 265 481 218 l 651 0 l 722 0 l 453 343 l 701 667 l 633 667 l 508 500 b 421 385 482 464 450 422 l 415 385 b 332 497 386 422 358 461 l 203 667 l 133 667 l 378 346 z "},"y":{"ha":833,"x_min":0,"x_max":0,"o":"m 174 -304 b 436 -83 314 -304 397 -196 l 750 667 l 690 667 l 517 247 b 439 60 493 190 465 119 l 433 60 b 342 247 401 119 368 192 l 147 667 l 83 667 l 407 -12 l 383 -71 b 175 -247 343 -172 278 -247 b 110 -236 151 -247 126 -242 l 93 -290 b 174 -304 113 -299 146 -304 z "},"z":{"ha":833,"x_min":0,"x_max":0,"o":"m 100 0 l 731 0 l 731 54 l 193 54 l 715 635 l 715 667 l 156 667 l 156 614 l 622 614 l 100 33 z "},"À":{"ha":833,"x_min":0,"x_max":0,"o":"m 313 539 b 414 856 349 647 382 743 l 419 856 b 521 539 451 743 483 647 l 579 368 l 254 368 z m 63 0 l 126 0 l 235 314 l 597 314 l 703 0 l 771 0 l 449 915 l 385 915 z m 450 981 l 478 1013 l 306 1183 l 265 1138 z "},"Á":{"ha":833,"x_min":0,"x_max":0,"o":"m 313 539 b 414 856 349 647 382 743 l 419 856 b 521 539 451 743 483 647 l 579 368 l 254 368 z m 63 0 l 126 0 l 235 314 l 597 314 l 703 0 l 771 0 l 449 915 l 385 915 z m 383 981 l 568 1138 l 528 1183 l 356 1013 z "},"Â":{"ha":833,"x_min":0,"x_max":0,"o":"m 313 539 b 414 856 349 647 382 743 l 419 856 b 521 539 451 743 483 647 l 579 368 l 254 368 z m 63 0 l 126 0 l 235 314 l 597 314 l 703 0 l 771 0 l 449 915 l 385 915 z m 257 982 l 414 1118 l 419 1118 l 576 982 l 604 1008 l 447 1165 l 386 1165 l 229 1008 z "},"Ã":{"ha":833,"x_min":0,"x_max":0,"o":"m 313 539 b 414 856 349 647 382 743 l 419 856 b 521 539 451 743 483 647 l 579 368 l 254 368 z m 63 0 l 126 0 l 235 314 l 597 314 l 703 0 l 771 0 l 449 915 l 385 915 z m 524 997 b 646 1151 599 997 642 1065 l 600 1156 b 524 1049 592 1090 564 1049 b 310 1158 447 1049 417 1158 b 188 1006 235 1158 192 1092 l 233 1001 b 310 1107 239 1067 269 1107 b 524 997 386 1107 417 997 z "},"Ä":{"ha":833,"x_min":0,"x_max":0,"o":"m 313 539 b 414 856 349 647 382 743 l 419 856 b 521 539 451 743 483 647 l 579 368 l 254 368 z m 63 0 l 126 0 l 235 314 l 597 314 l 703 0 l 771 0 l 449 915 l 385 915 z m 306 1007 b 357 1058 335 1007 357 1026 b 306 1110 357 1089 335 1110 b 254 1058 276 1110 254 1089 b 306 1007 254 1026 276 1007 z m 528 1007 b 579 1058 557 1007 579 1026 b 528 1110 579 1089 557 1110 b 476 1058 499 1110 476 1089 b 528 1007 476 1026 499 1007 z "},"Ā":{"ha":833,"x_min":0,"x_max":0,"o":"m 313 539 b 414 856 349 647 382 743 l 419 856 b 521 539 451 743 483 647 l 579 368 l 254 368 z m 63 0 l 126 0 l 235 314 l 597 314 l 703 0 l 771 0 l 449 915 l 385 915 z m 244 1032 l 589 1032 l 589 1082 l 244 1082 z "},"Ă":{"ha":833,"x_min":0,"x_max":0,"o":"m 313 539 b 414 856 349 647 382 743 l 419 856 b 521 539 451 743 483 647 l 579 368 l 254 368 z m 63 0 l 126 0 l 235 314 l 597 314 l 703 0 l 771 0 l 449 915 l 385 915 z m 417 986 b 606 1158 540 986 596 1076 l 560 1165 b 417 1032 550 1096 506 1032 b 274 1165 328 1032 283 1096 l 228 1158 b 417 986 239 1076 294 986 z "},"Å":{"ha":833,"x_min":0,"x_max":0,"o":"m 313 539 b 414 856 349 647 382 743 l 419 856 b 521 539 451 743 483 647 l 579 368 l 254 368 z m 63 0 l 126 0 l 235 314 l 597 314 l 703 0 l 771 0 l 449 915 l 385 915 z m 417 972 b 539 1090 483 972 539 1019 b 417 1210 539 1164 483 1210 b 294 1090 349 1210 294 1164 b 417 972 294 1019 349 972 z m 417 1008 b 336 1090 372 1008 336 1036 b 417 1174 336 1143 372 1174 b 494 1090 458 1174 494 1143 b 417 1008 494 1036 458 1008 z "},"Ǻ":{"ha":833,"x_min":0,"x_max":0,"o":"m 313 539 b 414 856 349 647 382 743 l 419 856 b 521 539 451 743 483 647 l 579 368 l 254 368 z m 63 0 l 126 0 l 235 314 l 597 314 l 703 0 l 771 0 l 449 915 l 385 915 z m 417 972 b 539 1090 483 972 539 1019 b 442 1207 539 1154 496 1197 l 547 1269 l 515 1313 l 350 1193 b 294 1090 317 1172 294 1138 b 417 972 294 1019 349 972 z m 417 1008 b 336 1090 372 1008 336 1036 b 417 1174 336 1143 372 1174 b 494 1090 458 1174 494 1143 b 417 1008 494 1036 458 1008 z "},"Ǎ":{"ha":833,"x_min":0,"x_max":0,"o":"m 313 539 b 414 856 349 647 382 743 l 419 856 b 521 539 451 743 483 647 l 579 368 l 254 368 z m 63 0 l 126 0 l 235 314 l 597 314 l 703 0 l 771 0 l 449 915 l 385 915 z m 386 985 l 447 985 l 604 1143 l 576 1168 l 419 1032 l 414 1032 l 257 1168 l 229 1143 z "},"Ą":{"ha":833,"x_min":0,"x_max":0,"o":"m 722 -311 b 836 -261 775 -311 807 -289 l 808 -226 b 731 -261 789 -246 765 -261 b 646 -179 686 -261 646 -235 b 771 0 646 -106 703 -44 l 449 915 l 385 915 l 63 0 l 126 0 l 235 314 l 597 314 l 703 0 l 713 0 b 590 -187 653 -43 590 -104 b 722 -311 590 -272 647 -311 z m 313 539 b 414 856 349 647 382 743 l 419 856 b 521 539 451 743 483 647 l 579 368 l 254 368 z "},"Ạ":{"ha":833,"x_min":0,"x_max":0,"o":"m 313 539 b 414 856 349 647 382 743 l 419 856 b 521 539 451 743 483 647 l 579 368 l 254 368 z m 63 0 l 126 0 l 235 314 l 597 314 l 703 0 l 771 0 l 449 915 l 385 915 z m 417 -274 b 482 -207 453 -274 482 -249 b 417 -140 482 -167 453 -140 b 351 -207 381 -140 351 -167 b 417 -274 351 -249 381 -274 z "},"Ả":{"ha":833,"x_min":0,"x_max":0,"o":"m 313 539 b 414 856 349 647 382 743 l 419 856 b 521 539 451 743 483 647 l 579 368 l 254 368 z m 63 0 l 126 0 l 235 314 l 597 314 l 703 0 l 771 0 l 449 915 l 385 915 z m 382 975 b 514 1096 449 993 514 1024 b 346 1199 514 1165 438 1196 l 340 1154 b 458 1088 417 1151 458 1131 b 371 1013 458 1049 421 1028 z "},"Ấ":{"ha":833,"x_min":0,"x_max":0,"o":"m 313 539 b 414 856 349 647 382 743 l 419 856 b 521 539 451 743 483 647 l 579 368 l 254 368 z m 63 0 l 126 0 l 235 314 l 597 314 l 703 0 l 771 0 l 449 915 l 385 915 z m 283 982 l 414 1076 l 419 1076 l 550 982 l 576 1008 l 444 1125 l 389 1125 l 257 1008 z m 560 1063 l 699 1190 l 661 1228 l 531 1093 z "},"Ầ":{"ha":833,"x_min":0,"x_max":0,"o":"m 313 539 b 414 856 349 647 382 743 l 419 856 b 521 539 451 743 483 647 l 579 368 l 254 368 z m 63 0 l 126 0 l 235 314 l 597 314 l 703 0 l 771 0 l 449 915 l 385 915 z m 283 982 l 414 1076 l 419 1076 l 550 982 l 576 1008 l 444 1125 l 389 1125 l 257 1008 z m 274 1063 l 303 1088 l 197 1228 l 160 1196 z "},"Ẩ":{"ha":833,"x_min":0,"x_max":0,"o":"m 313 539 b 414 856 349 647 382 743 l 419 856 b 521 539 451 743 483 647 l 579 368 l 254 368 z m 63 0 l 126 0 l 235 314 l 597 314 l 703 0 l 771 0 l 449 915 l 385 915 z m 283 982 l 414 1076 l 419 1076 l 550 982 l 576 1008 l 444 1125 l 389 1125 l 257 1008 z m 558 1051 b 668 1154 611 1064 668 1090 b 521 1249 668 1219 603 1244 l 514 1206 b 615 1147 581 1203 615 1189 b 544 1089 615 1115 583 1099 z "},"Ẫ":{"ha":833,"x_min":0,"x_max":0,"o":"m 313 539 b 414 856 349 647 382 743 l 419 856 b 521 539 451 743 483 647 l 579 368 l 254 368 z m 63 0 l 126 0 l 235 314 l 597 314 l 703 0 l 771 0 l 449 915 l 385 915 z m 283 982 l 414 1075 l 419 1075 l 550 982 l 576 1008 l 444 1124 l 389 1124 l 257 1008 z m 513 1167 b 611 1278 588 1167 608 1226 l 569 1282 b 513 1211 564 1239 550 1211 b 321 1285 444 1211 415 1285 b 222 1174 246 1285 225 1225 l 264 1169 b 321 1240 269 1213 283 1240 b 513 1167 389 1240 418 1167 z "},"Ậ":{"ha":833,"x_min":0,"x_max":0,"o":"m 313 539 b 414 856 349 647 382 743 l 419 856 b 521 539 451 743 483 647 l 579 368 l 254 368 z m 63 0 l 126 0 l 235 314 l 597 314 l 703 0 l 771 0 l 449 915 l 385 915 z m 257 982 l 414 1118 l 419 1118 l 576 982 l 604 1008 l 447 1165 l 386 1165 l 229 1008 z m 417 -274 b 482 -207 453 -274 482 -249 b 417 -140 482 -167 453 -140 b 351 -207 381 -140 351 -167 b 417 -274 351 -249 381 -274 z "},"Ắ":{"ha":833,"x_min":0,"x_max":0,"o":"m 313 539 b 414 856 349 647 382 743 l 419 856 b 521 539 451 743 483 647 l 579 368 l 254 368 z m 63 0 l 126 0 l 235 314 l 597 314 l 703 0 l 771 0 l 449 915 l 385 915 z m 417 986 b 606 1158 540 986 596 1076 l 561 1165 b 417 1031 551 1094 507 1031 b 272 1165 326 1031 282 1094 l 228 1158 b 417 986 239 1076 294 986 z m 410 1114 l 551 1250 l 508 1285 l 378 1139 z "},"Ằ":{"ha":833,"x_min":0,"x_max":0,"o":"m 313 539 b 414 856 349 647 382 743 l 419 856 b 521 539 451 743 483 647 l 579 368 l 254 368 z m 63 0 l 126 0 l 235 314 l 597 314 l 703 0 l 771 0 l 449 915 l 385 915 z m 417 986 b 606 1158 540 986 596 1076 l 561 1165 b 417 1031 551 1094 507 1031 b 272 1165 326 1031 282 1094 l 228 1158 b 417 986 239 1076 294 986 z m 424 1114 l 456 1139 l 325 1285 l 282 1250 z "},"Ẳ":{"ha":833,"x_min":0,"x_max":0,"o":"m 313 539 b 414 856 349 647 382 743 l 419 856 b 521 539 451 743 483 647 l 579 368 l 254 368 z m 63 0 l 126 0 l 235 314 l 597 314 l 703 0 l 771 0 l 449 915 l 385 915 z m 417 986 b 606 1158 540 986 596 1076 l 561 1165 b 417 1031 551 1094 507 1031 b 272 1165 326 1031 282 1094 l 228 1158 b 417 986 239 1076 294 986 z m 393 1107 b 503 1210 446 1121 503 1146 b 356 1304 503 1276 438 1301 l 349 1263 b 450 1203 415 1258 450 1244 b 379 1144 450 1171 418 1156 z "},"Ẵ":{"ha":833,"x_min":0,"x_max":0,"o":"m 313 539 b 414 856 349 647 382 743 l 419 856 b 521 539 451 743 483 647 l 579 368 l 254 368 z m 63 0 l 126 0 l 235 314 l 597 314 l 703 0 l 771 0 l 449 915 l 385 915 z m 417 988 b 604 1131 540 988 596 1063 l 561 1138 b 417 1031 551 1082 508 1031 b 272 1138 326 1031 282 1082 l 229 1131 b 417 988 238 1063 294 988 z m 513 1168 b 611 1279 588 1168 608 1228 l 569 1283 b 513 1213 564 1240 550 1213 b 321 1286 444 1213 415 1286 b 222 1175 246 1286 225 1226 l 264 1171 b 321 1242 269 1214 283 1242 b 513 1168 389 1242 418 1168 z "},"Ặ":{"ha":833,"x_min":0,"x_max":0,"o":"m 313 539 b 414 856 349 647 382 743 l 419 856 b 521 539 451 743 483 647 l 579 368 l 254 368 z m 63 0 l 126 0 l 235 314 l 597 314 l 703 0 l 771 0 l 449 915 l 385 915 z m 417 986 b 606 1158 540 986 596 1076 l 560 1165 b 417 1032 550 1096 506 1032 b 274 1165 328 1032 283 1096 l 228 1158 b 417 986 239 1076 294 986 z m 417 -274 b 482 -207 453 -274 482 -249 b 417 -140 482 -167 453 -140 b 351 -207 381 -140 351 -167 b 417 -274 351 -249 381 -274 z "},"Æ":{"ha":833,"x_min":0,"x_max":0,"o":"m 301 540 b 440 860 349 650 396 754 l 446 860 l 446 354 l 221 354 z m 0 0 l 69 0 l 199 301 l 446 301 l 446 0 l 818 0 l 818 56 l 507 56 l 507 458 l 733 458 l 733 514 l 507 514 l 507 860 l 804 860 l 804 915 l 404 915 z "},"Ǽ":{"ha":833,"x_min":0,"x_max":0,"o":"m 301 540 b 440 860 349 650 396 754 l 446 860 l 446 354 l 221 354 z m 0 0 l 69 0 l 199 301 l 446 301 l 446 0 l 818 0 l 818 56 l 507 56 l 507 458 l 733 458 l 733 514 l 507 514 l 507 860 l 804 860 l 804 915 l 404 915 z m 575 981 l 760 1138 l 719 1183 l 547 1013 z "},"Ǣ":{"ha":833,"x_min":0,"x_max":0,"o":"m 301 540 b 440 860 349 650 396 754 l 446 860 l 446 354 l 221 354 z m 0 0 l 69 0 l 199 301 l 446 301 l 446 0 l 818 0 l 818 56 l 507 56 l 507 458 l 733 458 l 733 514 l 507 514 l 507 860 l 804 860 l 804 915 l 404 915 z m 436 1032 l 781 1032 l 781 1082 l 436 1082 z "},"Ƀ":{"ha":833,"x_min":0,"x_max":0,"o":"m 161 0 l 411 0 b 749 267 622 0 749 90 b 531 488 749 393 667 468 l 531 493 b 693 693 639 521 693 597 b 393 915 693 846 581 915 l 161 915 l 161 293 l 53 286 l 53 242 l 161 242 z m 225 54 l 225 242 l 453 242 l 453 293 l 225 293 l 225 458 l 394 458 b 686 267 581 458 686 397 b 394 54 686 119 581 54 z m 225 514 l 225 861 l 375 861 b 629 690 547 861 629 813 b 368 514 629 574 556 514 z "},"Ḇ":{"ha":833,"x_min":0,"x_max":0,"o":"m 158 0 l 408 0 b 747 267 619 0 747 90 b 528 488 747 393 664 468 l 528 493 b 690 693 636 521 690 597 b 390 915 690 846 579 915 l 158 915 z m 222 514 l 222 861 l 372 861 b 626 690 544 861 626 813 b 365 514 626 574 553 514 z m 222 54 l 222 458 l 392 458 b 683 267 579 458 683 397 b 392 54 683 119 578 54 z m 254 -222 l 596 -222 l 596 -172 l 254 -172 z "},"Ç":{"ha":833,"x_min":0,"x_max":0,"o":"m 385 -304 b 586 -186 515 -296 586 -258 b 488 -90 586 -131 547 -106 l 511 -15 b 757 114 617 -8 692 40 l 718 154 b 489 42 651 79 582 42 b 167 460 292 42 167 206 b 493 874 167 714 292 874 b 692 781 576 874 643 836 l 731 822 b 493 932 682 879 599 932 b 100 460 258 932 100 750 b 461 -17 100 178 249 -4 l 424 -118 b 532 -189 500 -129 532 -149 b 375 -262 532 -231 496 -254 z "},"Ć":{"ha":833,"x_min":0,"x_max":0,"o":"m 483 -17 b 757 114 603 -17 686 33 l 718 154 b 489 42 651 79 582 42 b 167 460 292 42 167 206 b 493 874 167 714 292 874 b 692 781 576 874 643 836 l 731 822 b 493 932 682 879 599 932 b 100 460 258 932 100 750 b 483 -17 100 168 258 -17 z m 442 981 l 626 1138 l 586 1183 l 414 1013 z "},"Ĉ":{"ha":833,"x_min":0,"x_max":0,"o":"m 483 -17 b 757 114 603 -17 686 33 l 718 154 b 489 42 651 79 582 42 b 167 460 292 42 167 206 b 493 874 167 714 292 874 b 692 781 576 874 643 836 l 731 822 b 493 932 682 879 599 932 b 100 460 258 932 100 750 b 483 -17 100 168 258 -17 z m 315 982 l 472 1118 l 478 1118 l 635 982 l 663 1008 l 506 1165 l 444 1165 l 288 1008 z "},"Č":{"ha":833,"x_min":0,"x_max":0,"o":"m 483 -17 b 757 114 603 -17 686 33 l 718 154 b 489 42 651 79 582 42 b 167 460 292 42 167 206 b 493 874 167 714 292 874 b 692 781 576 874 643 836 l 731 822 b 493 932 682 879 599 932 b 100 460 258 932 100 750 b 483 -17 100 168 258 -17 z m 444 985 l 506 985 l 663 1143 l 635 1168 l 478 1032 l 472 1032 l 315 1168 l 288 1143 z "},"Ċ":{"ha":833,"x_min":0,"x_max":0,"o":"m 483 -17 b 757 114 603 -17 686 33 l 718 154 b 489 42 651 79 582 42 b 167 460 292 42 167 206 b 493 874 167 714 292 874 b 692 781 576 874 643 836 l 731 822 b 493 932 682 879 599 932 b 100 460 258 932 100 750 b 483 -17 100 168 258 -17 z m 475 1001 b 532 1060 506 1001 532 1025 b 475 1115 532 1093 506 1115 b 418 1060 444 1115 418 1093 b 475 1001 418 1025 444 1001 z "},"Ď":{"ha":833,"x_min":0,"x_max":0,"o":"m 133 0 l 346 0 b 758 461 626 0 758 183 b 344 915 758 738 626 915 l 133 915 z m 197 54 l 197 861 l 339 861 b 692 461 585 861 692 699 b 339 54 692 222 585 54 z m 386 985 l 447 985 l 604 1143 l 576 1168 l 419 1032 l 414 1032 l 257 1168 l 229 1143 z "},"Ḍ":{"ha":833,"x_min":0,"x_max":0,"o":"m 133 0 l 346 0 b 758 461 626 0 758 183 b 344 915 758 738 626 915 l 133 915 z m 197 54 l 197 861 l 339 861 b 692 461 585 861 692 699 b 339 54 692 222 585 54 z m 404 -274 b 469 -207 440 -274 469 -249 b 404 -140 469 -167 440 -140 b 339 -207 368 -140 339 -167 b 404 -274 339 -249 368 -274 z "},"Ḏ":{"ha":833,"x_min":0,"x_max":0,"o":"m 133 0 l 346 0 b 758 461 626 0 758 183 b 344 915 758 738 626 915 l 133 915 z m 197 54 l 197 861 l 339 861 b 692 461 585 861 692 699 b 339 54 692 222 585 54 z m 233 -222 l 575 -222 l 575 -172 l 233 -172 z "},"Ḑ":{"ha":833,"x_min":0,"x_max":0,"o":"m 197 54 l 197 861 l 339 861 b 692 461 585 861 692 699 b 339 54 692 222 585 54 z m 294 -304 b 496 -186 425 -296 496 -258 b 397 -90 496 -131 457 -106 l 428 6 b 758 461 653 39 758 213 b 344 915 758 738 626 915 l 133 915 l 133 0 l 346 0 b 378 1 357 0 367 0 l 333 -118 b 442 -189 410 -129 442 -149 b 285 -262 442 -231 406 -254 z "},"Đ":{"ha":833,"x_min":0,"x_max":0,"o":"m 133 0 l 346 0 b 758 461 625 0 758 183 b 344 915 758 738 625 915 l 133 915 l 133 513 l 26 506 l 26 460 l 133 460 z m 197 54 l 197 460 l 426 460 l 426 513 l 197 513 l 197 861 l 339 861 b 692 461 585 861 692 699 b 339 54 692 222 585 54 z "},"Ɗ":{"ha":833,"x_min":0,"x_max":0,"o":"m 314 0 l 411 0 b 776 471 649 0 776 186 b 364 932 776 753 651 932 b 49 629 157 932 49 806 b 199 372 49 500 104 419 l 232 421 b 110 631 150 468 110 528 b 314 872 110 757 182 856 z m 378 54 l 378 875 b 710 471 619 871 710 710 b 418 54 710 226 618 54 z "},"È":{"ha":833,"x_min":0,"x_max":0,"o":"m 176 0 l 732 0 l 732 56 l 240 56 l 240 458 l 643 458 l 643 514 l 240 514 l 240 860 l 718 860 l 718 915 l 176 915 z m 500 981 l 528 1013 l 356 1183 l 315 1138 z "},"É":{"ha":833,"x_min":0,"x_max":0,"o":"m 176 0 l 732 0 l 732 56 l 240 56 l 240 458 l 643 458 l 643 514 l 240 514 l 240 860 l 718 860 l 718 915 l 176 915 z m 433 981 l 618 1138 l 578 1183 l 406 1013 z "},"Ê":{"ha":833,"x_min":0,"x_max":0,"o":"m 176 0 l 732 0 l 732 56 l 240 56 l 240 458 l 643 458 l 643 514 l 240 514 l 240 860 l 718 860 l 718 915 l 176 915 z m 307 982 l 464 1118 l 469 1118 l 626 982 l 654 1008 l 497 1165 l 436 1165 l 279 1008 z "},"Ě":{"ha":833,"x_min":0,"x_max":0,"o":"m 176 0 l 732 0 l 732 56 l 240 56 l 240 458 l 643 458 l 643 514 l 240 514 l 240 860 l 718 860 l 718 915 l 176 915 z m 436 985 l 497 985 l 654 1143 l 626 1168 l 469 1032 l 464 1032 l 307 1168 l 279 1143 z "},"Ë":{"ha":833,"x_min":0,"x_max":0,"o":"m 176 0 l 732 0 l 732 56 l 240 56 l 240 458 l 643 458 l 643 514 l 240 514 l 240 860 l 718 860 l 718 915 l 176 915 z m 356 1007 b 407 1058 385 1007 407 1026 b 356 1110 407 1089 385 1110 b 304 1058 326 1110 304 1089 b 356 1007 304 1026 326 1007 z m 578 1007 b 629 1058 607 1007 629 1026 b 578 1110 629 1089 607 1110 b 526 1058 549 1110 526 1089 b 578 1007 526 1026 549 1007 z "},"Ē":{"ha":833,"x_min":0,"x_max":0,"o":"m 176 0 l 732 0 l 732 56 l 240 56 l 240 458 l 643 458 l 643 514 l 240 514 l 240 860 l 718 860 l 718 915 l 176 915 z m 294 1032 l 639 1032 l 639 1082 l 294 1082 z "},"Ĕ":{"ha":833,"x_min":0,"x_max":0,"o":"m 176 0 l 732 0 l 732 56 l 240 56 l 240 458 l 643 458 l 643 514 l 240 514 l 240 860 l 718 860 l 718 915 l 176 915 z m 467 986 b 656 1158 590 986 646 1076 l 610 1165 b 467 1032 600 1096 556 1032 b 324 1165 378 1032 333 1096 l 278 1158 b 467 986 289 1076 344 986 z "},"Ė":{"ha":833,"x_min":0,"x_max":0,"o":"m 176 0 l 732 0 l 732 56 l 240 56 l 240 458 l 643 458 l 643 514 l 240 514 l 240 860 l 718 860 l 718 915 l 176 915 z m 467 1001 b 524 1060 497 1001 524 1025 b 467 1115 524 1093 497 1115 b 410 1060 436 1115 410 1093 b 467 1001 410 1025 436 1001 z "},"Ę":{"ha":833,"x_min":0,"x_max":0,"o":"m 651 -311 b 765 -261 704 -311 736 -289 l 738 -226 b 660 -261 718 -246 694 -261 b 575 -179 617 -261 575 -235 b 729 0 575 -99 654 -15 l 732 0 l 732 56 l 240 56 l 240 458 l 643 458 l 643 514 l 240 514 l 240 860 l 718 860 l 718 915 l 176 915 l 176 0 l 643 0 b 519 -187 576 -40 519 -107 b 651 -311 519 -272 576 -311 z "},"Ẹ":{"ha":833,"x_min":0,"x_max":0,"o":"m 176 0 l 732 0 l 732 56 l 240 56 l 240 458 l 643 458 l 643 514 l 240 514 l 240 860 l 718 860 l 718 915 l 176 915 z m 469 -274 b 535 -207 506 -274 535 -249 b 469 -140 535 -167 506 -140 b 404 -207 433 -140 404 -167 b 469 -274 404 -249 433 -274 z "},"Ẻ":{"ha":833,"x_min":0,"x_max":0,"o":"m 176 0 l 732 0 l 732 56 l 240 56 l 240 458 l 643 458 l 643 514 l 240 514 l 240 860 l 718 860 l 718 915 l 176 915 z m 432 975 b 564 1096 499 993 564 1024 b 396 1199 564 1165 488 1196 l 390 1154 b 508 1088 467 1151 508 1131 b 421 1013 508 1049 471 1028 z "},"Ẽ":{"ha":833,"x_min":0,"x_max":0,"o":"m 176 0 l 732 0 l 732 56 l 240 56 l 240 458 l 643 458 l 643 514 l 240 514 l 240 860 l 718 860 l 718 915 l 176 915 z m 574 997 b 696 1151 649 997 692 1065 l 650 1156 b 574 1049 642 1090 614 1049 b 360 1158 497 1049 467 1158 b 238 1006 285 1158 242 1092 l 283 1001 b 360 1107 289 1067 319 1107 b 574 997 436 1107 467 997 z "},"Ế":{"ha":833,"x_min":0,"x_max":0,"o":"m 176 0 l 732 0 l 732 56 l 240 56 l 240 458 l 643 458 l 643 514 l 240 514 l 240 860 l 718 860 l 718 915 l 176 915 z m 333 982 l 464 1076 l 469 1076 l 600 982 l 626 1008 l 494 1125 l 439 1125 l 307 1008 z m 610 1063 l 749 1190 l 711 1228 l 581 1093 z "},"Ề":{"ha":833,"x_min":0,"x_max":0,"o":"m 176 0 l 732 0 l 732 56 l 240 56 l 240 458 l 643 458 l 643 514 l 240 514 l 240 860 l 718 860 l 718 915 l 176 915 z m 333 982 l 464 1076 l 469 1076 l 600 982 l 626 1008 l 494 1125 l 439 1125 l 307 1008 z m 324 1063 l 353 1088 l 247 1228 l 210 1196 z "},"Ể":{"ha":833,"x_min":0,"x_max":0,"o":"m 176 0 l 732 0 l 732 56 l 240 56 l 240 458 l 643 458 l 643 514 l 240 514 l 240 860 l 718 860 l 718 915 l 176 915 z m 333 982 l 464 1076 l 469 1076 l 600 982 l 626 1008 l 494 1125 l 439 1125 l 307 1008 z m 608 1051 b 718 1154 661 1064 718 1090 b 571 1249 718 1219 653 1244 l 564 1206 b 665 1147 631 1203 665 1189 b 594 1089 665 1115 633 1099 z "},"Ễ":{"ha":833,"x_min":0,"x_max":0,"o":"m 176 0 l 732 0 l 732 56 l 240 56 l 240 458 l 643 458 l 643 514 l 240 514 l 240 860 l 718 860 l 718 915 l 176 915 z m 333 982 l 464 1075 l 469 1075 l 600 982 l 626 1008 l 494 1124 l 439 1124 l 307 1008 z m 563 1167 b 661 1278 638 1167 658 1226 l 619 1282 b 563 1211 614 1239 600 1211 b 371 1285 494 1211 465 1285 b 272 1174 296 1285 275 1225 l 314 1169 b 371 1240 319 1213 333 1240 b 563 1167 439 1240 468 1167 z "},"Ệ":{"ha":833,"x_min":0,"x_max":0,"o":"m 176 0 l 732 0 l 732 56 l 240 56 l 240 458 l 643 458 l 643 514 l 240 514 l 240 860 l 718 860 l 718 915 l 176 915 z m 307 982 l 464 1118 l 469 1118 l 626 982 l 654 1008 l 497 1165 l 436 1165 l 279 1008 z m 469 -274 b 535 -207 506 -274 535 -249 b 469 -140 535 -167 506 -140 b 404 -207 433 -140 404 -167 b 469 -274 404 -249 433 -274 z "},"Ḗ":{"ha":833,"x_min":0,"x_max":0,"o":"m 176 0 l 732 0 l 732 56 l 240 56 l 240 458 l 643 458 l 643 514 l 240 514 l 240 860 l 718 860 l 718 915 l 176 915 z m 294 1032 l 639 1032 l 639 1082 l 294 1082 z m 451 1143 l 601 1274 l 565 1313 l 424 1172 z "},"Ǵ":{"ha":833,"x_min":0,"x_max":0,"o":"m 464 -17 b 729 88 582 -17 674 26 l 729 450 l 456 450 l 456 396 l 667 396 l 667 111 b 468 42 624 67 549 42 b 149 460 268 42 149 206 b 476 874 149 714 275 874 b 682 781 574 874 636 832 l 719 822 b 476 932 672 874 597 932 b 82 460 240 932 82 750 b 464 -17 82 168 236 -17 z m 425 981 l 610 1138 l 569 1183 l 397 1013 z "},"Ĝ":{"ha":833,"x_min":0,"x_max":0,"o":"m 464 -17 b 729 88 582 -17 674 26 l 729 450 l 456 450 l 456 396 l 667 396 l 667 111 b 468 42 624 67 549 42 b 149 460 268 42 149 206 b 476 874 149 714 275 874 b 682 781 574 874 636 832 l 719 822 b 476 932 672 874 597 932 b 82 460 240 932 82 750 b 464 -17 82 168 236 -17 z m 299 982 l 456 1118 l 461 1118 l 618 982 l 646 1008 l 489 1165 l 428 1165 l 271 1008 z "},"Ğ":{"ha":833,"x_min":0,"x_max":0,"o":"m 464 -17 b 729 88 582 -17 674 26 l 729 450 l 456 450 l 456 396 l 667 396 l 667 111 b 468 42 624 67 549 42 b 149 460 268 42 149 206 b 476 874 149 714 275 874 b 682 781 574 874 636 832 l 719 822 b 476 932 672 874 597 932 b 82 460 240 932 82 750 b 464 -17 82 168 236 -17 z m 458 986 b 647 1158 582 986 638 1076 l 601 1165 b 458 1032 592 1096 547 1032 b 315 1165 369 1032 325 1096 l 269 1158 b 458 986 281 1076 336 986 z "},"Ġ":{"ha":833,"x_min":0,"x_max":0,"o":"m 464 -17 b 729 88 582 -17 674 26 l 729 450 l 456 450 l 456 396 l 667 396 l 667 111 b 468 42 624 67 549 42 b 149 460 268 42 149 206 b 476 874 149 714 275 874 b 682 781 574 874 636 832 l 719 822 b 476 932 672 874 597 932 b 82 460 240 932 82 750 b 464 -17 82 168 236 -17 z m 458 1001 b 515 1060 489 1001 515 1025 b 458 1115 515 1093 489 1115 b 401 1060 428 1115 401 1093 b 458 1001 401 1025 428 1001 z "},"Ģ":{"ha":833,"x_min":0,"x_max":0,"o":"m 464 -17 b 729 88 582 -17 674 26 l 729 450 l 456 450 l 456 396 l 667 396 l 667 111 b 468 42 624 67 549 42 b 149 460 268 42 149 206 b 476 874 149 714 275 874 b 682 781 574 874 636 832 l 719 822 b 476 932 672 874 597 932 b 82 460 240 932 82 750 b 464 -17 82 168 236 -17 z m 357 -304 b 558 -186 488 -296 558 -258 b 415 -85 558 -126 521 -100 l 397 -125 b 504 -190 464 -131 504 -147 b 347 -262 504 -231 468 -254 z "},"Ǧ":{"ha":833,"x_min":0,"x_max":0,"o":"m 464 -17 b 729 88 582 -17 674 26 l 729 450 l 456 450 l 456 396 l 667 396 l 667 111 b 468 42 624 67 549 42 b 149 460 268 42 149 206 b 476 874 149 714 275 874 b 682 781 574 874 636 832 l 719 822 b 476 932 672 874 597 932 b 82 460 240 932 82 750 b 464 -17 82 168 236 -17 z m 428 985 l 489 985 l 646 1143 l 618 1168 l 461 1032 l 456 1032 l 299 1168 l 271 1143 z "},"Ḡ":{"ha":833,"x_min":0,"x_max":0,"o":"m 464 -17 b 729 88 582 -17 674 26 l 729 450 l 456 450 l 456 396 l 667 396 l 667 111 b 468 42 624 67 549 42 b 149 460 268 42 149 206 b 476 874 149 714 275 874 b 682 781 574 874 636 832 l 719 822 b 476 932 672 874 597 932 b 82 460 240 932 82 750 b 464 -17 82 168 236 -17 z m 286 1032 l 631 1032 l 631 1082 l 286 1082 z "},"Ɠ":{"ha":833,"x_min":0,"x_max":0,"o":"m 719 822 b 660 972 676 889 660 918 b 736 1051 660 1013 685 1051 b 788 1038 758 1051 772 1043 l 801 1088 b 733 1104 782 1096 760 1104 b 603 982 660 1104 603 1058 b 622 899 603 950 608 926 b 476 932 583 918 535 932 b 82 460 240 932 82 750 b 464 -17 82 168 236 -17 b 729 88 582 -17 674 26 l 729 450 l 456 450 l 456 396 l 667 396 l 667 111 b 468 42 624 67 549 42 b 149 460 268 42 149 206 b 476 874 149 714 275 874 b 682 781 574 874 636 832 z "},"Ĥ":{"ha":833,"x_min":0,"x_max":0,"o":"m 124 0 l 188 0 l 188 458 l 646 458 l 646 0 l 710 0 l 710 915 l 646 915 l 646 514 l 188 514 l 188 915 l 124 915 z m 257 982 l 414 1118 l 419 1118 l 576 982 l 604 1008 l 447 1165 l 386 1165 l 229 1008 z "},"Ḧ":{"ha":833,"x_min":0,"x_max":0,"o":"m 124 0 l 188 0 l 188 458 l 646 458 l 646 0 l 710 0 l 710 915 l 646 915 l 646 514 l 188 514 l 188 915 l 124 915 z m 306 1007 b 357 1058 335 1007 357 1026 b 306 1110 357 1089 335 1110 b 254 1058 276 1110 254 1089 b 306 1007 254 1026 276 1007 z m 528 1007 b 579 1058 557 1007 579 1026 b 528 1110 579 1089 557 1110 b 476 1058 499 1110 476 1089 b 528 1007 476 1026 499 1007 z "},"Ḥ":{"ha":833,"x_min":0,"x_max":0,"o":"m 124 0 l 188 0 l 188 458 l 646 458 l 646 0 l 710 0 l 710 915 l 646 915 l 646 514 l 188 514 l 188 915 l 124 915 z m 417 -274 b 482 -207 453 -274 482 -249 b 417 -140 482 -167 453 -140 b 351 -207 381 -140 351 -167 b 417 -274 351 -249 381 -274 z "},"Ḩ":{"ha":833,"x_min":0,"x_max":0,"o":"m 124 0 l 131 0 l 88 -118 b 196 -189 164 -129 196 -149 b 39 -262 196 -231 160 -254 l 49 -304 b 250 -186 179 -296 250 -258 b 151 -90 250 -131 211 -106 l 181 0 l 188 0 l 188 458 l 646 458 l 646 0 l 710 0 l 710 915 l 646 915 l 646 514 l 188 514 l 188 915 l 124 915 z "},"Ḫ":{"ha":833,"x_min":0,"x_max":0,"o":"m 124 0 l 188 0 l 188 458 l 646 458 l 646 0 l 710 0 l 710 915 l 646 915 l 646 514 l 188 514 l 188 915 l 124 915 z m 417 -321 b 624 -115 560 -321 613 -207 l 578 -108 b 417 -274 567 -186 517 -274 b 256 -108 317 -274 267 -186 l 210 -115 b 417 -321 221 -207 274 -321 z "},"Ħ":{"ha":833,"x_min":0,"x_max":0,"o":"m 19 685 l 124 685 l 124 0 l 188 0 l 188 458 l 646 458 l 646 0 l 710 0 l 710 685 l 814 685 l 814 736 l 710 736 l 710 915 l 646 915 l 646 736 l 188 736 l 188 915 l 124 915 l 124 736 l 19 729 z m 188 514 l 188 685 l 646 685 l 646 514 z "},"Ì":{"ha":833,"x_min":0,"x_max":0,"o":"m 149 0 l 685 0 l 685 56 l 449 56 l 449 860 l 685 860 l 685 915 l 149 915 l 149 860 l 385 860 l 385 56 l 149 56 z m 450 981 l 478 1013 l 306 1183 l 265 1138 z "},"Í":{"ha":833,"x_min":0,"x_max":0,"o":"m 149 0 l 685 0 l 685 56 l 449 56 l 449 860 l 685 860 l 685 915 l 149 915 l 149 860 l 385 860 l 385 56 l 149 56 z m 383 981 l 568 1138 l 528 1183 l 356 1013 z "},"Î":{"ha":833,"x_min":0,"x_max":0,"o":"m 149 0 l 685 0 l 685 56 l 449 56 l 449 860 l 685 860 l 685 915 l 149 915 l 149 860 l 385 860 l 385 56 l 149 56 z m 257 982 l 414 1118 l 419 1118 l 576 982 l 604 1008 l 447 1165 l 386 1165 l 229 1008 z "},"Ĩ":{"ha":833,"x_min":0,"x_max":0,"o":"m 149 0 l 685 0 l 685 56 l 449 56 l 449 860 l 685 860 l 685 915 l 149 915 l 149 860 l 385 860 l 385 56 l 149 56 z m 524 997 b 646 1151 599 997 642 1065 l 600 1156 b 524 1049 592 1090 564 1049 b 310 1158 447 1049 417 1158 b 188 1006 235 1158 192 1092 l 233 1001 b 310 1107 239 1067 269 1107 b 524 997 386 1107 417 997 z "},"Ï":{"ha":833,"x_min":0,"x_max":0,"o":"m 149 0 l 685 0 l 685 56 l 449 56 l 449 860 l 685 860 l 685 915 l 149 915 l 149 860 l 385 860 l 385 56 l 149 56 z m 306 1007 b 357 1058 335 1007 357 1026 b 306 1110 357 1089 335 1110 b 254 1058 276 1110 254 1089 b 306 1007 254 1026 276 1007 z m 528 1007 b 579 1058 557 1007 579 1026 b 528 1110 579 1089 557 1110 b 476 1058 499 1110 476 1089 b 528 1007 476 1026 499 1007 z "},"Ī":{"ha":833,"x_min":0,"x_max":0,"o":"m 149 0 l 685 0 l 685 56 l 449 56 l 449 860 l 685 860 l 685 915 l 149 915 l 149 860 l 385 860 l 385 56 l 149 56 z m 244 1032 l 589 1032 l 589 1082 l 244 1082 z "},"İ":{"ha":833,"x_min":0,"x_max":0,"o":"m 149 0 l 685 0 l 685 56 l 449 56 l 449 860 l 685 860 l 685 915 l 149 915 l 149 860 l 385 860 l 385 56 l 149 56 z m 417 1001 b 474 1060 447 1001 474 1025 b 417 1115 474 1093 447 1115 b 360 1060 386 1115 360 1093 b 417 1001 360 1025 386 1001 z "},"Ǐ":{"ha":833,"x_min":0,"x_max":0,"o":"m 149 0 l 685 0 l 685 56 l 449 56 l 449 860 l 685 860 l 685 915 l 149 915 l 149 860 l 385 860 l 385 56 l 149 56 z m 386 985 l 447 985 l 604 1143 l 576 1168 l 419 1032 l 414 1032 l 257 1168 l 229 1143 z "},"Į":{"ha":833,"x_min":0,"x_max":0,"o":"m 435 -311 b 549 -261 488 -311 519 -289 l 521 -226 b 443 -261 501 -246 478 -261 b 358 -179 400 -261 358 -235 b 458 0 358 -125 393 -65 l 685 0 l 685 56 l 449 56 l 449 860 l 685 860 l 685 915 l 149 915 l 149 860 l 385 860 l 385 56 l 149 56 l 149 0 l 399 0 b 303 -187 350 -53 303 -117 b 435 -311 303 -272 360 -311 z "},"Ỉ":{"ha":833,"x_min":0,"x_max":0,"o":"m 149 0 l 685 0 l 685 56 l 449 56 l 449 860 l 685 860 l 685 915 l 149 915 l 149 860 l 385 860 l 385 56 l 149 56 z m 382 975 b 514 1096 449 993 514 1024 b 346 1199 514 1165 438 1196 l 340 1154 b 458 1088 417 1151 458 1131 b 371 1013 458 1049 421 1028 z "},"Ị":{"ha":833,"x_min":0,"x_max":0,"o":"m 149 0 l 685 0 l 685 56 l 449 56 l 449 860 l 685 860 l 685 915 l 149 915 l 149 860 l 385 860 l 385 56 l 149 56 z m 417 -274 b 482 -207 453 -274 482 -249 b 417 -140 482 -167 453 -140 b 351 -207 381 -140 351 -167 b 417 -274 351 -249 381 -274 z "},"Ĭ":{"ha":833,"x_min":0,"x_max":0,"o":"m 149 0 l 685 0 l 685 56 l 449 56 l 449 860 l 685 860 l 685 915 l 149 915 l 149 860 l 385 860 l 385 56 l 149 56 z m 417 986 b 606 1158 540 986 596 1076 l 560 1165 b 417 1032 550 1096 506 1032 b 274 1165 328 1032 283 1096 l 228 1158 b 417 986 239 1076 294 986 z "},"Ĵ":{"ha":833,"x_min":0,"x_max":0,"o":"m 385 -17 b 667 283 597 -17 667 117 l 667 917 l 204 917 l 204 863 l 603 863 l 603 289 b 385 42 603 122 538 42 b 175 174 308 42 228 82 l 129 136 b 385 -17 183 35 283 -17 z m 286 982 l 443 1118 l 449 1118 l 606 982 l 633 1008 l 476 1165 l 415 1165 l 258 1008 z "},"Ķ":{"ha":833,"x_min":0,"x_max":0,"o":"m 160 0 l 225 0 l 225 315 l 414 529 l 719 0 l 793 0 l 457 578 l 756 915 l 679 915 l 228 407 l 225 407 l 225 915 l 160 915 z m 374 -304 b 575 -186 504 -296 575 -258 b 432 -85 575 -126 538 -100 l 414 -125 b 521 -190 481 -131 521 -147 b 364 -262 521 -231 485 -254 z "},"Ḳ":{"ha":833,"x_min":0,"x_max":0,"o":"m 160 0 l 225 0 l 225 315 l 414 529 l 719 0 l 793 0 l 457 578 l 756 915 l 679 915 l 228 407 l 225 407 l 225 915 l 160 915 z m 481 -274 b 546 -207 517 -274 546 -249 b 481 -140 546 -167 517 -140 b 415 -207 444 -140 415 -167 b 481 -274 415 -249 444 -274 z "},"Ḵ":{"ha":833,"x_min":0,"x_max":0,"o":"m 160 0 l 225 0 l 225 315 l 414 529 l 719 0 l 793 0 l 457 578 l 756 915 l 679 915 l 228 407 l 225 407 l 225 915 l 160 915 z m 310 -222 l 651 -222 l 651 -172 l 310 -172 z "},"Ĺ":{"ha":833,"x_min":0,"x_max":0,"o":"m 208 0 l 749 0 l 749 56 l 269 56 l 269 915 l 208 915 z m 226 981 l 411 1138 l 371 1183 l 199 1013 z "},"Ľ":{"ha":833,"x_min":0,"x_max":0,"o":"m 208 0 l 749 0 l 749 56 l 269 56 l 269 915 l 208 915 z m 540 718 l 585 718 l 596 988 l 596 1086 l 538 1086 z "},"Ļ":{"ha":833,"x_min":0,"x_max":0,"o":"m 208 0 l 749 0 l 749 56 l 269 56 l 269 915 l 208 915 z m 389 -304 b 590 -186 519 -296 590 -258 b 447 -85 590 -126 553 -100 l 429 -125 b 536 -190 496 -131 536 -147 b 379 -262 536 -231 500 -254 z "},"Ḷ":{"ha":833,"x_min":0,"x_max":0,"o":"m 208 0 l 749 0 l 749 56 l 269 56 l 269 915 l 208 915 z m 496 -274 b 561 -207 532 -274 561 -249 b 496 -140 561 -167 532 -140 b 431 -207 460 -140 431 -167 b 496 -274 431 -249 460 -274 z "},"Ḹ":{"ha":833,"x_min":0,"x_max":0,"o":"m 208 0 l 749 0 l 749 56 l 269 56 l 269 915 l 208 915 z m 88 1032 l 432 1032 l 432 1082 l 88 1082 z m 496 -274 b 561 -207 532 -274 561 -249 b 496 -140 561 -167 532 -140 b 431 -207 460 -140 431 -167 b 496 -274 431 -249 460 -274 z "},"Ḻ":{"ha":833,"x_min":0,"x_max":0,"o":"m 208 0 l 749 0 l 749 56 l 269 56 l 269 915 l 208 915 z m 325 -222 l 667 -222 l 667 -172 l 325 -172 z "},"Ł":{"ha":833,"x_min":0,"x_max":0,"o":"m 51 261 l 208 342 l 208 0 l 749 0 l 749 56 l 269 56 l 269 369 l 611 549 l 588 593 l 269 426 l 269 915 l 208 915 l 208 397 l 28 304 z "},"Ŀ":{"ha":833,"x_min":0,"x_max":0,"o":"m 208 0 l 749 0 l 749 56 l 269 56 l 269 915 l 208 915 z m 642 411 b 707 478 678 411 707 436 b 642 544 707 518 678 544 b 576 478 606 544 576 518 b 642 411 576 436 606 411 z "},"Ḿ":{"ha":833,"x_min":0,"x_max":0,"o":"m 113 0 l 174 0 l 174 625 b 164 842 174 690 167 779 l 167 842 l 221 685 l 390 243 l 440 243 l 613 685 l 663 842 l 667 842 b 658 625 664 779 658 690 l 658 0 l 721 0 l 721 915 l 636 915 l 474 486 l 419 326 l 414 326 l 357 486 l 197 915 l 113 915 z m 383 981 l 568 1138 l 528 1183 l 356 1013 z "},"Ṁ":{"ha":833,"x_min":0,"x_max":0,"o":"m 113 0 l 174 0 l 174 625 b 164 842 174 690 167 779 l 167 842 l 221 685 l 390 243 l 440 243 l 613 685 l 663 842 l 667 842 b 658 625 664 779 658 690 l 658 0 l 721 0 l 721 915 l 636 915 l 474 486 l 419 326 l 414 326 l 357 486 l 197 915 l 113 915 z m 417 1001 b 474 1060 447 1001 474 1025 b 417 1115 474 1093 447 1115 b 360 1060 386 1115 360 1093 b 417 1001 360 1025 386 1001 z "},"Ṃ":{"ha":833,"x_min":0,"x_max":0,"o":"m 113 0 l 174 0 l 174 625 b 164 842 174 690 167 779 l 167 842 l 221 685 l 390 243 l 440 243 l 613 685 l 663 842 l 667 842 b 658 625 664 779 658 690 l 658 0 l 721 0 l 721 915 l 636 915 l 474 486 l 419 326 l 414 326 l 357 486 l 197 915 l 113 915 z m 417 -274 b 482 -207 453 -274 482 -249 b 417 -140 482 -167 453 -140 b 351 -207 381 -140 351 -167 b 417 -274 351 -249 381 -274 z "},"Ń":{"ha":833,"x_min":0,"x_max":0,"o":"m 128 0 l 189 0 l 189 568 b 181 828 189 656 182 739 l 183 828 l 281 647 l 638 0 l 706 0 l 706 915 l 644 915 l 644 353 b 653 88 644 264 651 175 l 650 88 l 553 268 l 196 915 l 128 915 z m 397 981 l 582 1138 l 542 1183 l 369 1013 z "},"Ǹ":{"ha":833,"x_min":0,"x_max":0,"o":"m 128 0 l 189 0 l 189 568 b 181 828 189 656 182 739 l 183 828 l 281 647 l 638 0 l 706 0 l 706 915 l 644 915 l 644 353 b 653 88 644 264 651 175 l 650 88 l 553 268 l 196 915 l 128 915 z m 464 981 l 492 1013 l 319 1183 l 279 1138 z "},"Ň":{"ha":833,"x_min":0,"x_max":0,"o":"m 128 0 l 189 0 l 189 568 b 181 828 189 656 182 739 l 183 828 l 281 647 l 638 0 l 706 0 l 706 915 l 644 915 l 644 353 b 653 88 644 264 651 175 l 650 88 l 553 268 l 196 915 l 128 915 z m 400 985 l 461 985 l 618 1143 l 590 1168 l 433 1032 l 428 1032 l 271 1168 l 243 1143 z "},"Ñ":{"ha":833,"x_min":0,"x_max":0,"o":"m 128 0 l 189 0 l 189 568 b 181 828 189 656 182 739 l 183 828 l 281 647 l 638 0 l 706 0 l 706 915 l 644 915 l 644 353 b 653 88 644 264 651 175 l 650 88 l 553 268 l 196 915 l 128 915 z m 538 997 b 660 1151 613 997 656 1065 l 614 1156 b 538 1049 606 1090 578 1049 b 324 1158 461 1049 431 1158 b 201 1006 249 1158 206 1092 l 247 1001 b 324 1107 253 1067 283 1107 b 538 997 400 1107 431 997 z "},"Ņ":{"ha":833,"x_min":0,"x_max":0,"o":"m 128 0 l 189 0 l 189 568 b 181 828 189 656 182 739 l 183 828 l 281 647 l 638 0 l 706 0 l 706 915 l 644 915 l 644 353 b 653 88 644 264 651 175 l 650 88 l 553 268 l 196 915 l 128 915 z m 310 -304 b 511 -186 440 -296 511 -258 b 368 -85 511 -126 474 -100 l 350 -125 b 457 -190 417 -131 457 -147 b 300 -262 457 -231 421 -254 z "},"Ṅ":{"ha":833,"x_min":0,"x_max":0,"o":"m 128 0 l 189 0 l 189 568 b 181 828 189 656 182 739 l 183 828 l 281 647 l 638 0 l 706 0 l 706 915 l 644 915 l 644 353 b 653 88 644 264 651 175 l 650 88 l 553 268 l 196 915 l 128 915 z m 431 1001 b 488 1060 461 1001 488 1025 b 431 1115 488 1093 461 1115 b 374 1060 400 1115 374 1093 b 431 1001 374 1025 400 1001 z "},"Ṇ":{"ha":833,"x_min":0,"x_max":0,"o":"m 128 0 l 189 0 l 189 568 b 181 828 189 656 182 739 l 183 828 l 281 647 l 638 0 l 706 0 l 706 915 l 644 915 l 644 353 b 653 88 644 264 651 175 l 650 88 l 553 268 l 196 915 l 128 915 z m 417 -274 b 482 -207 453 -274 482 -249 b 417 -140 482 -167 453 -140 b 351 -207 381 -140 351 -167 b 417 -274 351 -249 381 -274 z "},"Ṉ":{"ha":833,"x_min":0,"x_max":0,"o":"m 128 0 l 189 0 l 189 568 b 181 828 189 656 182 739 l 183 828 l 281 647 l 638 0 l 706 0 l 706 915 l 644 915 l 644 353 b 653 88 644 264 651 175 l 650 88 l 553 268 l 196 915 l 128 915 z m 246 -222 l 588 -222 l 588 -172 l 246 -172 z "},"Ò":{"ha":833,"x_min":0,"x_max":0,"o":"m 417 -17 b 758 461 617 -17 758 169 b 417 932 758 751 617 932 b 75 461 217 932 75 751 b 417 -17 75 169 217 -17 z m 417 42 b 142 461 253 42 142 206 b 417 874 142 715 253 874 b 692 461 581 874 692 715 b 417 42 692 206 581 42 z m 450 981 l 478 1013 l 306 1183 l 265 1138 z "},"Ó":{"ha":833,"x_min":0,"x_max":0,"o":"m 417 -17 b 758 461 617 -17 758 169 b 417 932 758 751 617 932 b 75 461 217 932 75 751 b 417 -17 75 169 217 -17 z m 417 42 b 142 461 253 42 142 206 b 417 874 142 715 253 874 b 692 461 581 874 692 715 b 417 42 692 206 581 42 z m 383 981 l 568 1138 l 528 1183 l 356 1013 z "},"Ô":{"ha":833,"x_min":0,"x_max":0,"o":"m 417 -17 b 758 461 617 -17 758 169 b 417 932 758 751 617 932 b 75 461 217 932 75 751 b 417 -17 75 169 217 -17 z m 417 42 b 142 461 253 42 142 206 b 417 874 142 715 253 874 b 692 461 581 874 692 715 b 417 42 692 206 581 42 z m 257 982 l 414 1118 l 419 1118 l 576 982 l 604 1008 l 447 1165 l 386 1165 l 229 1008 z "},"Õ":{"ha":833,"x_min":0,"x_max":0,"o":"m 417 -17 b 758 461 617 -17 758 169 b 417 932 758 751 617 932 b 75 461 217 932 75 751 b 417 -17 75 169 217 -17 z m 417 42 b 142 461 253 42 142 206 b 417 874 142 715 253 874 b 692 461 581 874 692 715 b 417 42 692 206 581 42 z m 524 997 b 646 1151 599 997 642 1065 l 600 1156 b 524 1049 592 1090 564 1049 b 310 1158 447 1049 417 1158 b 188 1006 235 1158 192 1092 l 233 1001 b 310 1107 239 1067 269 1107 b 524 997 386 1107 417 997 z "},"Ö":{"ha":833,"x_min":0,"x_max":0,"o":"m 417 -17 b 758 461 617 -17 758 169 b 417 932 758 751 617 932 b 75 461 217 932 75 751 b 417 -17 75 169 217 -17 z m 417 42 b 142 461 253 42 142 206 b 417 874 142 715 253 874 b 692 461 581 874 692 715 b 417 42 692 206 581 42 z m 306 1007 b 357 1058 335 1007 357 1026 b 306 1110 357 1089 335 1110 b 254 1058 276 1110 254 1089 b 306 1007 254 1026 276 1007 z m 528 1007 b 579 1058 557 1007 579 1026 b 528 1110 579 1089 557 1110 b 476 1058 499 1110 476 1089 b 528 1007 476 1026 499 1007 z "},"Ō":{"ha":833,"x_min":0,"x_max":0,"o":"m 417 -17 b 758 461 617 -17 758 169 b 417 932 758 751 617 932 b 75 461 217 932 75 751 b 417 -17 75 169 217 -17 z m 417 42 b 142 461 253 42 142 206 b 417 874 142 715 253 874 b 692 461 581 874 692 715 b 417 42 692 206 581 42 z m 244 1032 l 589 1032 l 589 1082 l 244 1082 z "},"Ő":{"ha":833,"x_min":0,"x_max":0,"o":"m 417 -17 b 758 461 617 -17 758 169 b 417 932 758 751 617 932 b 75 461 217 932 75 751 b 417 -17 75 169 217 -17 z m 417 42 b 142 461 253 42 142 206 b 417 874 142 715 253 874 b 692 461 581 874 692 715 b 417 42 692 206 581 42 z m 313 983 l 446 1178 l 399 1207 l 276 1001 z m 513 983 l 646 1178 l 599 1207 l 476 1001 z "},"Ŏ":{"ha":833,"x_min":0,"x_max":0,"o":"m 417 -17 b 758 461 617 -17 758 169 b 417 932 758 751 617 932 b 75 461 217 932 75 751 b 417 -17 75 169 217 -17 z m 417 42 b 142 461 253 42 142 206 b 417 874 142 715 253 874 b 692 461 581 874 692 715 b 417 42 692 206 581 42 z m 417 986 b 606 1158 540 986 596 1076 l 560 1165 b 417 1032 550 1096 506 1032 b 274 1165 328 1032 283 1096 l 228 1158 b 417 986 239 1076 294 986 z "},"Ǒ":{"ha":833,"x_min":0,"x_max":0,"o":"m 417 -17 b 758 461 617 -17 758 169 b 417 932 758 751 617 932 b 75 461 217 932 75 751 b 417 -17 75 169 217 -17 z m 417 42 b 142 461 253 42 142 206 b 417 874 142 715 253 874 b 692 461 581 874 692 715 b 417 42 692 206 581 42 z m 386 985 l 447 985 l 604 1143 l 576 1168 l 419 1032 l 414 1032 l 257 1168 l 229 1143 z "},"Ǫ":{"ha":833,"x_min":0,"x_max":0,"o":"m 438 -311 b 551 -261 490 -311 522 -289 l 524 -226 b 446 -261 504 -246 481 -261 b 360 -179 401 -261 360 -235 b 501 -7 360 -115 413 -44 b 758 461 671 64 758 221 b 417 932 758 750 617 932 b 75 461 217 932 75 750 b 410 -17 75 192 194 -6 b 306 -187 353 -62 306 -115 b 438 -311 306 -272 363 -311 z m 417 40 b 142 461 253 40 142 204 b 417 874 142 715 253 874 b 692 461 581 874 692 715 b 417 40 692 204 581 40 z "},"Ọ":{"ha":833,"x_min":0,"x_max":0,"o":"m 417 -17 b 758 461 617 -17 758 169 b 417 932 758 751 617 932 b 75 461 217 932 75 751 b 417 -17 75 169 217 -17 z m 417 42 b 142 461 253 42 142 206 b 417 874 142 715 253 874 b 692 461 581 874 692 715 b 417 42 692 206 581 42 z m 417 -274 b 482 -207 453 -274 482 -249 b 417 -140 482 -167 453 -140 b 351 -207 381 -140 351 -167 b 417 -274 351 -249 381 -274 z "},"Ỏ":{"ha":833,"x_min":0,"x_max":0,"o":"m 417 -17 b 758 461 617 -17 758 169 b 417 932 758 751 617 932 b 75 461 217 932 75 751 b 417 -17 75 169 217 -17 z m 417 42 b 142 461 253 42 142 206 b 417 874 142 715 253 874 b 692 461 581 874 692 715 b 417 42 692 206 581 42 z m 382 975 b 514 1096 449 993 514 1024 b 346 1199 514 1165 438 1196 l 340 1154 b 458 1088 417 1151 458 1131 b 371 1013 458 1049 421 1028 z "},"Ố":{"ha":833,"x_min":0,"x_max":0,"o":"m 417 -17 b 758 461 617 -17 758 169 b 417 932 758 751 617 932 b 75 461 217 932 75 751 b 417 -17 75 169 217 -17 z m 417 42 b 142 461 253 42 142 206 b 417 874 142 715 253 874 b 692 461 581 874 692 715 b 417 42 692 206 581 42 z m 283 982 l 414 1076 l 419 1076 l 550 982 l 576 1008 l 444 1125 l 389 1125 l 257 1008 z m 560 1063 l 699 1190 l 661 1228 l 531 1093 z "},"Ồ":{"ha":833,"x_min":0,"x_max":0,"o":"m 417 -17 b 758 461 617 -17 758 169 b 417 932 758 751 617 932 b 75 461 217 932 75 751 b 417 -17 75 169 217 -17 z m 417 42 b 142 461 253 42 142 206 b 417 874 142 715 253 874 b 692 461 581 874 692 715 b 417 42 692 206 581 42 z m 283 982 l 414 1076 l 419 1076 l 550 982 l 576 1008 l 444 1125 l 389 1125 l 257 1008 z m 274 1063 l 303 1088 l 197 1228 l 160 1196 z "},"Ổ":{"ha":833,"x_min":0,"x_max":0,"o":"m 417 -17 b 758 461 617 -17 758 169 b 417 932 758 751 617 932 b 75 461 217 932 75 751 b 417 -17 75 169 217 -17 z m 417 42 b 142 461 253 42 142 206 b 417 874 142 715 253 874 b 692 461 581 874 692 715 b 417 42 692 206 581 42 z m 283 982 l 414 1076 l 419 1076 l 550 982 l 576 1008 l 444 1125 l 389 1125 l 257 1008 z m 558 1051 b 668 1154 611 1064 668 1090 b 521 1249 668 1219 603 1244 l 514 1206 b 615 1147 581 1203 615 1189 b 544 1089 615 1115 583 1099 z "},"Ỗ":{"ha":833,"x_min":0,"x_max":0,"o":"m 417 -17 b 758 461 617 -17 758 169 b 417 932 758 751 617 932 b 75 461 217 932 75 751 b 417 -17 75 169 217 -17 z m 417 42 b 142 461 253 42 142 206 b 417 874 142 715 253 874 b 692 461 581 874 692 715 b 417 42 692 206 581 42 z m 283 982 l 414 1075 l 419 1075 l 550 982 l 576 1008 l 444 1124 l 389 1124 l 257 1008 z m 513 1167 b 611 1278 588 1167 608 1226 l 569 1282 b 513 1211 564 1239 550 1211 b 321 1285 444 1211 415 1285 b 222 1174 246 1285 225 1225 l 264 1169 b 321 1240 269 1213 283 1240 b 513 1167 389 1240 418 1167 z "},"Ộ":{"ha":833,"x_min":0,"x_max":0,"o":"m 417 -17 b 758 461 617 -17 758 169 b 417 932 758 751 617 932 b 75 461 217 932 75 751 b 417 -17 75 169 217 -17 z m 417 42 b 142 461 253 42 142 206 b 417 874 142 715 253 874 b 692 461 581 874 692 715 b 417 42 692 206 581 42 z m 257 982 l 414 1118 l 419 1118 l 576 982 l 604 1008 l 447 1165 l 386 1165 l 229 1008 z m 417 -274 b 482 -207 453 -274 482 -249 b 417 -140 482 -167 453 -140 b 351 -207 381 -140 351 -167 b 417 -274 351 -249 381 -274 z "},"Ơ":{"ha":833,"x_min":0,"x_max":0,"o":"m 417 -17 b 758 461 617 -17 758 169 b 617 856 758 639 704 776 b 754 1017 700 879 754 931 b 728 1114 754 1050 744 1083 l 672 1088 b 692 1013 686 1064 692 1035 b 569 890 692 949 654 907 b 417 932 524 918 472 932 b 75 461 217 932 75 751 b 417 -17 75 169 217 -17 z m 417 42 b 142 461 253 42 142 206 b 417 874 142 715 253 874 b 692 461 581 874 692 715 b 417 42 692 206 581 42 z "},"Ớ":{"ha":833,"x_min":0,"x_max":0,"o":"m 417 -17 b 758 461 617 -17 758 169 b 617 856 758 639 704 776 b 754 1017 700 879 754 931 b 728 1114 754 1050 744 1083 l 672 1088 b 692 1013 686 1064 692 1035 b 569 890 692 949 654 907 b 417 932 524 918 472 932 b 75 461 217 932 75 751 b 417 -17 75 169 217 -17 z m 417 42 b 142 461 253 42 142 206 b 417 874 142 715 253 874 b 692 461 581 874 692 715 b 417 42 692 206 581 42 z m 383 981 l 568 1138 l 528 1183 l 356 1013 z "},"Ờ":{"ha":833,"x_min":0,"x_max":0,"o":"m 417 -17 b 758 461 617 -17 758 169 b 617 856 758 639 704 776 b 754 1017 700 879 754 931 b 728 1114 754 1050 744 1083 l 672 1088 b 692 1013 686 1064 692 1035 b 569 890 692 949 654 907 b 417 932 524 918 472 932 b 75 461 217 932 75 751 b 417 -17 75 169 217 -17 z m 417 42 b 142 461 253 42 142 206 b 417 874 142 715 253 874 b 692 461 581 874 692 715 b 417 42 692 206 581 42 z m 450 981 l 478 1013 l 306 1183 l 265 1138 z "},"Ở":{"ha":833,"x_min":0,"x_max":0,"o":"m 417 -17 b 758 461 617 -17 758 169 b 617 856 758 639 704 776 b 754 1017 700 879 754 931 b 728 1114 754 1050 744 1083 l 672 1088 b 692 1013 686 1064 692 1035 b 569 890 692 949 654 907 b 417 932 524 918 472 932 b 75 461 217 932 75 751 b 417 -17 75 169 217 -17 z m 417 42 b 142 461 253 42 142 206 b 417 874 142 715 253 874 b 692 461 581 874 692 715 b 417 42 692 206 581 42 z m 382 975 b 514 1096 449 993 514 1024 b 346 1199 514 1165 438 1196 l 340 1154 b 458 1088 417 1151 458 1131 b 371 1013 458 1049 421 1028 z "},"Ỡ":{"ha":833,"x_min":0,"x_max":0,"o":"m 417 -17 b 758 461 617 -17 758 169 b 617 856 758 639 704 776 b 754 1017 700 879 754 931 b 728 1114 754 1050 744 1083 l 672 1088 b 692 1013 686 1064 692 1035 b 569 890 692 949 654 907 b 417 932 524 918 472 932 b 75 461 217 932 75 751 b 417 -17 75 169 217 -17 z m 417 42 b 142 461 253 42 142 206 b 417 874 142 715 253 874 b 692 461 581 874 692 715 b 417 42 692 206 581 42 z m 496 997 b 618 1151 571 997 614 1065 l 572 1156 b 496 1049 564 1090 536 1049 b 282 1158 419 1049 389 1158 b 160 1006 207 1158 164 1092 l 206 1001 b 282 1107 211 1067 242 1107 b 496 997 358 1107 389 997 z "},"Ợ":{"ha":833,"x_min":0,"x_max":0,"o":"m 417 -17 b 758 461 617 -17 758 169 b 617 856 758 639 704 776 b 754 1017 700 879 754 931 b 728 1114 754 1050 744 1083 l 672 1088 b 692 1013 686 1064 692 1035 b 569 890 692 949 654 907 b 417 932 524 918 472 932 b 75 461 217 932 75 751 b 417 -17 75 169 217 -17 z m 417 42 b 142 461 253 42 142 206 b 417 874 142 715 253 874 b 692 461 581 874 692 715 b 417 42 692 206 581 42 z m 417 -274 b 482 -207 453 -274 482 -249 b 417 -140 482 -167 453 -140 b 351 -207 381 -140 351 -167 b 417 -274 351 -249 381 -274 z "},"Ṓ":{"ha":833,"x_min":0,"x_max":0,"o":"m 417 -17 b 758 461 617 -17 758 169 b 417 932 758 751 617 932 b 75 461 217 932 75 751 b 417 -17 75 169 217 -17 z m 417 42 b 142 461 253 42 142 206 b 417 874 142 715 253 874 b 692 461 581 874 692 715 b 417 42 692 206 581 42 z m 244 1032 l 589 1032 l 589 1082 l 244 1082 z m 401 1143 l 551 1274 l 515 1313 l 374 1172 z "},"Ø":{"ha":833,"x_min":0,"x_max":0,"o":"m 417 -17 b 758 461 617 -17 758 169 b 671 793 758 599 726 713 l 756 918 l 713 947 l 638 836 b 417 932 579 899 504 932 b 75 461 217 932 75 751 b 160 128 75 324 107 210 l 72 -3 l 115 -32 l 193 85 b 417 -17 251 19 329 -17 z m 142 461 b 417 874 142 715 253 874 b 601 782 490 874 554 842 l 200 186 b 142 461 163 257 142 350 z m 417 42 b 231 139 342 42 278 76 l 632 735 b 692 461 671 665 692 572 b 417 42 692 206 581 42 z "},"Ǿ":{"ha":833,"x_min":0,"x_max":0,"o":"m 417 -17 b 758 461 617 -17 758 169 b 671 793 758 599 726 713 l 756 918 l 713 947 l 638 836 b 417 932 579 899 504 932 b 75 461 217 932 75 751 b 160 128 75 324 107 210 l 72 -3 l 115 -32 l 193 85 b 417 -17 251 19 329 -17 z m 142 461 b 417 874 142 715 253 874 b 601 782 490 874 554 842 l 200 186 b 142 461 163 257 142 350 z m 417 42 b 231 139 342 42 278 76 l 632 735 b 692 461 671 665 692 572 b 417 42 692 206 581 42 z m 383 981 l 568 1138 l 528 1183 l 356 1013 z "},"Œ":{"ha":833,"x_min":0,"x_max":0,"o":"m 418 0 l 818 0 l 818 56 l 506 56 l 506 458 l 733 458 l 733 514 l 506 514 l 506 863 l 804 863 l 804 917 l 418 917 b 57 461 182 917 57 738 b 418 0 57 183 181 0 z m 411 54 b 124 461 211 54 124 222 b 411 863 124 700 211 863 l 444 863 l 444 54 z "},"Ŕ":{"ha":833,"x_min":0,"x_max":0,"o":"m 163 0 l 226 0 l 226 421 l 421 421 l 668 0 l 743 0 l 490 425 b 725 674 633 444 725 528 b 424 915 725 849 606 915 l 163 915 z m 226 474 l 226 861 l 407 861 b 660 674 569 861 660 811 b 407 474 660 539 569 474 z m 390 981 l 575 1138 l 535 1183 l 363 1013 z "},"Ř":{"ha":833,"x_min":0,"x_max":0,"o":"m 163 0 l 226 0 l 226 421 l 421 421 l 668 0 l 743 0 l 490 425 b 725 674 633 444 725 528 b 424 915 725 849 606 915 l 163 915 z m 226 474 l 226 861 l 407 861 b 660 674 569 861 660 811 b 407 474 660 539 569 474 z m 393 985 l 454 985 l 611 1143 l 583 1168 l 426 1032 l 421 1032 l 264 1168 l 236 1143 z "},"Ṙ":{"ha":833,"x_min":0,"x_max":0,"o":"m 163 0 l 226 0 l 226 421 l 421 421 l 668 0 l 743 0 l 490 425 b 725 674 633 444 725 528 b 424 915 725 849 606 915 l 163 915 z m 226 474 l 226 861 l 407 861 b 660 674 569 861 660 811 b 407 474 660 539 569 474 z m 424 1001 b 481 1060 454 1001 481 1025 b 424 1115 481 1093 454 1115 b 367 1060 393 1115 367 1093 b 424 1001 367 1025 393 1001 z "},"Ŗ":{"ha":833,"x_min":0,"x_max":0,"o":"m 163 0 l 226 0 l 226 421 l 421 421 l 668 0 l 743 0 l 490 425 b 725 674 633 444 725 528 b 424 915 725 849 606 915 l 163 915 z m 226 474 l 226 861 l 407 861 b 660 674 569 861 660 811 b 407 474 660 539 569 474 z m 338 -304 b 539 -186 468 -296 539 -258 b 396 -85 539 -126 501 -100 l 378 -125 b 485 -190 444 -131 485 -147 b 328 -262 485 -231 449 -254 z "},"Ṛ":{"ha":833,"x_min":0,"x_max":0,"o":"m 163 0 l 226 0 l 226 421 l 421 421 l 668 0 l 743 0 l 490 425 b 725 674 633 444 725 528 b 424 915 725 849 606 915 l 163 915 z m 226 474 l 226 861 l 407 861 b 660 674 569 861 660 811 b 407 474 660 539 569 474 z m 444 -274 b 510 -207 481 -274 510 -249 b 444 -140 510 -167 481 -140 b 379 -207 408 -140 379 -167 b 444 -274 379 -249 408 -274 z "},"Ṝ":{"ha":833,"x_min":0,"x_max":0,"o":"m 163 0 l 226 0 l 226 421 l 421 421 l 668 0 l 743 0 l 490 425 b 725 674 633 444 725 528 b 424 915 725 849 606 915 l 163 915 z m 226 474 l 226 861 l 407 861 b 660 674 569 861 660 811 b 407 474 660 539 569 474 z m 251 1032 l 596 1032 l 596 1082 l 251 1082 z m 444 -274 b 510 -207 481 -274 510 -249 b 444 -140 510 -167 481 -140 b 379 -207 408 -140 379 -167 b 444 -274 379 -249 408 -274 z "},"Ṟ":{"ha":833,"x_min":0,"x_max":0,"o":"m 163 0 l 226 0 l 226 421 l 421 421 l 668 0 l 743 0 l 490 425 b 725 674 633 444 725 528 b 424 915 725 849 606 915 l 163 915 z m 226 474 l 226 861 l 407 861 b 660 674 569 861 660 811 b 407 474 660 539 569 474 z m 274 -222 l 615 -222 l 615 -172 l 274 -172 z "},"Ś":{"ha":833,"x_min":0,"x_max":0,"o":"m 429 -17 b 735 229 614 -17 735 89 b 528 472 735 369 638 426 l 390 533 b 218 710 318 564 218 604 b 432 874 218 810 304 874 b 665 781 531 874 608 836 l 703 822 b 433 932 643 882 550 932 b 154 707 274 932 154 839 b 354 479 154 571 268 514 l 492 417 b 671 224 589 375 671 339 b 431 42 671 117 578 42 b 147 165 317 42 217 90 l 106 121 b 429 -17 182 40 289 -17 z m 404 981 l 589 1138 l 549 1183 l 376 1013 z "},"Ŝ":{"ha":833,"x_min":0,"x_max":0,"o":"m 429 -17 b 735 229 614 -17 735 89 b 528 472 735 369 638 426 l 390 533 b 218 710 318 564 218 604 b 432 874 218 810 304 874 b 665 781 531 874 608 836 l 703 822 b 433 932 643 882 550 932 b 154 707 274 932 154 839 b 354 479 154 571 268 514 l 492 417 b 671 224 589 375 671 339 b 431 42 671 117 578 42 b 147 165 317 42 217 90 l 106 121 b 429 -17 182 40 289 -17 z m 278 982 l 435 1118 l 440 1118 l 597 982 l 625 1008 l 468 1165 l 407 1165 l 250 1008 z "},"Š":{"ha":833,"x_min":0,"x_max":0,"o":"m 429 -17 b 735 229 614 -17 735 89 b 528 472 735 369 638 426 l 390 533 b 218 710 318 564 218 604 b 432 874 218 810 304 874 b 665 781 531 874 608 836 l 703 822 b 433 932 643 882 550 932 b 154 707 274 932 154 839 b 354 479 154 571 268 514 l 492 417 b 671 224 589 375 671 339 b 431 42 671 117 578 42 b 147 165 317 42 217 90 l 106 121 b 429 -17 182 40 289 -17 z m 407 985 l 468 985 l 625 1143 l 597 1168 l 440 1032 l 435 1032 l 278 1168 l 250 1143 z "},"Ş":{"ha":833,"x_min":0,"x_max":0,"o":"m 347 -304 b 549 -186 478 -296 549 -258 b 450 -90 549 -131 510 -106 l 474 -14 b 735 229 633 1 735 100 b 528 472 735 369 638 426 l 390 533 b 218 710 318 564 218 604 b 432 874 218 810 304 874 b 665 781 531 874 608 836 l 703 822 b 433 932 643 882 550 932 b 154 707 274 932 154 839 b 354 479 154 571 268 514 l 492 417 b 671 224 589 375 671 339 b 431 42 671 117 578 42 b 147 165 317 42 217 90 l 106 121 b 424 -17 181 42 286 -15 l 386 -118 b 494 -189 463 -129 494 -149 b 338 -262 494 -231 458 -254 z "},"Ș":{"ha":833,"x_min":0,"x_max":0,"o":"m 429 -17 b 735 229 614 -17 735 89 b 528 472 735 369 638 426 l 390 533 b 218 710 318 564 218 604 b 432 874 218 810 304 874 b 665 781 531 874 608 836 l 703 822 b 433 932 643 882 550 932 b 154 707 274 932 154 839 b 354 479 154 571 268 514 l 492 417 b 671 224 589 375 671 339 b 431 42 671 117 578 42 b 147 165 317 42 217 90 l 106 121 b 429 -17 182 40 289 -17 z m 335 -304 b 536 -186 465 -296 536 -258 b 393 -85 536 -126 499 -100 l 375 -125 b 482 -190 442 -131 482 -147 b 325 -262 482 -231 446 -254 z "},"Ṡ":{"ha":833,"x_min":0,"x_max":0,"o":"m 429 -17 b 735 229 614 -17 735 89 b 528 472 735 369 638 426 l 390 533 b 218 710 318 564 218 604 b 432 874 218 810 304 874 b 665 781 531 874 608 836 l 703 822 b 433 932 643 882 550 932 b 154 707 274 932 154 839 b 354 479 154 571 268 514 l 492 417 b 671 224 589 375 671 339 b 431 42 671 117 578 42 b 147 165 317 42 217 90 l 106 121 b 429 -17 182 40 289 -17 z m 438 1001 b 494 1060 468 1001 494 1025 b 438 1115 494 1093 468 1115 b 381 1060 407 1115 381 1093 b 438 1001 381 1025 407 1001 z "},"Ṣ":{"ha":833,"x_min":0,"x_max":0,"o":"m 429 -17 b 735 229 614 -17 735 89 b 528 472 735 369 638 426 l 390 533 b 218 710 318 564 218 604 b 432 874 218 810 304 874 b 665 781 531 874 608 836 l 703 822 b 433 932 643 882 550 932 b 154 707 274 932 154 839 b 354 479 154 571 268 514 l 492 417 b 671 224 589 375 671 339 b 431 42 671 117 578 42 b 147 165 317 42 217 90 l 106 121 b 429 -17 182 40 289 -17 z m 442 -274 b 507 -207 478 -274 507 -249 b 442 -140 507 -167 478 -140 b 376 -207 406 -140 376 -167 b 442 -274 376 -249 406 -274 z "},"ẞ":{"ha":833,"x_min":0,"x_max":0,"o":"m 540 -17 b 782 231 682 -17 782 89 b 501 507 782 361 715 458 l 701 740 b 426 932 654 856 572 932 b 121 590 250 932 121 806 l 121 0 l 186 0 l 186 572 b 425 875 186 781 285 875 b 629 746 522 875 589 832 l 428 507 l 432 458 b 714 229 664 418 714 333 b 539 40 714 119 650 40 b 349 136 460 40 403 71 l 308 92 b 540 -17 364 22 450 -17 z "},"Ť":{"ha":833,"x_min":0,"x_max":0,"o":"m 385 0 l 449 0 l 449 860 l 767 860 l 767 915 l 67 915 l 67 860 l 385 860 z m 386 985 l 447 985 l 604 1143 l 576 1168 l 419 1032 l 414 1032 l 257 1168 l 229 1143 z "},"Ţ":{"ha":833,"x_min":0,"x_max":0,"o":"m 385 0 l 392 0 l 349 -118 b 457 -189 425 -129 457 -149 b 300 -262 457 -231 421 -254 l 310 -304 b 511 -186 440 -296 511 -258 b 413 -90 511 -131 472 -106 l 442 0 l 449 0 l 449 860 l 767 860 l 767 915 l 67 915 l 67 860 l 385 860 z "},"Ț":{"ha":833,"x_min":0,"x_max":0,"o":"m 385 0 l 449 0 l 449 860 l 767 860 l 767 915 l 67 915 l 67 860 l 385 860 z m 310 -304 b 511 -186 440 -296 511 -258 b 368 -85 511 -126 474 -100 l 350 -125 b 457 -190 417 -131 457 -147 b 300 -262 457 -231 421 -254 z "},"Ṭ":{"ha":833,"x_min":0,"x_max":0,"o":"m 385 0 l 449 0 l 449 860 l 767 860 l 767 915 l 67 915 l 67 860 l 385 860 z m 417 -274 b 482 -207 453 -274 482 -249 b 417 -140 482 -167 453 -140 b 351 -207 381 -140 351 -167 b 417 -274 351 -249 381 -274 z "},"Ṯ":{"ha":833,"x_min":0,"x_max":0,"o":"m 385 0 l 449 0 l 449 860 l 767 860 l 767 915 l 67 915 l 67 860 l 385 860 z m 246 -222 l 588 -222 l 588 -172 l 246 -172 z "},"Ŧ":{"ha":833,"x_min":0,"x_max":0,"o":"m 182 456 l 385 456 l 385 0 l 449 0 l 449 456 l 651 456 l 651 507 l 449 507 l 449 860 l 767 860 l 767 915 l 67 915 l 67 860 l 385 860 l 385 507 l 300 507 l 182 504 z "},"Ù":{"ha":833,"x_min":0,"x_max":0,"o":"m 417 -17 b 710 343 571 -17 710 65 l 710 915 l 650 915 l 650 350 b 417 42 650 114 542 42 b 188 350 294 42 188 114 l 188 915 l 124 915 l 124 343 b 417 -17 124 65 264 -17 z m 450 981 l 478 1013 l 306 1183 l 265 1138 z "},"Ú":{"ha":833,"x_min":0,"x_max":0,"o":"m 417 -17 b 710 343 571 -17 710 65 l 710 915 l 650 915 l 650 350 b 417 42 650 114 542 42 b 188 350 294 42 188 114 l 188 915 l 124 915 l 124 343 b 417 -17 124 65 264 -17 z m 383 981 l 568 1138 l 528 1183 l 356 1013 z "},"Û":{"ha":833,"x_min":0,"x_max":0,"o":"m 417 -17 b 710 343 571 -17 710 65 l 710 915 l 650 915 l 650 350 b 417 42 650 114 542 42 b 188 350 294 42 188 114 l 188 915 l 124 915 l 124 343 b 417 -17 124 65 264 -17 z m 257 982 l 414 1118 l 419 1118 l 576 982 l 604 1008 l 447 1165 l 386 1165 l 229 1008 z "},"Ũ":{"ha":833,"x_min":0,"x_max":0,"o":"m 417 -17 b 710 343 571 -17 710 65 l 710 915 l 650 915 l 650 350 b 417 42 650 114 542 42 b 188 350 294 42 188 114 l 188 915 l 124 915 l 124 343 b 417 -17 124 65 264 -17 z m 524 997 b 646 1151 599 997 642 1065 l 600 1156 b 524 1049 592 1090 564 1049 b 310 1158 447 1049 417 1158 b 188 1006 235 1158 192 1092 l 233 1001 b 310 1107 239 1067 269 1107 b 524 997 386 1107 417 997 z "},"Ü":{"ha":833,"x_min":0,"x_max":0,"o":"m 417 -17 b 710 343 571 -17 710 65 l 710 915 l 650 915 l 650 350 b 417 42 650 114 542 42 b 188 350 294 42 188 114 l 188 915 l 124 915 l 124 343 b 417 -17 124 65 264 -17 z m 306 1007 b 357 1058 335 1007 357 1026 b 306 1110 357 1089 335 1110 b 254 1058 276 1110 254 1089 b 306 1007 254 1026 276 1007 z m 528 1007 b 579 1058 557 1007 579 1026 b 528 1110 579 1089 557 1110 b 476 1058 499 1110 476 1089 b 528 1007 476 1026 499 1007 z "},"Ū":{"ha":833,"x_min":0,"x_max":0,"o":"m 417 -17 b 710 343 571 -17 710 65 l 710 915 l 650 915 l 650 350 b 417 42 650 114 542 42 b 188 350 294 42 188 114 l 188 915 l 124 915 l 124 343 b 417 -17 124 65 264 -17 z m 244 1032 l 589 1032 l 589 1082 l 244 1082 z "},"Ŭ":{"ha":833,"x_min":0,"x_max":0,"o":"m 417 -17 b 710 343 571 -17 710 65 l 710 915 l 650 915 l 650 350 b 417 42 650 114 542 42 b 188 350 294 42 188 114 l 188 915 l 124 915 l 124 343 b 417 -17 124 65 264 -17 z m 417 986 b 606 1158 540 986 596 1076 l 560 1165 b 417 1032 550 1096 506 1032 b 274 1165 328 1032 283 1096 l 228 1158 b 417 986 239 1076 294 986 z "},"Ů":{"ha":833,"x_min":0,"x_max":0,"o":"m 417 -17 b 710 343 571 -17 710 65 l 710 915 l 650 915 l 650 350 b 417 42 650 114 542 42 b 188 350 294 42 188 114 l 188 915 l 124 915 l 124 343 b 417 -17 124 65 264 -17 z m 417 972 b 539 1090 483 972 539 1019 b 417 1210 539 1164 483 1210 b 294 1090 349 1210 294 1164 b 417 972 294 1019 349 972 z m 417 1008 b 336 1090 372 1008 336 1036 b 417 1174 336 1143 372 1174 b 494 1090 458 1174 494 1143 b 417 1008 494 1036 458 1008 z "},"Ű":{"ha":833,"x_min":0,"x_max":0,"o":"m 417 -17 b 710 343 571 -17 710 65 l 710 915 l 650 915 l 650 350 b 417 42 650 114 542 42 b 188 350 294 42 188 114 l 188 915 l 124 915 l 124 343 b 417 -17 124 65 264 -17 z m 313 983 l 446 1178 l 399 1207 l 276 1001 z m 513 983 l 646 1178 l 599 1207 l 476 1001 z "},"Ǔ":{"ha":833,"x_min":0,"x_max":0,"o":"m 417 -17 b 710 343 571 -17 710 65 l 710 915 l 650 915 l 650 350 b 417 42 650 114 542 42 b 188 350 294 42 188 114 l 188 915 l 124 915 l 124 343 b 417 -17 124 65 264 -17 z m 386 985 l 447 985 l 604 1143 l 576 1168 l 419 1032 l 414 1032 l 257 1168 l 229 1143 z "},"Ų":{"ha":833,"x_min":0,"x_max":0,"o":"m 438 -311 b 551 -261 490 -311 522 -289 l 524 -226 b 446 -261 504 -246 481 -261 b 360 -179 401 -261 360 -235 b 511 -6 360 -115 401 -47 b 710 343 640 42 710 133 l 710 915 l 650 915 l 650 350 b 415 42 650 114 540 42 b 188 350 292 42 188 114 l 188 915 l 124 915 l 124 343 b 401 -17 124 93 238 -10 b 306 -187 356 -56 306 -112 b 438 -311 306 -272 363 -311 z "},"Ǖ":{"ha":833,"x_min":0,"x_max":0,"o":"m 417 -17 b 710 343 571 -17 710 65 l 710 915 l 650 915 l 650 350 b 417 42 650 114 542 42 b 188 350 294 42 188 114 l 188 915 l 124 915 l 124 343 b 417 -17 124 65 264 -17 z m 281 1007 b 331 1056 308 1007 331 1025 b 281 1106 331 1086 308 1106 b 232 1056 253 1106 232 1086 b 281 1007 232 1025 253 1007 z m 553 1007 b 601 1056 581 1007 601 1025 b 553 1106 601 1086 581 1106 b 503 1056 525 1106 503 1086 b 553 1007 503 1025 525 1007 z m 244 1186 l 589 1186 l 589 1232 l 244 1232 z "},"Ǘ":{"ha":833,"x_min":0,"x_max":0,"o":"m 417 -17 b 710 343 571 -17 710 65 l 710 915 l 650 915 l 650 350 b 417 42 650 114 542 42 b 188 350 294 42 188 114 l 188 915 l 124 915 l 124 343 b 417 -17 124 65 264 -17 z m 281 1007 b 331 1056 308 1007 331 1025 b 281 1106 331 1086 308 1106 b 232 1056 253 1106 232 1086 b 281 1007 232 1025 253 1007 z m 553 1007 b 601 1056 581 1007 601 1025 b 553 1106 601 1086 581 1106 b 503 1056 525 1106 503 1086 b 553 1007 503 1025 525 1007 z m 408 1142 l 551 1278 l 508 1313 l 378 1165 z "},"Ǚ":{"ha":833,"x_min":0,"x_max":0,"o":"m 417 -17 b 710 343 571 -17 710 65 l 710 915 l 650 915 l 650 350 b 417 42 650 114 542 42 b 188 350 294 42 188 114 l 188 915 l 124 915 l 124 343 b 417 -17 124 65 264 -17 z m 281 1007 b 331 1056 308 1007 331 1025 b 281 1106 331 1086 308 1106 b 232 1056 253 1106 232 1086 b 281 1007 232 1025 253 1007 z m 553 1007 b 601 1056 581 1007 601 1025 b 553 1106 601 1086 581 1106 b 503 1056 525 1106 503 1086 b 553 1007 503 1025 525 1007 z m 389 1151 l 444 1151 l 589 1282 l 563 1310 l 419 1203 l 414 1203 l 271 1310 l 244 1282 z "},"Ǜ":{"ha":833,"x_min":0,"x_max":0,"o":"m 417 -17 b 710 343 571 -17 710 65 l 710 915 l 650 915 l 650 350 b 417 42 650 114 542 42 b 188 350 294 42 188 114 l 188 915 l 124 915 l 124 343 b 417 -17 124 65 264 -17 z m 281 1007 b 331 1056 308 1007 331 1025 b 281 1106 331 1086 308 1106 b 232 1056 253 1106 232 1086 b 281 1007 232 1025 253 1007 z m 553 1007 b 601 1056 581 1007 601 1025 b 553 1106 601 1086 581 1106 b 503 1056 525 1106 503 1086 b 553 1007 503 1025 525 1007 z m 425 1142 l 456 1165 l 325 1313 l 282 1278 z "},"Ụ":{"ha":833,"x_min":0,"x_max":0,"o":"m 417 -17 b 710 343 571 -17 710 65 l 710 915 l 650 915 l 650 350 b 417 42 650 114 542 42 b 188 350 294 42 188 114 l 188 915 l 124 915 l 124 343 b 417 -17 124 65 264 -17 z m 417 -274 b 482 -207 453 -274 482 -249 b 417 -140 482 -167 453 -140 b 351 -207 381 -140 351 -167 b 417 -274 351 -249 381 -274 z "},"Ủ":{"ha":833,"x_min":0,"x_max":0,"o":"m 417 -17 b 710 343 571 -17 710 65 l 710 915 l 650 915 l 650 350 b 417 42 650 114 542 42 b 188 350 294 42 188 114 l 188 915 l 124 915 l 124 343 b 417 -17 124 65 264 -17 z m 382 975 b 514 1096 449 993 514 1024 b 346 1199 514 1165 438 1196 l 340 1154 b 458 1088 417 1151 458 1131 b 371 1013 458 1049 421 1028 z "},"Ư":{"ha":833,"x_min":0,"x_max":0,"o":"m 417 -17 b 710 343 571 -17 710 65 l 710 879 b 851 1042 782 899 851 940 b 824 1139 851 1075 842 1108 l 769 1113 b 789 1038 782 1089 789 1060 b 664 915 789 964 753 928 l 650 915 l 650 350 b 417 42 650 114 542 42 b 188 350 294 42 188 114 l 188 915 l 124 915 l 124 343 b 417 -17 124 65 264 -17 z "},"Ứ":{"ha":833,"x_min":0,"x_max":0,"o":"m 417 -17 b 710 343 571 -17 710 65 l 710 879 b 851 1042 782 899 851 940 b 824 1139 851 1075 842 1108 l 769 1113 b 789 1038 782 1089 789 1060 b 664 915 789 964 753 928 l 650 915 l 650 350 b 417 42 650 114 542 42 b 188 350 294 42 188 114 l 188 915 l 124 915 l 124 343 b 417 -17 124 65 264 -17 z m 383 981 l 568 1138 l 528 1183 l 356 1013 z "},"Ừ":{"ha":833,"x_min":0,"x_max":0,"o":"m 417 -17 b 710 343 571 -17 710 65 l 710 879 b 851 1042 782 899 851 940 b 824 1139 851 1075 842 1108 l 769 1113 b 789 1038 782 1089 789 1060 b 664 915 789 964 753 928 l 650 915 l 650 350 b 417 42 650 114 542 42 b 188 350 294 42 188 114 l 188 915 l 124 915 l 124 343 b 417 -17 124 65 264 -17 z m 450 981 l 478 1013 l 306 1183 l 265 1138 z "},"Ử":{"ha":833,"x_min":0,"x_max":0,"o":"m 417 -17 b 710 343 571 -17 710 65 l 710 879 b 851 1042 782 899 851 940 b 824 1139 851 1075 842 1108 l 769 1113 b 789 1038 782 1089 789 1060 b 664 915 789 964 753 928 l 650 915 l 650 350 b 417 42 650 114 542 42 b 188 350 294 42 188 114 l 188 915 l 124 915 l 124 343 b 417 -17 124 65 264 -17 z m 382 975 b 514 1096 449 993 514 1024 b 346 1199 514 1165 438 1196 l 340 1154 b 458 1088 417 1151 458 1131 b 371 1013 458 1049 421 1028 z "},"Ữ":{"ha":833,"x_min":0,"x_max":0,"o":"m 417 -17 b 710 343 571 -17 710 65 l 710 879 b 851 1042 782 899 851 940 b 824 1139 851 1075 842 1108 l 769 1113 b 789 1038 782 1089 789 1060 b 664 915 789 964 753 928 l 650 915 l 650 350 b 417 42 650 114 542 42 b 188 350 294 42 188 114 l 188 915 l 124 915 l 124 343 b 417 -17 124 65 264 -17 z m 524 997 b 646 1151 599 997 642 1065 l 600 1156 b 524 1049 592 1090 564 1049 b 310 1158 447 1049 417 1158 b 188 1006 235 1158 192 1092 l 233 1001 b 310 1107 239 1067 269 1107 b 524 997 386 1107 417 997 z "},"Ự":{"ha":833,"x_min":0,"x_max":0,"o":"m 417 -17 b 710 343 571 -17 710 65 l 710 879 b 851 1042 782 899 851 940 b 824 1139 851 1075 842 1108 l 769 1113 b 789 1038 782 1089 789 1060 b 664 915 789 964 753 928 l 650 915 l 650 350 b 417 42 650 114 542 42 b 188 350 294 42 188 114 l 188 915 l 124 915 l 124 343 b 417 -17 124 65 264 -17 z m 417 -274 b 482 -207 453 -274 482 -249 b 417 -140 482 -167 453 -140 b 351 -207 381 -140 351 -167 b 417 -274 351 -249 381 -274 z "},"Ṿ":{"ha":833,"x_min":0,"x_max":0,"o":"m 383 0 l 453 0 l 751 915 l 688 915 l 518 381 b 421 74 483 269 458 185 l 415 74 b 319 381 378 185 354 269 l 150 915 l 82 915 z m 421 -274 b 486 -207 457 -274 486 -249 b 421 -140 486 -167 457 -140 b 356 -207 385 -140 356 -167 b 421 -274 356 -249 385 -274 z "},"Ẁ":{"ha":833,"x_min":0,"x_max":0,"o":"m 169 0 l 251 0 l 374 435 b 415 594 390 488 401 540 l 419 594 b 458 435 433 540 444 488 l 585 0 l 667 0 l 814 917 l 751 917 l 658 290 b 631 74 649 217 639 150 l 625 74 b 565 290 604 150 585 217 l 451 678 l 386 678 l 272 290 b 213 74 253 217 233 151 l 208 74 b 181 290 201 151 189 217 l 83 917 l 19 917 z m 450 981 l 478 1013 l 306 1183 l 265 1138 z "},"Ẃ":{"ha":833,"x_min":0,"x_max":0,"o":"m 169 0 l 251 0 l 374 435 b 415 594 390 488 401 540 l 419 594 b 458 435 433 540 444 488 l 585 0 l 667 0 l 814 917 l 751 917 l 658 290 b 631 74 649 217 639 150 l 625 74 b 565 290 604 150 585 217 l 451 678 l 386 678 l 272 290 b 213 74 253 217 233 151 l 208 74 b 181 290 201 151 189 217 l 83 917 l 19 917 z m 383 981 l 568 1138 l 528 1183 l 356 1013 z "},"Ŵ":{"ha":833,"x_min":0,"x_max":0,"o":"m 169 0 l 251 0 l 374 435 b 415 594 390 488 401 540 l 419 594 b 458 435 433 540 444 488 l 585 0 l 667 0 l 814 917 l 751 917 l 658 290 b 631 74 649 217 639 150 l 625 74 b 565 290 604 150 585 217 l 451 678 l 386 678 l 272 290 b 213 74 253 217 233 151 l 208 74 b 181 290 201 151 189 217 l 83 917 l 19 917 z m 257 982 l 414 1118 l 419 1118 l 576 982 l 604 1008 l 447 1165 l 386 1165 l 229 1008 z "},"Ẅ":{"ha":833,"x_min":0,"x_max":0,"o":"m 169 0 l 251 0 l 374 435 b 415 594 390 488 401 540 l 419 594 b 458 435 433 540 444 488 l 585 0 l 667 0 l 814 917 l 751 917 l 658 290 b 631 74 649 217 639 150 l 625 74 b 565 290 604 150 585 217 l 451 678 l 386 678 l 272 290 b 213 74 253 217 233 151 l 208 74 b 181 290 201 151 189 217 l 83 917 l 19 917 z m 306 1007 b 357 1058 335 1007 357 1026 b 306 1110 357 1089 335 1110 b 254 1058 276 1110 254 1089 b 306 1007 254 1026 276 1007 z m 528 1007 b 579 1058 557 1007 579 1026 b 528 1110 579 1089 557 1110 b 476 1058 499 1110 476 1089 b 528 1007 476 1026 499 1007 z "},"Ỳ":{"ha":833,"x_min":0,"x_max":0,"o":"m 385 0 l 449 0 l 449 336 l 763 915 l 700 915 l 542 614 b 422 397 504 543 465 471 l 417 397 b 299 613 375 471 340 543 l 136 915 l 71 915 l 385 336 z m 450 981 l 478 1013 l 306 1183 l 265 1138 z "},"Ý":{"ha":833,"x_min":0,"x_max":0,"o":"m 385 0 l 449 0 l 449 336 l 763 915 l 700 915 l 542 614 b 422 397 504 543 465 471 l 417 397 b 299 613 375 471 340 543 l 136 915 l 71 915 l 385 336 z m 383 981 l 568 1138 l 528 1183 l 356 1013 z "},"Ŷ":{"ha":833,"x_min":0,"x_max":0,"o":"m 385 0 l 449 0 l 449 336 l 763 915 l 700 915 l 542 614 b 422 397 504 543 465 471 l 417 397 b 299 613 375 471 340 543 l 136 915 l 71 915 l 385 336 z m 257 982 l 414 1118 l 419 1118 l 576 982 l 604 1008 l 447 1165 l 386 1165 l 229 1008 z "},"Ÿ":{"ha":833,"x_min":0,"x_max":0,"o":"m 385 0 l 449 0 l 449 336 l 763 915 l 700 915 l 542 614 b 422 397 504 543 465 471 l 417 397 b 299 613 375 471 340 543 l 136 915 l 71 915 l 385 336 z m 306 1007 b 357 1058 335 1007 357 1026 b 306 1110 357 1089 335 1110 b 254 1058 276 1110 254 1089 b 306 1007 254 1026 276 1007 z m 528 1007 b 579 1058 557 1007 579 1026 b 528 1110 579 1089 557 1110 b 476 1058 499 1110 476 1089 b 528 1007 476 1026 499 1007 z "},"Ẏ":{"ha":833,"x_min":0,"x_max":0,"o":"m 385 0 l 449 0 l 449 336 l 763 915 l 700 915 l 542 614 b 422 397 504 543 465 471 l 417 397 b 299 613 375 471 340 543 l 136 915 l 71 915 l 385 336 z m 417 1001 b 474 1060 447 1001 474 1025 b 417 1115 474 1093 447 1115 b 360 1060 386 1115 360 1093 b 417 1001 360 1025 386 1001 z "},"Ỵ":{"ha":833,"x_min":0,"x_max":0,"o":"m 385 0 l 449 0 l 449 336 l 763 915 l 700 915 l 542 614 b 422 397 504 543 465 471 l 417 397 b 299 613 375 471 340 543 l 136 915 l 71 915 l 385 336 z m 417 -274 b 482 -207 453 -274 482 -249 b 417 -140 482 -167 453 -140 b 351 -207 381 -140 351 -167 b 417 -274 351 -249 381 -274 z "},"Ỷ":{"ha":833,"x_min":0,"x_max":0,"o":"m 385 0 l 449 0 l 449 336 l 763 915 l 700 915 l 542 614 b 422 397 504 543 465 471 l 417 397 b 299 613 375 471 340 543 l 136 915 l 71 915 l 385 336 z m 382 975 b 514 1096 449 993 514 1024 b 346 1199 514 1165 438 1196 l 340 1154 b 458 1088 417 1151 458 1131 b 371 1013 458 1049 421 1028 z "},"Ỹ":{"ha":833,"x_min":0,"x_max":0,"o":"m 385 0 l 449 0 l 449 336 l 763 915 l 700 915 l 542 614 b 422 397 504 543 465 471 l 417 397 b 299 613 375 471 340 543 l 136 915 l 71 915 l 385 336 z m 524 997 b 646 1151 599 997 642 1065 l 600 1156 b 524 1049 592 1090 564 1049 b 310 1158 447 1049 417 1158 b 188 1006 235 1158 192 1092 l 233 1001 b 310 1107 239 1067 269 1107 b 524 997 386 1107 417 997 z "},"Ź":{"ha":833,"x_min":0,"x_max":0,"o":"m 97 0 l 743 0 l 743 56 l 174 56 l 733 878 l 733 917 l 144 917 l 144 863 l 657 863 l 97 39 z m 406 981 l 590 1138 l 550 1183 l 378 1013 z "},"Ž":{"ha":833,"x_min":0,"x_max":0,"o":"m 97 0 l 743 0 l 743 56 l 174 56 l 733 878 l 733 917 l 144 917 l 144 863 l 657 863 l 97 39 z m 408 985 l 469 985 l 626 1143 l 599 1168 l 442 1032 l 436 1032 l 279 1168 l 251 1143 z "},"Ż":{"ha":833,"x_min":0,"x_max":0,"o":"m 97 0 l 743 0 l 743 56 l 174 56 l 733 878 l 733 917 l 144 917 l 144 863 l 657 863 l 97 39 z m 439 1001 b 496 1060 469 1001 496 1025 b 439 1115 496 1093 469 1115 b 382 1060 408 1115 382 1093 b 439 1001 382 1025 408 1001 z "},"Ẑ":{"ha":833,"x_min":0,"x_max":0,"o":"m 97 0 l 743 0 l 743 56 l 174 56 l 733 878 l 733 917 l 144 917 l 144 863 l 657 863 l 97 39 z m 279 982 l 436 1118 l 442 1118 l 599 982 l 626 1008 l 469 1165 l 408 1165 l 251 1008 z "},"Ẓ":{"ha":833,"x_min":0,"x_max":0,"o":"m 97 0 l 743 0 l 743 56 l 174 56 l 733 878 l 733 917 l 144 917 l 144 863 l 657 863 l 97 39 z m 431 -274 b 496 -207 467 -274 496 -249 b 431 -140 496 -167 467 -140 b 365 -207 394 -140 365 -167 b 431 -274 365 -249 394 -274 z "},"Ẕ":{"ha":833,"x_min":0,"x_max":0,"o":"m 97 0 l 743 0 l 743 56 l 174 56 l 733 878 l 733 917 l 144 917 l 144 863 l 657 863 l 97 39 z m 260 -222 l 601 -222 l 601 -172 l 260 -172 z "},"Ð":{"ha":833,"x_min":0,"x_max":0,"o":"m 133 0 l 346 0 b 758 461 625 0 758 183 b 344 915 758 738 625 915 l 133 915 l 133 513 l 26 506 l 26 460 l 133 460 z m 197 54 l 197 460 l 426 460 l 426 513 l 197 513 l 197 861 l 339 861 b 692 461 585 861 692 699 b 339 54 692 222 585 54 z "},"Þ":{"ha":833,"x_min":0,"x_max":0,"o":"m 164 0 l 228 0 l 228 231 l 414 231 b 740 497 618 231 740 318 b 414 753 740 685 618 753 l 228 753 l 228 915 l 164 915 z m 228 285 l 228 699 l 397 699 b 674 497 583 699 674 650 b 397 285 674 347 585 285 z "},"Ə":{"ha":833,"x_min":0,"x_max":0,"o":"m 415 -17 b 756 460 618 -17 756 171 b 419 932 756 750 633 932 b 185 829 317 932 239 888 l 218 786 b 419 876 269 842 339 876 b 692 468 596 876 689 718 l 89 468 l 89 457 b 415 -17 89 181 211 -17 z m 415 39 b 153 415 260 39 163 181 l 690 415 b 415 39 679 183 575 39 z "},"Ŋ":{"ha":833,"x_min":0,"x_max":0,"o":"m 539 -17 b 757 468 660 -17 757 103 b 447 932 757 810 625 932 b 196 794 353 932 258 865 l 196 915 l 133 915 l 133 0 l 197 0 l 197 728 b 439 874 256 806 360 874 b 690 468 588 874 690 782 b 533 46 690 147 619 46 b 460 61 503 46 481 51 l 440 1 b 539 -17 465 -11 507 -17 z "},"Ĳ":{"ha":833,"x_min":0,"x_max":0,"o":"m 186 0 l 250 0 l 250 915 l 186 915 z m 494 -217 b 647 -21 599 -217 647 -151 l 647 915 l 583 915 l 583 -12 b 493 -157 583 -97 569 -157 b 422 -144 467 -157 440 -150 l 408 -199 b 494 -217 429 -207 463 -217 z "},"à":{"ha":833,"x_min":0,"x_max":0,"o":"m 360 -17 b 639 100 458 -17 563 39 l 642 100 l 649 0 l 700 0 l 700 426 b 447 683 700 569 626 683 b 160 585 329 683 213 622 l 188 539 b 440 629 243 578 340 629 b 639 418 593 629 638 528 b 128 167 278 386 128 315 b 360 -17 128 40 240 -17 z m 371 36 b 190 169 281 36 190 74 b 639 371 190 276 300 340 l 639 157 b 371 36 546 78 456 36 z m 488 794 l 521 826 l 335 1047 l 288 1004 z "},"á":{"ha":833,"x_min":0,"x_max":0,"o":"m 360 -17 b 639 100 458 -17 563 39 l 642 100 l 649 0 l 700 0 l 700 426 b 447 683 700 569 626 683 b 160 585 329 683 213 622 l 188 539 b 440 629 243 578 340 629 b 639 418 593 629 638 528 b 128 167 278 386 128 315 b 360 -17 128 40 240 -17 z m 371 36 b 190 169 281 36 190 74 b 639 371 190 276 300 340 l 639 157 b 371 36 546 78 456 36 z m 401 794 l 601 1004 l 554 1047 l 368 826 z "},"â":{"ha":833,"x_min":0,"x_max":0,"o":"m 360 -17 b 639 100 458 -17 563 39 l 642 100 l 649 0 l 700 0 l 700 426 b 447 683 700 569 626 683 b 160 585 329 683 213 622 l 188 539 b 440 629 243 578 340 629 b 639 418 593 629 638 528 b 128 167 278 386 128 315 b 360 -17 128 40 240 -17 z m 371 36 b 190 169 281 36 190 74 b 639 371 190 276 300 340 l 639 157 b 371 36 546 78 456 36 z m 283 794 l 442 969 l 447 969 l 606 794 l 636 824 l 474 1024 l 415 1024 l 253 824 z "},"ã":{"ha":833,"x_min":0,"x_max":0,"o":"m 360 -17 b 639 100 458 -17 563 39 l 642 100 l 649 0 l 700 0 l 700 426 b 447 683 700 569 626 683 b 160 585 329 683 213 622 l 188 539 b 440 629 243 578 340 629 b 639 418 593 629 638 528 b 128 167 278 386 128 315 b 360 -17 128 40 240 -17 z m 371 36 b 190 169 281 36 190 74 b 639 371 190 276 300 340 l 639 157 b 371 36 546 78 456 36 z m 550 804 b 672 979 639 804 667 893 l 625 982 b 551 853 621 913 600 853 b 340 986 474 853 444 986 b 217 811 250 986 222 899 l 264 808 b 339 938 268 881 289 938 b 550 804 415 938 444 804 z "},"ä":{"ha":833,"x_min":0,"x_max":0,"o":"m 360 -17 b 639 100 458 -17 563 39 l 642 100 l 649 0 l 700 0 l 700 426 b 447 683 700 569 626 683 b 160 585 329 683 213 622 l 188 539 b 440 629 243 578 340 629 b 639 418 593 629 638 528 b 128 167 278 386 128 315 b 360 -17 128 40 240 -17 z m 371 36 b 190 169 281 36 190 74 b 639 371 190 276 300 340 l 639 157 b 371 36 546 78 456 36 z m 321 831 b 376 889 353 831 376 857 b 321 946 376 921 353 946 b 265 889 289 946 265 921 b 321 831 265 857 289 831 z m 568 831 b 624 889 600 831 624 857 b 568 946 624 921 600 946 b 513 889 536 946 513 921 b 568 831 513 857 536 831 z "},"ā":{"ha":833,"x_min":0,"x_max":0,"o":"m 360 -17 b 639 100 458 -17 563 39 l 642 100 l 649 0 l 700 0 l 700 426 b 447 683 700 569 626 683 b 160 585 329 683 213 622 l 188 539 b 440 629 243 578 340 629 b 639 418 593 629 638 528 b 128 167 278 386 128 315 b 360 -17 128 40 240 -17 z m 371 36 b 190 169 281 36 190 74 b 639 371 190 276 300 340 l 639 157 b 371 36 546 78 456 36 z m 274 842 l 615 842 l 615 892 l 274 892 z "},"ă":{"ha":833,"x_min":0,"x_max":0,"o":"m 360 -17 b 639 100 458 -17 563 39 l 642 100 l 649 0 l 700 0 l 700 426 b 447 683 700 569 626 683 b 160 585 329 683 213 622 l 188 539 b 440 629 243 578 340 629 b 639 418 593 629 638 528 b 128 167 278 386 128 315 b 360 -17 128 40 240 -17 z m 371 36 b 190 169 281 36 190 74 b 639 371 190 276 300 340 l 639 157 b 371 36 546 78 456 36 z m 444 792 b 651 997 588 792 640 906 l 606 1004 b 444 839 594 926 544 839 b 283 1004 344 839 294 926 l 238 997 b 444 792 249 906 301 792 z "},"å":{"ha":833,"x_min":0,"x_max":0,"o":"m 360 -17 b 639 100 458 -17 563 39 l 642 100 l 649 0 l 700 0 l 700 426 b 447 683 700 569 626 683 b 160 585 329 683 213 622 l 188 539 b 440 629 243 578 340 629 b 639 418 593 629 638 528 b 128 167 278 386 128 315 b 360 -17 128 40 240 -17 z m 371 36 b 190 169 281 36 190 74 b 639 371 190 276 300 340 l 639 157 b 371 36 546 78 456 36 z m 444 792 b 579 918 525 792 579 846 b 444 1046 579 992 525 1046 b 310 918 364 1046 310 992 b 444 792 310 846 364 792 z m 444 828 b 354 918 394 828 354 868 b 444 1010 354 969 394 1010 b 535 918 494 1010 535 969 b 444 828 535 868 494 828 z "},"ǻ":{"ha":833,"x_min":0,"x_max":0,"o":"m 360 -17 b 639 100 458 -17 563 39 l 642 100 l 649 0 l 700 0 l 700 426 b 447 683 700 569 626 683 b 160 585 329 683 213 622 l 188 539 b 440 629 243 578 340 629 b 639 418 593 629 638 528 b 128 167 278 386 128 315 b 360 -17 128 40 240 -17 z m 371 36 b 190 169 281 36 190 74 b 639 371 190 276 300 340 l 639 157 b 371 36 546 78 456 36 z m 444 792 b 579 918 525 792 579 846 b 475 1043 579 982 539 1031 l 574 1092 l 543 1142 l 375 1031 b 310 918 335 1008 310 968 b 444 792 310 846 364 792 z m 444 828 b 354 918 394 828 354 868 b 444 1010 354 969 394 1010 b 535 918 494 1010 535 969 b 444 828 535 868 494 828 z "},"ǎ":{"ha":833,"x_min":0,"x_max":0,"o":"m 360 -17 b 639 100 458 -17 563 39 l 642 100 l 649 0 l 700 0 l 700 426 b 447 683 700 569 626 683 b 160 585 329 683 213 622 l 188 539 b 440 629 243 578 340 629 b 639 418 593 629 638 528 b 128 167 278 386 128 315 b 360 -17 128 40 240 -17 z m 371 36 b 190 169 281 36 190 74 b 639 371 190 276 300 340 l 639 157 b 371 36 546 78 456 36 z m 415 796 l 474 796 l 636 996 l 606 1024 l 447 850 l 442 850 l 283 1024 l 253 996 z "},"ą":{"ha":833,"x_min":0,"x_max":0,"o":"m 642 -311 b 756 -261 694 -311 726 -290 l 728 -229 b 650 -262 710 -247 685 -262 b 563 -179 606 -262 563 -236 b 700 0 563 -115 603 -53 l 700 426 b 447 683 700 569 626 683 b 160 585 329 683 213 622 l 188 539 b 440 629 243 578 340 629 b 639 418 593 629 638 528 b 128 167 278 386 128 315 b 360 -17 128 40 240 -17 b 639 100 458 -17 563 39 l 642 100 l 649 13 b 510 -187 564 -40 510 -106 b 642 -311 510 -272 565 -311 z m 371 36 b 190 169 281 36 190 74 b 639 371 190 276 300 340 l 639 157 b 371 36 546 78 456 36 z "},"ạ":{"ha":833,"x_min":0,"x_max":0,"o":"m 360 -17 b 639 100 458 -17 563 39 l 642 100 l 649 0 l 700 0 l 700 426 b 447 683 700 569 626 683 b 160 585 329 683 213 622 l 188 539 b 440 629 243 578 340 629 b 639 418 593 629 638 528 b 128 167 278 386 128 315 b 360 -17 128 40 240 -17 z m 371 36 b 190 169 281 36 190 74 b 639 371 190 276 300 340 l 639 157 b 371 36 546 78 456 36 z m 417 -274 b 482 -207 453 -274 482 -249 b 417 -140 482 -167 453 -140 b 351 -207 381 -140 351 -167 b 417 -274 351 -249 381 -274 z "},"ả":{"ha":833,"x_min":0,"x_max":0,"o":"m 360 -17 b 639 100 458 -17 563 39 l 642 100 l 649 0 l 700 0 l 700 426 b 447 683 700 569 626 683 b 160 585 329 683 213 622 l 188 539 b 440 629 243 578 340 629 b 639 418 593 629 638 528 b 128 167 278 386 128 315 b 360 -17 128 40 240 -17 z m 371 36 b 190 169 281 36 190 74 b 639 371 190 276 300 340 l 639 157 b 371 36 546 78 456 36 z m 410 799 b 542 921 476 817 542 849 b 372 1029 542 994 465 1026 l 368 982 b 486 914 444 979 486 957 b 399 838 486 874 449 853 z "},"ấ":{"ha":833,"x_min":0,"x_max":0,"o":"m 360 -17 b 639 100 458 -17 563 39 l 642 100 l 649 0 l 700 0 l 700 426 b 447 683 700 569 626 683 b 160 585 329 683 213 622 l 188 539 b 440 629 243 578 340 629 b 639 418 593 629 638 528 b 128 167 278 386 128 315 b 360 -17 128 40 240 -17 z m 371 36 b 190 169 281 36 190 74 b 639 371 190 276 300 340 l 639 157 b 371 36 546 78 456 36 z m 297 796 l 442 901 l 447 901 l 592 796 l 617 826 l 471 954 l 418 954 l 272 826 z m 596 883 l 735 1038 l 693 1071 l 565 911 z "},"ầ":{"ha":833,"x_min":0,"x_max":0,"o":"m 360 -17 b 639 100 458 -17 563 39 l 642 100 l 649 0 l 700 0 l 700 426 b 447 683 700 569 626 683 b 160 585 329 683 213 622 l 188 539 b 440 629 243 578 340 629 b 639 418 593 629 638 528 b 128 167 278 386 128 315 b 360 -17 128 40 240 -17 z m 371 36 b 190 169 281 36 190 74 b 639 371 190 276 300 340 l 639 157 b 371 36 546 78 456 36 z m 297 796 l 442 901 l 447 901 l 592 796 l 617 826 l 471 954 l 418 954 l 272 826 z m 293 883 l 324 915 l 171 1071 l 129 1033 z "},"ẩ":{"ha":833,"x_min":0,"x_max":0,"o":"m 360 -17 b 639 100 458 -17 563 39 l 642 100 l 649 0 l 700 0 l 700 426 b 447 683 700 569 626 683 b 160 585 329 683 213 622 l 188 539 b 440 629 243 578 340 629 b 639 418 593 629 638 528 b 128 167 278 386 128 315 b 360 -17 128 40 240 -17 z m 371 36 b 190 169 281 36 190 74 b 639 371 190 276 300 340 l 639 157 b 371 36 546 78 456 36 z m 297 796 l 442 901 l 447 901 l 592 796 l 617 826 l 471 954 l 418 954 l 272 826 z m 588 875 b 697 981 639 892 697 917 b 550 1078 697 1047 632 1075 l 546 1038 b 644 974 613 1035 644 1015 b 576 910 644 942 615 924 z "},"ẫ":{"ha":833,"x_min":0,"x_max":0,"o":"m 360 -17 b 639 100 458 -17 563 39 l 642 100 l 649 0 l 700 0 l 700 426 b 447 683 700 569 626 683 b 160 585 329 683 213 622 l 188 539 b 440 629 243 578 340 629 b 639 418 593 629 638 528 b 128 167 278 386 128 315 b 360 -17 128 40 240 -17 z m 371 36 b 190 169 281 36 190 74 b 639 371 190 276 300 340 l 639 157 b 371 36 546 78 456 36 z m 297 796 l 442 900 l 447 900 l 592 796 l 617 826 l 471 953 l 418 953 l 272 826 z m 540 982 b 625 1086 601 982 622 1036 l 585 1090 b 539 1028 579 1049 569 1028 b 349 1086 478 1028 433 1086 b 264 982 288 1086 267 1032 l 304 978 b 350 1040 310 1019 319 1040 b 540 982 411 1040 457 982 z "},"ậ":{"ha":833,"x_min":0,"x_max":0,"o":"m 360 -17 b 639 100 458 -17 563 39 l 642 100 l 649 0 l 700 0 l 700 426 b 447 683 700 569 626 683 b 160 585 329 683 213 622 l 188 539 b 440 629 243 578 340 629 b 639 418 593 629 638 528 b 128 167 278 386 128 315 b 360 -17 128 40 240 -17 z m 371 36 b 190 169 281 36 190 74 b 639 371 190 276 300 340 l 639 157 b 371 36 546 78 456 36 z m 283 794 l 442 969 l 447 969 l 606 794 l 636 824 l 474 1024 l 415 1024 l 253 824 z m 417 -274 b 482 -207 453 -274 482 -249 b 417 -140 482 -167 453 -140 b 351 -207 381 -140 351 -167 b 417 -274 351 -249 381 -274 z "},"ắ":{"ha":833,"x_min":0,"x_max":0,"o":"m 360 -17 b 639 100 458 -17 563 39 l 642 100 l 649 0 l 700 0 l 700 426 b 447 683 700 569 626 683 b 160 585 329 683 213 622 l 188 539 b 440 629 243 578 340 629 b 639 418 593 629 638 528 b 128 167 278 386 128 315 b 360 -17 128 40 240 -17 z m 371 36 b 190 169 281 36 190 74 b 639 371 190 276 300 340 l 639 157 b 371 36 546 78 456 36 z m 444 792 b 651 997 588 792 640 906 l 607 1004 b 444 838 596 925 546 838 b 282 1004 343 838 293 925 l 238 997 b 444 792 249 906 301 792 z m 426 928 l 553 1078 l 510 1113 l 393 956 z "},"ằ":{"ha":833,"x_min":0,"x_max":0,"o":"m 360 -17 b 639 100 458 -17 563 39 l 642 100 l 649 0 l 700 0 l 700 426 b 447 683 700 569 626 683 b 160 585 329 683 213 622 l 188 539 b 440 629 243 578 340 629 b 639 418 593 629 638 528 b 128 167 278 386 128 315 b 360 -17 128 40 240 -17 z m 371 36 b 190 169 281 36 190 74 b 639 371 190 276 300 340 l 639 157 b 371 36 546 78 456 36 z m 444 792 b 651 997 588 792 640 906 l 607 1004 b 444 838 596 925 546 838 b 282 1004 343 838 293 925 l 238 997 b 444 792 249 906 301 792 z m 463 928 l 496 956 l 379 1113 l 336 1078 z "},"ẳ":{"ha":833,"x_min":0,"x_max":0,"o":"m 360 -17 b 639 100 458 -17 563 39 l 642 100 l 649 0 l 700 0 l 700 426 b 447 683 700 569 626 683 b 160 585 329 683 213 622 l 188 539 b 440 629 243 578 340 629 b 639 418 593 629 638 528 b 128 167 278 386 128 315 b 360 -17 128 40 240 -17 z m 371 36 b 190 169 281 36 190 74 b 639 371 190 276 300 340 l 639 157 b 371 36 546 78 456 36 z m 444 792 b 651 997 588 792 640 906 l 607 1004 b 444 838 596 925 546 838 b 282 1004 343 838 293 925 l 238 997 b 444 792 249 906 301 792 z m 414 935 b 536 1044 471 946 536 978 b 375 1146 536 1113 464 1143 l 369 1100 b 483 1036 447 1097 483 1079 b 403 974 483 1004 449 983 z "},"ẵ":{"ha":833,"x_min":0,"x_max":0,"o":"m 360 -17 b 639 100 458 -17 563 39 l 642 100 l 649 0 l 700 0 l 700 426 b 447 683 700 569 626 683 b 160 585 329 683 213 622 l 188 539 b 440 629 243 578 340 629 b 639 418 593 629 638 528 b 128 167 278 386 128 315 b 360 -17 128 40 240 -17 z m 371 36 b 190 169 281 36 190 74 b 639 371 190 276 300 340 l 639 157 b 371 36 546 78 456 36 z m 444 792 b 636 936 576 792 628 872 l 593 943 b 444 836 585 892 538 836 b 296 943 351 836 304 892 l 253 936 b 444 792 261 872 313 792 z m 540 982 b 626 1086 603 982 624 1036 l 585 1090 b 539 1028 579 1049 569 1028 b 349 1086 478 1028 433 1086 b 263 982 286 1086 265 1032 l 304 978 b 350 1040 310 1019 319 1040 b 540 982 411 1040 457 982 z "},"ặ":{"ha":833,"x_min":0,"x_max":0,"o":"m 360 -17 b 639 100 458 -17 563 39 l 642 100 l 649 0 l 700 0 l 700 426 b 447 683 700 569 626 683 b 160 585 329 683 213 622 l 188 539 b 440 629 243 578 340 629 b 639 418 593 629 638 528 b 128 167 278 386 128 315 b 360 -17 128 40 240 -17 z m 371 36 b 190 169 281 36 190 74 b 639 371 190 276 300 340 l 639 157 b 371 36 546 78 456 36 z m 444 792 b 651 997 588 792 640 906 l 606 1004 b 444 839 594 926 544 839 b 283 1004 344 839 294 926 l 238 997 b 444 792 249 906 301 792 z m 417 -274 b 482 -207 453 -274 482 -249 b 417 -140 482 -167 453 -140 b 351 -207 381 -140 351 -167 b 417 -274 351 -249 381 -274 z "},"æ":{"ha":833,"x_min":0,"x_max":0,"o":"m 199 -17 b 432 117 289 -17 368 39 b 638 -17 474 33 543 -17 b 813 40 714 -17 769 11 l 788 86 b 640 38 751 61 700 38 b 443 324 508 38 446 154 l 829 324 b 832 389 832 350 832 369 b 632 683 832 546 769 683 b 426 521 550 683 469 633 b 251 683 400 633 339 683 b 49 614 169 683 93 643 l 75 569 b 246 629 115 599 186 629 b 388 410 331 629 386 571 b 25 158 125 376 25 290 b 199 -17 25 46 100 -17 z m 210 36 b 86 161 136 36 86 82 b 388 363 86 263 150 329 l 388 338 b 414 163 388 272 396 214 b 210 36 360 85 278 36 z m 631 631 b 779 376 728 631 775 543 l 444 376 b 631 631 456 561 543 631 z "},"ǽ":{"ha":833,"x_min":0,"x_max":0,"o":"m 199 -17 b 432 117 289 -17 368 39 b 638 -17 474 33 543 -17 b 813 40 714 -17 769 11 l 788 86 b 640 38 751 61 700 38 b 443 324 508 38 446 154 l 829 324 b 832 389 832 350 832 369 b 632 683 832 546 769 683 b 426 521 550 683 469 633 b 251 683 400 633 339 683 b 49 614 169 683 93 643 l 75 569 b 246 629 115 599 186 629 b 388 410 331 629 386 571 b 25 158 125 376 25 290 b 199 -17 25 46 100 -17 z m 210 36 b 86 161 136 36 86 82 b 388 363 86 263 150 329 l 388 338 b 414 163 388 272 396 214 b 210 36 360 85 278 36 z m 631 631 b 779 376 728 631 775 543 l 444 376 b 631 631 456 561 543 631 z m 400 794 l 600 1004 l 553 1047 l 367 826 z "},"ǣ":{"ha":833,"x_min":0,"x_max":0,"o":"m 199 -17 b 432 117 289 -17 368 39 b 638 -17 474 33 543 -17 b 813 40 714 -17 769 11 l 788 86 b 640 38 751 61 700 38 b 443 324 508 38 446 154 l 829 324 b 832 389 832 350 832 369 b 632 683 832 546 769 683 b 426 521 550 683 469 633 b 251 683 400 633 339 683 b 49 614 169 683 93 643 l 75 569 b 246 629 115 599 186 629 b 388 410 331 629 386 571 b 25 158 125 376 25 290 b 199 -17 25 46 100 -17 z m 210 36 b 86 161 136 36 86 82 b 388 363 86 263 150 329 l 388 338 b 414 163 388 272 396 214 b 210 36 360 85 278 36 z m 631 631 b 779 376 728 631 775 543 l 444 376 b 631 631 456 561 543 631 z m 272 842 l 614 842 l 614 892 l 272 892 z "},"ƀ":{"ha":833,"x_min":0,"x_max":0,"o":"m 431 -17 b 740 329 594 -17 740 111 b 457 656 740 528 646 656 b 208 539 371 656 275 608 l 204 539 l 208 681 l 208 803 l 526 803 l 526 856 l 208 856 l 208 999 l 146 999 l 146 856 l 40 850 l 40 803 l 146 803 l 146 0 l 197 0 l 204 75 l 207 75 b 431 -17 275 19 363 -17 z m 428 38 b 208 136 372 38 286 65 l 208 479 b 447 601 292 563 378 601 b 675 329 611 601 675 485 b 428 38 675 157 571 38 z "},"ḇ":{"ha":833,"x_min":0,"x_max":0,"o":"m 431 -17 b 740 343 594 -17 740 117 b 457 683 740 550 646 683 b 207 567 371 683 275 636 l 204 567 l 208 710 l 208 999 l 146 999 l 146 0 l 197 0 l 204 75 l 207 75 b 431 -17 274 19 363 -17 z m 428 38 b 208 136 372 38 286 65 l 208 507 b 447 629 292 590 378 629 b 675 343 611 629 675 507 b 428 38 675 163 571 38 z m 260 -222 l 601 -222 l 601 -172 l 260 -172 z "},"ç":{"ha":833,"x_min":0,"x_max":0,"o":"m 378 -304 b 579 -186 508 -296 579 -258 b 481 -90 579 -131 540 -106 l 504 -17 b 742 90 599 -10 678 31 l 710 133 b 485 38 650 78 575 38 b 186 332 306 38 186 157 b 486 629 186 508 308 629 b 689 540 568 629 632 593 l 725 582 b 485 683 669 635 596 683 b 121 332 285 683 121 556 b 454 -15 121 121 261 -6 l 417 -118 b 525 -189 493 -129 525 -149 b 368 -262 525 -231 489 -254 z "},"ć":{"ha":833,"x_min":0,"x_max":0,"o":"m 482 -17 b 742 90 586 -17 672 26 l 710 133 b 485 38 650 78 575 38 b 186 332 306 38 186 157 b 486 629 186 508 308 629 b 689 540 568 629 632 593 l 725 582 b 485 683 669 635 596 683 b 121 332 285 683 121 556 b 482 -17 121 111 275 -17 z m 442 794 l 642 1004 l 594 1047 l 408 826 z "},"ĉ":{"ha":833,"x_min":0,"x_max":0,"o":"m 482 -17 b 742 90 586 -17 672 26 l 710 133 b 485 38 650 78 575 38 b 186 332 306 38 186 157 b 486 629 186 508 308 629 b 689 540 568 629 632 593 l 725 582 b 485 683 669 635 596 683 b 121 332 285 683 121 556 b 482 -17 121 111 275 -17 z m 324 794 l 482 969 l 488 969 l 646 794 l 676 824 l 514 1024 l 456 1024 l 293 824 z "},"č":{"ha":833,"x_min":0,"x_max":0,"o":"m 482 -17 b 742 90 586 -17 672 26 l 710 133 b 485 38 650 78 575 38 b 186 332 306 38 186 157 b 486 629 186 508 308 629 b 689 540 568 629 632 593 l 725 582 b 485 683 669 635 596 683 b 121 332 285 683 121 556 b 482 -17 121 111 275 -17 z m 456 796 l 514 796 l 676 996 l 646 1024 l 488 850 l 482 850 l 324 1024 l 293 996 z "},"ċ":{"ha":833,"x_min":0,"x_max":0,"o":"m 482 -17 b 742 90 586 -17 672 26 l 710 133 b 485 38 650 78 575 38 b 186 332 306 38 186 157 b 486 629 186 508 308 629 b 689 540 568 629 632 593 l 725 582 b 485 683 669 635 596 683 b 121 332 285 683 121 556 b 482 -17 121 111 275 -17 z m 485 829 b 550 896 521 829 550 854 b 485 963 550 936 521 963 b 419 896 449 963 419 936 b 485 829 419 854 449 829 z "},"ď":{"ha":833,"x_min":0,"x_max":0,"o":"m 381 -17 b 617 99 474 -17 558 39 l 619 99 l 626 0 l 676 0 l 676 999 l 617 999 l 617 724 l 619 589 l 617 589 b 401 683 550 649 483 683 b 92 332 238 683 92 547 b 381 -17 92 107 208 -17 z m 390 38 b 154 332 242 38 154 156 b 406 629 154 500 265 629 b 617 531 474 629 542 601 l 617 160 b 390 38 543 82 467 38 z m 793 761 l 838 761 l 849 1031 l 849 1129 l 790 1129 z "},"ḍ":{"ha":833,"x_min":0,"x_max":0,"o":"m 388 -17 b 625 99 481 -17 567 38 l 628 99 l 635 0 l 688 0 l 688 999 l 625 999 l 625 724 l 629 589 l 626 589 b 407 683 560 649 492 683 b 93 332 242 683 93 547 b 388 -17 93 107 213 -17 z m 396 38 b 158 332 247 38 158 156 b 411 629 158 500 271 629 b 625 531 481 629 550 603 l 625 160 b 396 38 551 82 474 38 z m 418 -274 b 483 -207 454 -274 483 -249 b 418 -140 483 -167 454 -140 b 353 -207 382 -140 353 -167 b 418 -274 353 -249 382 -274 z "},"ḏ":{"ha":833,"x_min":0,"x_max":0,"o":"m 388 -17 b 625 99 481 -17 567 38 l 628 99 l 635 0 l 688 0 l 688 999 l 625 999 l 625 724 l 629 589 l 626 589 b 407 683 560 649 492 683 b 93 332 242 683 93 547 b 388 -17 93 107 213 -17 z m 396 38 b 158 332 247 38 158 156 b 411 629 158 500 271 629 b 625 531 481 629 550 603 l 625 160 b 396 38 551 82 474 38 z m 247 -222 l 589 -222 l 589 -172 l 247 -172 z "},"ḑ":{"ha":833,"x_min":0,"x_max":0,"o":"m 388 -17 l 394 -17 l 357 -118 b 465 -189 433 -129 465 -149 b 308 -262 465 -231 429 -254 l 318 -304 b 519 -186 449 -296 519 -258 b 421 -90 519 -131 481 -106 l 447 -10 b 625 99 517 7 579 51 l 628 99 l 635 0 l 688 0 l 688 999 l 625 999 l 625 724 l 629 589 l 626 589 b 407 683 560 649 492 683 b 93 332 242 683 93 547 b 388 -17 93 107 213 -17 z m 396 38 b 158 332 247 38 158 156 b 411 629 158 500 271 629 b 625 531 481 629 550 603 l 625 160 b 396 38 551 82 474 38 z "},"đ":{"ha":833,"x_min":0,"x_max":0,"o":"m 388 -17 b 625 99 481 -17 567 38 l 628 99 l 635 0 l 688 0 l 688 803 l 792 810 l 792 856 l 688 856 l 688 999 l 625 999 l 625 856 l 369 856 l 369 803 l 625 803 l 625 696 l 629 561 l 626 561 b 407 656 560 621 493 656 b 93 318 242 656 93 525 b 388 -17 93 101 213 -17 z m 396 38 b 158 318 247 38 158 150 b 413 601 158 476 271 601 b 625 503 481 601 550 574 l 625 160 b 396 38 551 82 474 38 z "},"è":{"ha":833,"x_min":0,"x_max":0,"o":"m 458 -17 b 711 63 576 -17 651 22 l 686 108 b 463 36 624 65 553 36 b 169 324 307 36 175 138 l 736 324 b 739 375 739 340 739 358 b 440 683 739 567 624 683 b 107 333 267 683 107 550 b 458 -17 107 114 265 -17 z m 442 631 b 683 376 578 631 674 549 l 172 376 b 442 631 190 539 314 631 z m 486 794 l 519 826 l 333 1047 l 286 1004 z "},"é":{"ha":833,"x_min":0,"x_max":0,"o":"m 458 -17 b 711 63 576 -17 651 22 l 686 108 b 463 36 624 65 553 36 b 169 324 307 36 175 138 l 736 324 b 739 375 739 340 739 358 b 440 683 739 567 624 683 b 107 333 267 683 107 550 b 458 -17 107 114 265 -17 z m 442 631 b 683 376 578 631 674 549 l 172 376 b 442 631 190 539 314 631 z m 400 794 l 600 1004 l 553 1047 l 367 826 z "},"ê":{"ha":833,"x_min":0,"x_max":0,"o":"m 458 -17 b 711 63 576 -17 651 22 l 686 108 b 463 36 624 65 553 36 b 169 324 307 36 175 138 l 736 324 b 739 375 739 340 739 358 b 440 683 739 567 624 683 b 107 333 267 683 107 550 b 458 -17 107 114 265 -17 z m 442 631 b 683 376 578 631 674 549 l 172 376 b 442 631 190 539 314 631 z m 282 794 l 440 969 l 446 969 l 604 794 l 635 824 l 472 1024 l 414 1024 l 251 824 z "},"ě":{"ha":833,"x_min":0,"x_max":0,"o":"m 458 -17 b 711 63 576 -17 651 22 l 686 108 b 463 36 624 65 553 36 b 169 324 307 36 175 138 l 736 324 b 739 375 739 340 739 358 b 440 683 739 567 624 683 b 107 333 267 683 107 550 b 458 -17 107 114 265 -17 z m 442 631 b 683 376 578 631 674 549 l 172 376 b 442 631 190 539 314 631 z m 414 796 l 472 796 l 635 996 l 604 1024 l 446 850 l 440 850 l 282 1024 l 251 996 z "},"ë":{"ha":833,"x_min":0,"x_max":0,"o":"m 458 -17 b 711 63 576 -17 651 22 l 686 108 b 463 36 624 65 553 36 b 169 324 307 36 175 138 l 736 324 b 739 375 739 340 739 358 b 440 683 739 567 624 683 b 107 333 267 683 107 550 b 458 -17 107 114 265 -17 z m 442 631 b 683 376 578 631 674 549 l 172 376 b 442 631 190 539 314 631 z m 319 831 b 375 889 351 831 375 857 b 319 946 375 921 351 946 b 264 889 288 946 264 921 b 319 831 264 857 288 831 z m 567 831 b 622 889 599 831 622 857 b 567 946 622 921 599 946 b 511 889 535 946 511 921 b 567 831 511 857 535 831 z "},"ē":{"ha":833,"x_min":0,"x_max":0,"o":"m 458 -17 b 711 63 576 -17 651 22 l 686 108 b 463 36 624 65 553 36 b 169 324 307 36 175 138 l 736 324 b 739 375 739 340 739 358 b 440 683 739 567 624 683 b 107 333 267 683 107 550 b 458 -17 107 114 265 -17 z m 442 631 b 683 376 578 631 674 549 l 172 376 b 442 631 190 539 314 631 z m 272 842 l 614 842 l 614 892 l 272 892 z "},"ĕ":{"ha":833,"x_min":0,"x_max":0,"o":"m 458 -17 b 711 63 576 -17 651 22 l 686 108 b 463 36 624 65 553 36 b 169 324 307 36 175 138 l 736 324 b 739 375 739 340 739 358 b 440 683 739 567 624 683 b 107 333 267 683 107 550 b 458 -17 107 114 265 -17 z m 442 631 b 683 376 578 631 674 549 l 172 376 b 442 631 190 539 314 631 z m 443 792 b 650 997 586 792 639 906 l 604 1004 b 443 839 593 926 543 839 b 282 1004 343 839 293 926 l 236 997 b 443 792 247 906 300 792 z "},"ę":{"ha":833,"x_min":0,"x_max":0,"o":"m 592 -311 b 707 -261 647 -311 679 -290 l 679 -229 b 600 -262 663 -247 638 -262 b 514 -179 557 -262 514 -236 b 711 63 514 -99 569 -40 l 686 108 b 463 36 626 65 554 36 b 169 324 307 36 175 138 l 736 324 b 739 375 739 340 739 358 b 440 683 739 567 624 683 b 107 332 267 683 107 550 b 458 -17 107 114 265 -17 b 575 1 490 -17 524 -18 b 460 -187 508 -50 460 -110 b 592 -311 460 -272 518 -311 z m 442 631 b 683 376 578 631 674 549 l 172 376 b 442 631 190 539 314 631 z "},"ė":{"ha":833,"x_min":0,"x_max":0,"o":"m 458 -17 b 711 63 576 -17 651 22 l 686 108 b 463 36 624 65 553 36 b 169 324 307 36 175 138 l 736 324 b 739 375 739 340 739 358 b 440 683 739 567 624 683 b 107 333 267 683 107 550 b 458 -17 107 114 265 -17 z m 442 631 b 683 376 578 631 674 549 l 172 376 b 442 631 190 539 314 631 z m 443 829 b 508 896 479 829 508 854 b 443 963 508 936 479 963 b 378 896 407 963 378 936 b 443 829 378 854 407 829 z "},"ẹ":{"ha":833,"x_min":0,"x_max":0,"o":"m 458 -17 b 711 63 576 -17 651 22 l 686 108 b 463 36 624 65 553 36 b 169 324 307 36 175 138 l 736 324 b 739 375 739 340 739 358 b 440 683 739 567 624 683 b 107 333 267 683 107 550 b 458 -17 107 114 265 -17 z m 442 631 b 683 376 578 631 674 549 l 172 376 b 442 631 190 539 314 631 z m 443 -274 b 508 -207 479 -274 508 -249 b 443 -140 508 -167 479 -140 b 378 -207 407 -140 378 -167 b 443 -274 378 -249 407 -274 z "},"ẻ":{"ha":833,"x_min":0,"x_max":0,"o":"m 458 -17 b 711 63 576 -17 651 22 l 686 108 b 463 36 624 65 553 36 b 169 324 307 36 175 138 l 736 324 b 739 375 739 340 739 358 b 440 683 739 567 624 683 b 107 333 267 683 107 550 b 458 -17 107 114 265 -17 z m 442 631 b 683 376 578 631 674 549 l 172 376 b 442 631 190 539 314 631 z m 408 799 b 540 921 475 817 540 849 b 371 1029 540 994 464 1026 l 367 982 b 485 914 443 979 485 957 b 397 838 485 874 447 853 z "},"ẽ":{"ha":833,"x_min":0,"x_max":0,"o":"m 458 -17 b 711 63 576 -17 651 22 l 686 108 b 463 36 624 65 553 36 b 169 324 307 36 175 138 l 736 324 b 739 375 739 340 739 358 b 440 683 739 567 624 683 b 107 333 267 683 107 550 b 458 -17 107 114 265 -17 z m 442 631 b 683 376 578 631 674 549 l 172 376 b 442 631 190 539 314 631 z m 549 804 b 671 979 638 804 665 893 l 624 982 b 550 853 619 913 599 853 b 339 986 472 853 443 986 b 215 811 249 986 221 899 l 263 808 b 338 938 267 881 288 938 b 549 804 414 938 443 804 z "},"ế":{"ha":833,"x_min":0,"x_max":0,"o":"m 458 -17 b 711 63 576 -17 651 22 l 686 108 b 463 36 624 65 553 36 b 169 324 307 36 175 138 l 736 324 b 739 375 739 340 739 358 b 440 683 739 567 624 683 b 107 333 267 683 107 550 b 458 -17 107 114 265 -17 z m 442 631 b 683 376 578 631 674 549 l 172 376 b 442 631 190 539 314 631 z m 296 796 l 440 901 l 446 901 l 590 796 l 615 826 l 469 954 l 417 954 l 271 826 z m 594 883 l 733 1038 l 692 1071 l 564 911 z "},"ề":{"ha":833,"x_min":0,"x_max":0,"o":"m 458 -17 b 711 63 576 -17 651 22 l 686 108 b 463 36 624 65 553 36 b 169 324 307 36 175 138 l 736 324 b 739 375 739 340 739 358 b 440 683 739 567 624 683 b 107 333 267 683 107 550 b 458 -17 107 114 265 -17 z m 442 631 b 683 376 578 631 674 549 l 172 376 b 442 631 190 539 314 631 z m 296 796 l 440 901 l 446 901 l 590 796 l 615 826 l 469 954 l 417 954 l 271 826 z m 292 883 l 322 915 l 169 1071 l 128 1033 z "},"ể":{"ha":833,"x_min":0,"x_max":0,"o":"m 458 -17 b 711 63 576 -17 651 22 l 686 108 b 463 36 624 65 553 36 b 169 324 307 36 175 138 l 736 324 b 739 375 739 340 739 358 b 440 683 739 567 624 683 b 107 333 267 683 107 550 b 458 -17 107 114 265 -17 z m 442 631 b 683 376 578 631 674 549 l 172 376 b 442 631 190 539 314 631 z m 296 796 l 440 901 l 446 901 l 590 796 l 615 826 l 469 954 l 417 954 l 271 826 z m 586 875 b 696 981 638 892 696 917 b 549 1078 696 1047 631 1075 l 544 1038 b 643 974 611 1035 643 1015 b 575 910 643 942 614 924 z "},"ễ":{"ha":833,"x_min":0,"x_max":0,"o":"m 458 -17 b 711 63 576 -17 651 22 l 686 108 b 463 36 624 65 553 36 b 169 324 307 36 175 138 l 736 324 b 739 375 739 340 739 358 b 440 683 739 567 624 683 b 107 333 267 683 107 550 b 458 -17 107 114 265 -17 z m 442 631 b 683 376 578 631 674 549 l 172 376 b 442 631 190 539 314 631 z m 296 796 l 440 900 l 446 900 l 590 796 l 615 826 l 469 953 l 417 953 l 271 826 z m 539 982 b 624 1086 600 982 621 1036 l 583 1090 b 538 1028 578 1049 568 1028 b 347 1086 476 1028 432 1086 b 263 982 286 1086 265 1032 l 303 978 b 349 1040 308 1019 318 1040 b 539 982 410 1040 456 982 z "},"ệ":{"ha":833,"x_min":0,"x_max":0,"o":"m 458 -17 b 711 63 576 -17 651 22 l 686 108 b 463 36 624 65 553 36 b 169 324 307 36 175 138 l 736 324 b 739 375 739 340 739 358 b 440 683 739 567 624 683 b 107 333 267 683 107 550 b 458 -17 107 114 265 -17 z m 442 631 b 683 376 578 631 674 549 l 172 376 b 442 631 190 539 314 631 z m 282 794 l 440 969 l 446 969 l 604 794 l 635 824 l 472 1024 l 414 1024 l 251 824 z m 443 -274 b 508 -207 479 -274 508 -249 b 443 -140 508 -167 479 -140 b 378 -207 407 -140 378 -167 b 443 -274 378 -249 407 -274 z "},"ḗ":{"ha":833,"x_min":0,"x_max":0,"o":"m 458 -17 b 711 63 576 -17 651 22 l 686 108 b 463 36 624 65 553 36 b 169 324 307 36 175 138 l 736 324 b 739 375 739 340 739 358 b 440 683 739 567 624 683 b 107 333 267 683 107 550 b 458 -17 107 114 265 -17 z m 442 631 b 683 376 578 631 674 549 l 172 376 b 442 631 190 539 314 631 z m 272 842 l 614 842 l 614 892 l 272 892 z m 392 972 l 576 1094 l 540 1142 l 361 1008 z "},"ǵ":{"ha":833,"x_min":0,"x_max":0,"o":"m 428 -321 b 781 -93 643 -321 781 -208 b 538 57 781 15 707 57 l 372 57 b 218 150 279 57 218 86 b 283 243 218 186 244 219 b 410 213 324 222 369 213 b 656 444 546 213 656 308 b 578 614 656 515 618 574 l 779 614 l 779 667 l 501 667 b 410 683 475 678 446 683 b 161 446 274 683 161 583 b 240 274 161 365 197 308 l 240 268 b 160 142 188 232 160 185 b 229 35 160 86 196 51 l 229 29 b 117 -128 157 -15 117 -75 b 428 -321 117 -244 219 -321 z m 410 261 b 224 446 307 261 224 336 b 410 632 224 554 307 632 b 594 446 511 632 594 554 b 410 261 594 336 511 261 z m 424 -271 b 175 -129 257 -271 175 -210 b 283 11 175 -81 203 -32 b 385 -1 314 1 351 -1 l 543 -1 b 717 -100 660 -1 717 -25 b 424 -271 717 -183 607 -271 z m 386 794 l 586 1004 l 539 1047 l 353 826 z "},"ĝ":{"ha":833,"x_min":0,"x_max":0,"o":"m 428 -321 b 781 -93 643 -321 781 -208 b 538 57 781 15 707 57 l 372 57 b 218 150 279 57 218 86 b 283 243 218 186 244 219 b 410 213 324 222 369 213 b 656 444 546 213 656 308 b 578 614 656 515 618 574 l 779 614 l 779 667 l 501 667 b 410 683 475 678 446 683 b 161 446 274 683 161 583 b 240 274 161 365 197 308 l 240 268 b 160 142 188 232 160 185 b 229 35 160 86 196 51 l 229 29 b 117 -128 157 -15 117 -75 b 428 -321 117 -244 219 -321 z m 410 261 b 224 446 307 261 224 336 b 410 632 224 554 307 632 b 594 446 511 632 594 554 b 410 261 594 336 511 261 z m 424 -271 b 175 -129 257 -271 175 -210 b 283 11 175 -81 203 -32 b 385 -1 314 1 351 -1 l 543 -1 b 717 -100 660 -1 717 -25 b 424 -271 717 -183 607 -271 z m 268 794 l 426 969 l 432 969 l 590 794 l 621 824 l 458 1024 l 400 1024 l 238 824 z "},"ğ":{"ha":833,"x_min":0,"x_max":0,"o":"m 428 -321 b 781 -93 643 -321 781 -208 b 538 57 781 15 707 57 l 372 57 b 218 150 279 57 218 86 b 283 243 218 186 244 219 b 410 213 324 222 369 213 b 656 444 546 213 656 308 b 578 614 656 515 618 574 l 779 614 l 779 667 l 501 667 b 410 683 475 678 446 683 b 161 446 274 683 161 583 b 240 274 161 365 197 308 l 240 268 b 160 142 188 232 160 185 b 229 35 160 86 196 51 l 229 29 b 117 -128 157 -15 117 -75 b 428 -321 117 -244 219 -321 z m 410 261 b 224 446 307 261 224 336 b 410 632 224 554 307 632 b 594 446 511 632 594 554 b 410 261 594 336 511 261 z m 424 -271 b 175 -129 257 -271 175 -210 b 283 11 175 -81 203 -32 b 385 -1 314 1 351 -1 l 543 -1 b 717 -100 660 -1 717 -25 b 424 -271 717 -183 607 -271 z m 429 792 b 636 997 572 792 625 906 l 590 1004 b 429 839 579 926 529 839 b 268 1004 329 839 279 926 l 222 997 b 429 792 233 906 286 792 z "},"ġ":{"ha":833,"x_min":0,"x_max":0,"o":"m 428 -321 b 781 -93 643 -321 781 -208 b 538 57 781 15 707 57 l 372 57 b 218 150 279 57 218 86 b 283 243 218 186 244 219 b 410 213 324 222 369 213 b 656 444 546 213 656 308 b 578 614 656 515 618 574 l 779 614 l 779 667 l 501 667 b 410 683 475 678 446 683 b 161 446 274 683 161 583 b 240 274 161 365 197 308 l 240 268 b 160 142 188 232 160 185 b 229 35 160 86 196 51 l 229 29 b 117 -128 157 -15 117 -75 b 428 -321 117 -244 219 -321 z m 410 261 b 224 446 307 261 224 336 b 410 632 224 554 307 632 b 594 446 511 632 594 554 b 410 261 594 336 511 261 z m 424 -271 b 175 -129 257 -271 175 -210 b 283 11 175 -81 203 -32 b 385 -1 314 1 351 -1 l 543 -1 b 717 -100 660 -1 717 -25 b 424 -271 717 -183 607 -271 z m 429 829 b 494 896 465 829 494 854 b 429 963 494 936 465 963 b 364 896 393 963 364 936 b 429 829 364 854 393 829 z "},"ģ":{"ha":833,"x_min":0,"x_max":0,"o":"m 428 -321 b 781 -93 643 -321 781 -208 b 538 57 781 15 707 57 l 372 57 b 218 150 279 57 218 86 b 283 243 218 186 244 219 b 410 213 324 222 369 213 b 656 444 546 213 656 308 b 578 614 656 515 618 574 l 779 614 l 779 667 l 501 667 b 410 683 475 678 446 683 b 161 446 274 683 161 583 b 240 274 161 365 197 308 l 240 268 b 160 142 188 232 160 185 b 229 35 160 86 196 51 l 229 29 b 117 -128 157 -15 117 -75 b 428 -321 117 -244 219 -321 z m 410 261 b 224 446 307 261 224 336 b 410 632 224 554 307 632 b 594 446 511 632 594 554 b 410 261 594 336 511 261 z m 424 -271 b 175 -129 257 -271 175 -210 b 283 11 175 -81 203 -32 b 385 -1 314 1 351 -1 l 543 -1 b 717 -100 660 -1 717 -25 b 424 -271 717 -183 607 -271 z m 478 804 l 496 844 b 389 908 429 850 389 867 b 546 982 389 950 425 974 l 536 1024 b 335 906 406 1015 335 978 b 478 804 335 846 372 819 z "},"ǧ":{"ha":833,"x_min":0,"x_max":0,"o":"m 428 -321 b 781 -93 643 -321 781 -208 b 538 57 781 15 707 57 l 372 57 b 218 150 279 57 218 86 b 283 243 218 186 244 219 b 410 213 324 222 369 213 b 656 444 546 213 656 308 b 578 614 656 515 618 574 l 779 614 l 779 667 l 501 667 b 410 683 475 678 446 683 b 161 446 274 683 161 583 b 240 274 161 365 197 308 l 240 268 b 160 142 188 232 160 185 b 229 35 160 86 196 51 l 229 29 b 117 -128 157 -15 117 -75 b 428 -321 117 -244 219 -321 z m 410 261 b 224 446 307 261 224 336 b 410 632 224 554 307 632 b 594 446 511 632 594 554 b 410 261 594 336 511 261 z m 424 -271 b 175 -129 257 -271 175 -210 b 283 11 175 -81 203 -32 b 385 -1 314 1 351 -1 l 543 -1 b 717 -100 660 -1 717 -25 b 424 -271 717 -183 607 -271 z m 400 796 l 458 796 l 621 996 l 590 1024 l 432 850 l 426 850 l 268 1024 l 238 996 z "},"ḡ":{"ha":833,"x_min":0,"x_max":0,"o":"m 428 -321 b 781 -93 643 -321 781 -208 b 538 57 781 15 707 57 l 372 57 b 218 150 279 57 218 86 b 283 243 218 186 244 219 b 410 213 324 222 369 213 b 656 444 546 213 656 308 b 578 614 656 515 618 574 l 779 614 l 779 667 l 501 667 b 410 683 475 678 446 683 b 161 446 274 683 161 583 b 240 274 161 365 197 308 l 240 268 b 160 142 188 232 160 185 b 229 35 160 86 196 51 l 229 29 b 117 -128 157 -15 117 -75 b 428 -321 117 -244 219 -321 z m 410 261 b 224 446 307 261 224 336 b 410 632 224 554 307 632 b 594 446 511 632 594 554 b 410 261 594 336 511 261 z m 424 -271 b 175 -129 257 -271 175 -210 b 283 11 175 -81 203 -32 b 385 -1 314 1 351 -1 l 543 -1 b 717 -100 660 -1 717 -25 b 424 -271 717 -183 607 -271 z m 258 842 l 600 842 l 600 892 l 258 892 z "},"ĥ":{"ha":833,"x_min":0,"x_max":0,"o":"m 146 0 l 208 0 l 208 478 b 464 628 304 579 369 628 b 651 407 596 628 651 557 l 651 0 l 714 0 l 714 415 b 474 683 714 596 636 683 b 207 535 368 683 286 621 l 204 535 l 208 710 l 208 999 l 146 999 z m 11 1065 l 168 1201 l 174 1201 l 331 1065 l 358 1092 l 201 1249 l 140 1249 l -17 1092 z "},"ḧ":{"ha":833,"x_min":0,"x_max":0,"o":"m 146 0 l 208 0 l 208 478 b 464 628 304 579 369 628 b 651 407 596 628 651 557 l 651 0 l 714 0 l 714 415 b 474 683 714 596 636 683 b 207 535 368 683 286 621 l 204 535 l 208 710 l 208 999 l 146 999 z m 60 1090 b 111 1142 89 1090 111 1110 b 60 1193 111 1172 89 1193 b 8 1142 31 1193 8 1172 b 60 1090 8 1110 31 1090 z m 282 1090 b 333 1142 311 1090 333 1110 b 282 1193 333 1172 311 1193 b 231 1142 253 1193 231 1172 b 282 1090 231 1110 253 1090 z "},"ḥ":{"ha":833,"x_min":0,"x_max":0,"o":"m 146 0 l 208 0 l 208 478 b 464 628 304 579 369 628 b 651 407 596 628 651 557 l 651 0 l 714 0 l 714 415 b 474 683 714 596 636 683 b 207 535 368 683 286 621 l 204 535 l 208 710 l 208 999 l 146 999 z m 443 -274 b 508 -207 479 -274 508 -249 b 443 -140 508 -167 479 -140 b 378 -207 407 -140 378 -167 b 443 -274 378 -249 407 -274 z "},"ẖ":{"ha":833,"x_min":0,"x_max":0,"o":"m 146 0 l 208 0 l 208 478 b 464 628 304 579 369 628 b 651 407 596 628 651 557 l 651 0 l 714 0 l 714 415 b 474 683 714 596 636 683 b 207 535 368 683 286 621 l 204 535 l 208 710 l 208 999 l 146 999 z m 272 -222 l 614 -222 l 614 -172 l 272 -172 z "},"ḩ":{"ha":833,"x_min":0,"x_max":0,"o":"m 146 0 l 151 0 l 108 -118 b 217 -189 185 -129 217 -149 b 60 -262 217 -231 181 -254 l 69 -304 b 271 -186 200 -296 271 -258 b 172 -90 271 -131 232 -106 l 201 0 l 208 0 l 208 478 b 464 628 304 579 369 628 b 651 407 596 628 651 557 l 651 0 l 714 0 l 714 415 b 474 683 714 596 636 683 b 207 535 368 683 286 621 l 204 535 l 208 710 l 208 999 l 146 999 z "},"ḫ":{"ha":833,"x_min":0,"x_max":0,"o":"m 146 0 l 208 0 l 208 478 b 464 628 304 579 369 628 b 651 407 596 628 651 557 l 651 0 l 714 0 l 714 415 b 474 683 714 596 636 683 b 207 535 368 683 286 621 l 204 535 l 208 710 l 208 999 l 146 999 z m 443 -321 b 650 -115 586 -321 639 -207 l 604 -108 b 443 -274 593 -186 543 -274 b 282 -108 343 -274 293 -186 l 236 -115 b 443 -321 247 -207 300 -321 z "},"ħ":{"ha":833,"x_min":0,"x_max":0,"o":"m 146 0 l 208 0 l 208 450 b 464 600 304 551 369 600 b 651 379 596 600 651 528 l 651 0 l 714 0 l 714 388 b 474 656 714 568 636 656 b 207 507 367 656 286 594 l 204 507 l 208 682 l 208 803 l 526 803 l 526 856 l 208 856 l 208 999 l 146 999 l 146 856 l 40 849 l 40 803 l 146 803 z "},"ì":{"ha":833,"x_min":0,"x_max":0,"o":"m 469 0 l 531 0 l 531 667 l 135 667 l 135 614 l 469 614 z m 528 794 l 561 826 l 375 1047 l 328 1004 z "},"í":{"ha":833,"x_min":0,"x_max":0,"o":"m 469 0 l 531 0 l 531 667 l 135 667 l 135 614 l 469 614 z m 442 794 l 642 1004 l 594 1047 l 408 826 z "},"î":{"ha":833,"x_min":0,"x_max":0,"o":"m 469 0 l 531 0 l 531 667 l 135 667 l 135 614 l 469 614 z m 324 794 l 482 969 l 488 969 l 646 794 l 676 824 l 514 1024 l 456 1024 l 293 824 z "},"ĩ":{"ha":833,"x_min":0,"x_max":0,"o":"m 469 0 l 531 0 l 531 667 l 135 667 l 135 614 l 469 614 z m 590 804 b 713 979 679 804 707 893 l 665 982 b 592 853 661 913 640 853 b 381 986 514 853 485 986 b 257 811 290 986 263 899 l 304 808 b 379 938 308 881 329 938 b 590 804 456 938 485 804 z "},"ï":{"ha":833,"x_min":0,"x_max":0,"o":"m 469 0 l 531 0 l 531 667 l 135 667 l 135 614 l 469 614 z m 361 831 b 417 889 393 831 417 857 b 361 946 417 921 393 946 b 306 889 329 946 306 921 b 361 831 306 857 329 831 z m 608 831 b 664 889 640 831 664 857 b 608 946 664 921 640 946 b 553 889 576 946 553 921 b 608 831 553 857 576 831 z "},"ī":{"ha":833,"x_min":0,"x_max":0,"o":"m 469 0 l 531 0 l 531 667 l 135 667 l 135 614 l 469 614 z m 314 842 l 656 842 l 656 892 l 314 892 z "},"ǐ":{"ha":833,"x_min":0,"x_max":0,"o":"m 469 0 l 531 0 l 531 667 l 135 667 l 135 614 l 469 614 z m 456 796 l 514 796 l 676 996 l 646 1024 l 488 850 l 482 850 l 324 1024 l 293 996 z "},"į":{"ha":833,"x_min":0,"x_max":0,"o":"m 492 -311 b 606 -261 544 -311 576 -290 l 578 -229 b 500 -262 558 -247 535 -262 b 413 -179 454 -262 413 -236 b 531 -10 413 -119 456 -56 l 531 667 l 135 667 l 135 614 l 469 614 l 469 0 l 479 0 b 360 -187 408 -50 360 -114 b 492 -311 360 -272 415 -311 z m 485 829 b 550 896 521 829 550 854 b 485 963 550 936 521 963 b 419 896 449 963 419 936 b 485 829 419 854 449 829 z "},"ỉ":{"ha":833,"x_min":0,"x_max":0,"o":"m 469 0 l 531 0 l 531 667 l 135 667 l 135 614 l 469 614 z m 450 799 b 582 921 517 817 582 849 b 413 1029 582 994 506 1026 l 408 982 b 526 914 485 979 526 957 b 439 838 526 874 489 853 z "},"ị":{"ha":833,"x_min":0,"x_max":0,"o":"m 469 0 l 531 0 l 531 667 l 135 667 l 135 614 l 469 614 z m 485 829 b 550 896 521 829 550 854 b 485 963 550 936 521 963 b 419 896 449 963 419 936 b 485 829 419 854 449 829 z m 485 -274 b 550 -207 521 -274 550 -249 b 485 -140 550 -167 521 -140 b 419 -207 449 -140 419 -167 b 485 -274 419 -249 449 -274 z "},"ĭ":{"ha":833,"x_min":0,"x_max":0,"o":"m 469 0 l 531 0 l 531 667 l 135 667 l 135 614 l 469 614 z m 485 792 b 692 997 628 792 681 906 l 646 1004 b 485 839 635 926 585 839 b 324 1004 385 839 335 926 l 278 997 b 485 792 289 906 342 792 z "},"ı":{"ha":833,"x_min":0,"x_max":0,"o":"m 469 0 l 531 0 l 531 667 l 135 667 l 135 614 l 469 614 z "},"ĵ":{"ha":833,"x_min":0,"x_max":0,"o":"m 269 -318 b 531 -51 468 -318 531 -215 l 531 667 l 135 667 l 135 614 l 469 614 l 469 -60 b 274 -265 469 -183 429 -265 b 113 -225 217 -265 157 -247 l 88 -274 b 269 -318 138 -299 207 -318 z m 324 794 l 482 969 l 488 969 l 646 794 l 676 824 l 514 1024 l 456 1024 l 293 824 z "},"ķ":{"ha":833,"x_min":0,"x_max":0,"o":"m 171 0 l 233 0 l 233 189 l 428 371 l 717 0 l 788 0 l 469 410 l 743 667 l 667 667 l 239 265 l 233 265 l 233 999 l 171 999 z m 368 -304 b 569 -186 499 -296 569 -258 b 426 -85 569 -126 532 -100 l 408 -125 b 515 -190 475 -131 515 -147 b 358 -262 515 -231 479 -254 z "},"ḳ":{"ha":833,"x_min":0,"x_max":0,"o":"m 171 0 l 233 0 l 233 189 l 428 371 l 717 0 l 788 0 l 469 410 l 743 667 l 667 667 l 239 265 l 233 265 l 233 999 l 171 999 z m 475 -274 b 540 -207 511 -274 540 -249 b 475 -140 540 -167 511 -140 b 410 -207 439 -140 410 -167 b 475 -274 410 -249 439 -274 z "},"ḵ":{"ha":833,"x_min":0,"x_max":0,"o":"m 171 0 l 233 0 l 233 189 l 428 371 l 717 0 l 788 0 l 469 410 l 743 667 l 667 667 l 239 265 l 233 265 l 233 999 l 171 999 z m 304 -222 l 646 -222 l 646 -172 l 304 -172 z "},"ĸ":{"ha":833,"x_min":0,"x_max":0,"o":"m 171 0 l 233 0 l 233 186 l 426 369 l 717 0 l 788 0 l 469 408 l 743 667 l 667 667 l 236 265 l 233 263 l 233 667 l 171 667 z "},"ĺ":{"ha":833,"x_min":0,"x_max":0,"o":"m 575 -17 b 740 25 640 -17 683 -3 l 721 72 b 583 38 672 49 626 38 b 438 193 489 38 438 88 l 438 999 l 128 999 l 128 946 l 376 946 l 376 201 b 575 -17 376 50 449 -17 z m 372 1064 l 557 1221 l 517 1267 l 344 1096 z "},"ľ":{"ha":833,"x_min":0,"x_max":0,"o":"m 575 -17 b 740 25 640 -17 683 -3 l 721 72 b 583 38 672 49 626 38 b 438 193 489 38 438 88 l 438 999 l 128 999 l 128 946 l 376 946 l 376 201 b 575 -17 376 50 449 -17 z m 553 761 l 597 761 l 608 1031 l 608 1129 l 550 1129 z "},"ļ":{"ha":833,"x_min":0,"x_max":0,"o":"m 575 -17 b 740 25 640 -17 683 -3 l 721 72 b 583 38 672 49 626 38 b 438 193 489 38 438 88 l 438 999 l 128 999 l 128 946 l 376 946 l 376 201 b 575 -17 376 50 449 -17 z m 443 -304 b 644 -186 574 -296 644 -258 b 501 -85 644 -126 607 -100 l 483 -125 b 590 -190 550 -131 590 -147 b 433 -262 590 -231 554 -254 z "},"ḷ":{"ha":833,"x_min":0,"x_max":0,"o":"m 575 -17 b 740 25 640 -17 683 -3 l 721 72 b 583 38 672 49 626 38 b 438 193 489 38 438 88 l 438 999 l 128 999 l 128 946 l 376 946 l 376 201 b 575 -17 376 50 449 -17 z m 550 -274 b 615 -207 586 -274 615 -249 b 550 -140 615 -167 586 -140 b 485 -207 514 -140 485 -167 b 550 -274 485 -249 514 -274 z "},"ḹ":{"ha":833,"x_min":0,"x_max":0,"o":"m 575 -17 b 740 25 640 -17 683 -3 l 721 72 b 583 38 672 49 626 38 b 438 193 489 38 438 88 l 438 999 l 128 999 l 128 946 l 376 946 l 376 201 b 575 -17 376 50 449 -17 z m 233 1115 l 578 1115 l 578 1165 l 233 1165 z m 550 -274 b 615 -207 586 -274 615 -249 b 550 -140 615 -167 586 -140 b 485 -207 514 -140 485 -167 b 550 -274 485 -249 514 -274 z "},"ḻ":{"ha":833,"x_min":0,"x_max":0,"o":"m 575 -17 b 740 25 640 -17 683 -3 l 721 72 b 583 38 672 49 626 38 b 438 193 489 38 438 88 l 438 999 l 128 999 l 128 946 l 376 946 l 376 201 b 575 -17 376 50 449 -17 z m 379 -222 l 721 -222 l 721 -172 l 379 -172 z "},"ł":{"ha":833,"x_min":0,"x_max":0,"o":"m 575 -17 b 740 25 640 -17 683 -3 l 721 72 b 583 38 672 49 626 38 b 438 193 489 38 438 88 l 438 539 l 686 682 l 664 726 l 438 597 l 438 999 l 128 999 l 128 946 l 376 946 l 376 567 l 185 454 l 208 410 l 376 508 l 376 201 b 575 -17 376 50 449 -17 z "},"ŀ":{"ha":833,"x_min":0,"x_max":0,"o":"m 531 -17 b 696 25 596 -17 639 -3 l 676 72 b 539 38 628 49 582 38 b 393 193 444 38 393 88 l 393 999 l 83 999 l 83 946 l 332 946 l 332 201 b 531 -17 332 50 404 -17 z m 801 411 b 867 478 838 411 867 436 b 801 544 867 518 838 544 b 736 478 765 544 736 518 b 801 411 736 436 765 411 z "},"ḿ":{"ha":833,"x_min":0,"x_max":0,"o":"m 103 0 l 164 0 l 164 503 b 307 628 207 586 246 628 b 401 476 371 628 401 576 l 401 0 l 460 0 l 460 503 b 601 628 504 586 542 628 b 697 476 667 628 697 576 l 697 0 l 758 0 l 758 483 b 614 683 758 617 707 683 b 450 565 539 683 499 642 b 318 683 432 644 390 683 b 164 576 243 683 203 642 l 161 576 l 154 667 l 103 667 z m 389 793 l 589 1003 l 542 1046 l 356 825 z "},"ṁ":{"ha":833,"x_min":0,"x_max":0,"o":"m 103 0 l 164 0 l 164 503 b 307 628 207 586 246 628 b 401 476 371 628 401 576 l 401 0 l 460 0 l 460 503 b 601 628 504 586 542 628 b 697 476 667 628 697 576 l 697 0 l 758 0 l 758 483 b 614 683 758 617 707 683 b 450 565 539 683 499 642 b 318 683 432 644 390 683 b 164 576 243 683 203 642 l 161 576 l 154 667 l 103 667 z m 432 828 b 497 894 468 828 497 853 b 432 961 497 935 468 961 b 367 894 396 961 367 935 b 432 828 367 853 396 828 z "},"ṃ":{"ha":833,"x_min":0,"x_max":0,"o":"m 103 0 l 164 0 l 164 503 b 307 628 207 586 246 628 b 401 476 371 628 401 576 l 401 0 l 460 0 l 460 503 b 601 628 504 586 542 628 b 697 476 667 628 697 576 l 697 0 l 758 0 l 758 483 b 614 683 758 617 707 683 b 450 565 539 683 499 642 b 318 683 432 644 390 683 b 164 576 243 683 203 642 l 161 576 l 154 667 l 103 667 z m 433 -274 b 499 -207 469 -274 499 -249 b 433 -140 499 -167 469 -140 b 368 -207 397 -140 368 -167 b 433 -274 368 -249 397 -274 z "},"ń":{"ha":833,"x_min":0,"x_max":0,"o":"m 146 0 l 208 0 l 208 478 b 464 628 304 579 369 628 b 651 407 596 628 651 557 l 651 0 l 714 0 l 714 415 b 474 683 714 596 636 683 b 211 539 367 683 288 621 l 206 539 l 199 667 l 146 667 z m 400 794 l 600 1004 l 553 1047 l 367 826 z "},"ǹ":{"ha":833,"x_min":0,"x_max":0,"o":"m 146 0 l 208 0 l 208 478 b 464 628 304 579 369 628 b 651 407 596 628 651 557 l 651 0 l 714 0 l 714 415 b 474 683 714 596 636 683 b 211 539 367 683 288 621 l 206 539 l 199 667 l 146 667 z m 486 794 l 519 826 l 333 1047 l 286 1004 z "},"ň":{"ha":833,"x_min":0,"x_max":0,"o":"m 146 0 l 208 0 l 208 478 b 464 628 304 579 369 628 b 651 407 596 628 651 557 l 651 0 l 714 0 l 714 415 b 474 683 714 596 636 683 b 211 539 367 683 288 621 l 206 539 l 199 667 l 146 667 z m 414 796 l 472 796 l 635 996 l 604 1024 l 446 850 l 440 850 l 282 1024 l 251 996 z "},"ñ":{"ha":833,"x_min":0,"x_max":0,"o":"m 146 0 l 208 0 l 208 478 b 464 628 304 579 369 628 b 651 407 596 628 651 557 l 651 0 l 714 0 l 714 415 b 474 683 714 596 636 683 b 211 539 367 683 288 621 l 206 539 l 199 667 l 146 667 z m 549 804 b 671 979 638 804 665 893 l 624 982 b 550 853 619 913 599 853 b 339 986 472 853 443 986 b 215 811 249 986 221 899 l 263 808 b 338 938 267 881 288 938 b 549 804 414 938 443 804 z "},"ņ":{"ha":833,"x_min":0,"x_max":0,"o":"m 146 0 l 208 0 l 208 478 b 464 628 304 579 369 628 b 651 407 596 628 651 557 l 651 0 l 714 0 l 714 415 b 474 683 714 596 636 683 b 211 539 367 683 288 621 l 206 539 l 199 667 l 146 667 z m 333 -304 b 535 -186 464 -296 535 -258 b 392 -85 535 -126 497 -100 l 374 -125 b 481 -190 440 -131 481 -147 b 324 -262 481 -231 444 -254 z "},"ṅ":{"ha":833,"x_min":0,"x_max":0,"o":"m 146 0 l 208 0 l 208 478 b 464 628 304 579 369 628 b 651 407 596 628 651 557 l 651 0 l 714 0 l 714 415 b 474 683 714 596 636 683 b 211 539 367 683 288 621 l 206 539 l 199 667 l 146 667 z m 443 829 b 508 896 479 829 508 854 b 443 963 508 936 479 963 b 378 896 407 963 378 936 b 443 829 378 854 407 829 z "},"ṇ":{"ha":833,"x_min":0,"x_max":0,"o":"m 146 0 l 208 0 l 208 478 b 464 628 304 579 369 628 b 651 407 596 628 651 557 l 651 0 l 714 0 l 714 415 b 474 683 714 596 636 683 b 211 539 367 683 288 621 l 206 539 l 199 667 l 146 667 z m 440 -274 b 506 -207 476 -274 506 -249 b 440 -140 506 -167 476 -140 b 375 -207 404 -140 375 -167 b 440 -274 375 -249 404 -274 z "},"ṉ":{"ha":833,"x_min":0,"x_max":0,"o":"m 146 0 l 208 0 l 208 478 b 464 628 304 579 369 628 b 651 407 596 628 651 557 l 651 0 l 714 0 l 714 415 b 474 683 714 596 636 683 b 211 539 367 683 288 621 l 206 539 l 199 667 l 146 667 z m 269 -222 l 611 -222 l 611 -172 l 269 -172 z "},"ŉ":{"ha":833,"x_min":0,"x_max":0,"o":"m 256 0 l 318 0 l 318 490 b 558 628 408 583 469 628 b 731 419 679 628 731 560 l 731 0 l 792 0 l 792 428 b 568 683 792 600 718 683 b 321 551 467 683 393 626 l 315 551 l 308 667 l 256 667 z m 18 535 b 192 836 121 593 192 704 b 89 972 192 921 144 972 b 4 883 39 972 4 935 b 86 800 4 836 38 800 b 128 814 100 800 114 806 b -10 576 121 711 69 629 z "},"ò":{"ha":833,"x_min":0,"x_max":0,"o":"m 417 -17 b 740 332 592 -17 740 111 b 417 683 740 556 592 683 b 93 332 242 683 93 556 b 417 -17 93 111 242 -17 z m 417 38 b 158 332 267 38 158 157 b 417 629 158 508 267 629 b 675 332 567 629 675 508 b 417 38 675 157 567 38 z m 460 794 l 493 826 l 307 1047 l 260 1004 z "},"ó":{"ha":833,"x_min":0,"x_max":0,"o":"m 417 -17 b 740 332 592 -17 740 111 b 417 683 740 556 592 683 b 93 332 242 683 93 556 b 417 -17 93 111 242 -17 z m 417 38 b 158 332 267 38 158 157 b 417 629 158 508 267 629 b 675 332 567 629 675 508 b 417 38 675 157 567 38 z m 374 794 l 574 1004 l 526 1047 l 340 826 z "},"ô":{"ha":833,"x_min":0,"x_max":0,"o":"m 417 -17 b 740 332 592 -17 740 111 b 417 683 740 556 592 683 b 93 332 242 683 93 556 b 417 -17 93 111 242 -17 z m 417 38 b 158 332 267 38 158 157 b 417 629 158 508 267 629 b 675 332 567 629 675 508 b 417 38 675 157 567 38 z m 256 794 l 414 969 l 419 969 l 578 794 l 608 824 l 446 1024 l 388 1024 l 225 824 z "},"õ":{"ha":833,"x_min":0,"x_max":0,"o":"m 417 -17 b 740 332 592 -17 740 111 b 417 683 740 556 592 683 b 93 332 242 683 93 556 b 417 -17 93 111 242 -17 z m 417 38 b 158 332 267 38 158 157 b 417 629 158 508 267 629 b 675 332 567 629 675 508 b 417 38 675 157 567 38 z m 522 804 b 644 979 611 804 639 893 l 597 982 b 524 853 593 913 572 853 b 313 986 446 853 417 986 b 189 811 222 986 194 899 l 236 808 b 311 938 240 881 261 938 b 522 804 388 938 417 804 z "},"ö":{"ha":833,"x_min":0,"x_max":0,"o":"m 417 -17 b 740 332 592 -17 740 111 b 417 683 740 556 592 683 b 93 332 242 683 93 556 b 417 -17 93 111 242 -17 z m 417 38 b 158 332 267 38 158 157 b 417 629 158 508 267 629 b 675 332 567 629 675 508 b 417 38 675 157 567 38 z m 293 831 b 349 889 325 831 349 857 b 293 946 349 921 325 946 b 238 889 261 946 238 921 b 293 831 238 857 261 831 z m 540 831 b 596 889 572 831 596 857 b 540 946 596 921 572 946 b 485 889 508 946 485 921 b 540 831 485 857 508 831 z "},"ō":{"ha":833,"x_min":0,"x_max":0,"o":"m 417 -17 b 740 332 592 -17 740 111 b 417 683 740 556 592 683 b 93 332 242 683 93 556 b 417 -17 93 111 242 -17 z m 417 38 b 158 332 267 38 158 157 b 417 629 158 508 267 629 b 675 332 567 629 675 508 b 417 38 675 157 567 38 z m 246 842 l 588 842 l 588 892 l 246 892 z "},"ő":{"ha":833,"x_min":0,"x_max":0,"o":"m 417 -17 b 740 332 592 -17 740 111 b 417 683 740 556 592 683 b 93 332 242 683 93 556 b 417 -17 93 111 242 -17 z m 417 38 b 158 332 267 38 158 157 b 417 629 158 508 267 629 b 675 332 567 629 675 508 b 417 38 675 157 567 38 z m 335 790 l 465 1015 l 417 1042 l 297 808 z m 521 790 l 651 1015 l 603 1042 l 483 808 z "},"ǒ":{"ha":833,"x_min":0,"x_max":0,"o":"m 417 -17 b 740 332 592 -17 740 111 b 417 683 740 556 592 683 b 93 332 242 683 93 556 b 417 -17 93 111 242 -17 z m 417 38 b 158 332 267 38 158 157 b 417 629 158 508 267 629 b 675 332 567 629 675 508 b 417 38 675 157 567 38 z m 388 796 l 446 796 l 608 996 l 578 1024 l 419 850 l 414 850 l 256 1024 l 225 996 z "},"ǫ":{"ha":833,"x_min":0,"x_max":0,"o":"m 454 -311 b 569 -261 508 -311 540 -290 l 542 -229 b 463 -262 524 -247 499 -262 b 376 -179 418 -262 376 -236 b 503 -7 376 -115 426 -40 b 740 332 646 54 740 142 b 417 683 740 556 592 683 b 93 332 242 683 93 556 b 421 -17 93 122 228 -14 b 322 -187 368 -60 322 -115 b 454 -311 322 -272 379 -311 z m 417 38 b 158 332 267 38 158 156 b 417 629 158 508 267 629 b 675 332 567 629 675 508 b 417 38 675 156 567 38 z "},"ọ":{"ha":833,"x_min":0,"x_max":0,"o":"m 417 -17 b 740 332 592 -17 740 111 b 417 683 740 556 592 683 b 93 332 242 683 93 556 b 417 -17 93 111 242 -17 z m 417 38 b 158 332 267 38 158 157 b 417 629 158 508 267 629 b 675 332 567 629 675 508 b 417 38 675 157 567 38 z m 417 -274 b 482 -207 453 -274 482 -249 b 417 -140 482 -167 453 -140 b 351 -207 381 -140 351 -167 b 417 -274 351 -249 381 -274 z "},"ỏ":{"ha":833,"x_min":0,"x_max":0,"o":"m 417 -17 b 740 332 592 -17 740 111 b 417 683 740 556 592 683 b 93 332 242 683 93 556 b 417 -17 93 111 242 -17 z m 417 38 b 158 332 267 38 158 157 b 417 629 158 508 267 629 b 675 332 567 629 675 508 b 417 38 675 157 567 38 z m 382 799 b 514 921 449 817 514 849 b 344 1029 514 994 438 1026 l 340 982 b 458 914 417 979 458 957 b 371 838 458 874 421 853 z "},"ố":{"ha":833,"x_min":0,"x_max":0,"o":"m 417 -17 b 740 332 592 -17 740 111 b 417 683 740 556 592 683 b 93 332 242 683 93 556 b 417 -17 93 111 242 -17 z m 417 38 b 158 332 267 38 158 157 b 417 629 158 508 267 629 b 675 332 567 629 675 508 b 417 38 675 157 567 38 z m 269 796 l 414 901 l 419 901 l 564 796 l 589 826 l 443 954 l 390 954 l 244 826 z m 568 883 l 707 1038 l 665 1071 l 538 911 z "},"ồ":{"ha":833,"x_min":0,"x_max":0,"o":"m 417 -17 b 740 332 592 -17 740 111 b 417 683 740 556 592 683 b 93 332 242 683 93 556 b 417 -17 93 111 242 -17 z m 417 38 b 158 332 267 38 158 157 b 417 629 158 508 267 629 b 675 332 567 629 675 508 b 417 38 675 157 567 38 z m 269 796 l 414 901 l 419 901 l 564 796 l 589 826 l 443 954 l 390 954 l 244 826 z m 265 883 l 296 915 l 143 1071 l 101 1033 z "},"ổ":{"ha":833,"x_min":0,"x_max":0,"o":"m 417 -17 b 740 332 592 -17 740 111 b 417 683 740 556 592 683 b 93 332 242 683 93 556 b 417 -17 93 111 242 -17 z m 417 38 b 158 332 267 38 158 157 b 417 629 158 508 267 629 b 675 332 567 629 675 508 b 417 38 675 157 567 38 z m 269 796 l 414 901 l 419 901 l 564 796 l 589 826 l 443 954 l 390 954 l 244 826 z m 560 875 b 669 981 611 892 669 917 b 522 1078 669 1047 604 1075 l 518 1038 b 617 974 585 1035 617 1015 b 549 910 617 942 588 924 z "},"ỗ":{"ha":833,"x_min":0,"x_max":0,"o":"m 417 -17 b 740 332 592 -17 740 111 b 417 683 740 556 592 683 b 93 332 242 683 93 556 b 417 -17 93 111 242 -17 z m 417 38 b 158 332 267 38 158 157 b 417 629 158 508 267 629 b 675 332 567 629 675 508 b 417 38 675 157 567 38 z m 269 796 l 414 900 l 419 900 l 564 796 l 589 826 l 443 953 l 390 953 l 244 826 z m 513 982 b 597 1086 574 982 594 1036 l 557 1090 b 511 1028 551 1049 542 1028 b 321 1086 450 1028 406 1086 b 236 982 260 1086 239 1032 l 276 978 b 322 1040 282 1019 292 1040 b 513 982 383 1040 429 982 z "},"ộ":{"ha":833,"x_min":0,"x_max":0,"o":"m 417 -17 b 740 332 592 -17 740 111 b 417 683 740 556 592 683 b 93 332 242 683 93 556 b 417 -17 93 111 242 -17 z m 417 38 b 158 332 267 38 158 157 b 417 629 158 508 267 629 b 675 332 567 629 675 508 b 417 38 675 157 567 38 z m 256 794 l 414 969 l 419 969 l 578 794 l 608 824 l 446 1024 l 388 1024 l 225 824 z m 417 -274 b 482 -207 453 -274 482 -249 b 417 -140 482 -167 453 -140 b 351 -207 381 -140 351 -167 b 417 -274 351 -249 381 -274 z "},"ŏ":{"ha":833,"x_min":0,"x_max":0,"o":"m 417 -17 b 740 332 592 -17 740 111 b 417 683 740 556 592 683 b 93 332 242 683 93 556 b 417 -17 93 111 242 -17 z m 417 38 b 158 332 267 38 158 157 b 417 629 158 508 267 629 b 675 332 567 629 675 508 b 417 38 675 157 567 38 z m 417 792 b 624 997 560 792 613 906 l 578 1004 b 417 839 567 926 517 839 b 256 1004 317 839 267 926 l 210 997 b 417 792 221 906 274 792 z "},"ṓ":{"ha":833,"x_min":0,"x_max":0,"o":"m 417 -17 b 740 332 592 -17 740 111 b 417 683 740 556 592 683 b 93 332 242 683 93 556 b 417 -17 93 111 242 -17 z m 417 38 b 158 332 267 38 158 157 b 417 629 158 508 267 629 b 675 332 567 629 675 508 b 417 38 675 157 567 38 z m 246 842 l 588 842 l 588 892 l 246 892 z m 365 972 l 550 1094 l 514 1142 l 335 1008 z "},"ơ":{"ha":833,"x_min":0,"x_max":0,"o":"m 417 -17 b 740 332 592 -17 740 111 b 608 622 740 465 688 564 b 749 796 679 644 749 693 b 722 894 749 829 739 863 l 669 867 b 689 792 683 843 689 815 b 556 653 689 714 644 671 b 417 683 514 674 467 683 b 93 332 242 683 93 556 b 417 -17 93 111 242 -17 z m 417 38 b 158 332 267 38 158 157 b 417 629 158 508 267 629 b 675 332 567 629 675 508 b 417 38 675 157 567 38 z "},"ớ":{"ha":833,"x_min":0,"x_max":0,"o":"m 417 -17 b 740 332 592 -17 740 111 b 608 622 740 465 688 564 b 749 796 679 644 749 693 b 722 894 749 829 739 863 l 669 867 b 689 792 683 843 689 815 b 556 653 689 714 644 671 b 417 683 514 674 467 683 b 93 332 242 683 93 556 b 417 -17 93 111 242 -17 z m 417 38 b 158 332 267 38 158 157 b 417 629 158 508 267 629 b 675 332 567 629 675 508 b 417 38 675 157 567 38 z m 374 794 l 574 1004 l 526 1047 l 340 826 z "},"ờ":{"ha":833,"x_min":0,"x_max":0,"o":"m 417 -17 b 740 332 592 -17 740 111 b 608 622 740 465 688 564 b 749 796 679 644 749 693 b 722 894 749 829 739 863 l 669 867 b 689 792 683 843 689 815 b 556 653 689 714 644 671 b 417 683 514 674 467 683 b 93 332 242 683 93 556 b 417 -17 93 111 242 -17 z m 417 38 b 158 332 267 38 158 157 b 417 629 158 508 267 629 b 675 332 567 629 675 508 b 417 38 675 157 567 38 z m 460 794 l 493 826 l 307 1047 l 260 1004 z "},"ở":{"ha":833,"x_min":0,"x_max":0,"o":"m 417 -17 b 740 332 592 -17 740 111 b 608 622 740 465 688 564 b 749 796 679 644 749 693 b 722 894 749 829 739 863 l 669 867 b 689 792 683 843 689 815 b 556 653 689 714 644 671 b 417 683 514 674 467 683 b 93 332 242 683 93 556 b 417 -17 93 111 242 -17 z m 417 38 b 158 332 267 38 158 157 b 417 629 158 508 267 629 b 675 332 567 629 675 508 b 417 38 675 157 567 38 z m 382 799 b 514 921 449 817 514 849 b 344 1029 514 994 438 1026 l 340 982 b 458 914 417 979 458 957 b 371 838 458 874 421 853 z "},"ỡ":{"ha":833,"x_min":0,"x_max":0,"o":"m 417 -17 b 740 332 592 -17 740 111 b 608 622 740 465 688 564 b 749 796 679 644 749 693 b 722 894 749 829 739 863 l 669 867 b 689 792 683 843 689 815 b 556 653 689 714 644 671 b 417 683 514 674 467 683 b 93 332 242 683 93 556 b 417 -17 93 111 242 -17 z m 417 38 b 158 332 267 38 158 157 b 417 629 158 508 267 629 b 675 332 567 629 675 508 b 417 38 675 157 567 38 z m 494 804 b 617 979 583 804 611 893 l 569 982 b 496 853 565 913 544 853 b 285 986 418 853 389 986 b 161 811 194 986 167 899 l 208 808 b 283 938 213 881 233 938 b 494 804 360 938 389 804 z "},"ợ":{"ha":833,"x_min":0,"x_max":0,"o":"m 417 -17 b 740 332 592 -17 740 111 b 608 622 740 465 688 564 b 749 796 679 644 749 693 b 722 894 749 829 739 863 l 669 867 b 689 792 683 843 689 815 b 556 653 689 714 644 671 b 417 683 514 674 467 683 b 93 332 242 683 93 556 b 417 -17 93 111 242 -17 z m 417 38 b 158 332 267 38 158 157 b 417 629 158 508 267 629 b 675 332 567 629 675 508 b 417 38 675 157 567 38 z m 417 -274 b 482 -207 453 -274 482 -249 b 417 -140 482 -167 453 -140 b 351 -207 381 -140 351 -167 b 417 -274 351 -249 381 -274 z "},"ø":{"ha":833,"x_min":0,"x_max":0,"o":"m 417 -17 b 740 332 592 -17 740 111 b 660 574 740 433 710 514 l 739 664 l 700 699 l 624 611 b 417 683 567 658 494 683 b 93 332 242 683 93 556 b 174 92 93 232 124 150 l 94 0 l 133 -33 l 211 56 b 417 -17 267 8 339 -17 z m 158 332 b 417 631 158 508 267 631 b 585 565 482 631 540 607 l 215 139 b 158 332 179 189 158 256 z m 417 36 b 249 100 351 36 293 60 l 619 526 b 675 332 654 475 675 408 b 417 36 675 157 567 36 z "},"ǿ":{"ha":833,"x_min":0,"x_max":0,"o":"m 417 -17 b 740 332 592 -17 740 111 b 660 574 740 433 710 514 l 739 664 l 700 699 l 624 611 b 417 683 567 658 494 683 b 93 332 242 683 93 556 b 174 92 93 232 124 150 l 94 0 l 133 -33 l 211 56 b 417 -17 267 8 339 -17 z m 158 332 b 417 631 158 508 267 631 b 585 565 482 631 540 607 l 215 139 b 158 332 179 189 158 256 z m 417 36 b 249 100 351 36 293 60 l 619 526 b 675 332 654 475 675 408 b 417 36 675 157 567 36 z m 374 794 l 574 1004 l 526 1047 l 340 826 z "},"œ":{"ha":833,"x_min":0,"x_max":0,"o":"m 247 38 b 76 332 138 38 76 157 b 247 629 76 510 138 629 b 415 333 346 629 415 508 b 247 38 415 158 346 38 z m 244 -17 b 440 172 338 -17 403 44 b 656 -17 478 44 550 -17 b 813 40 724 -17 775 11 l 788 86 b 657 38 751 61 711 38 b 468 324 549 38 471 133 l 829 324 b 832 389 832 350 832 369 b 642 683 832 549 769 683 b 440 492 546 683 475 619 b 246 683 403 619 338 683 b 14 332 111 683 14 556 b 244 -17 14 111 111 -17 z m 638 631 b 779 376 728 631 775 543 l 469 376 b 638 631 479 540 544 631 z "},"ŕ":{"ha":833,"x_min":0,"x_max":0,"o":"m 226 0 l 289 0 l 289 417 b 593 625 381 568 482 625 b 719 601 646 625 671 618 l 736 656 b 603 683 694 678 647 683 b 289 503 469 683 361 608 l 286 503 l 279 667 l 226 667 z m 436 794 l 636 1004 l 589 1047 l 403 826 z "},"ŗ":{"ha":833,"x_min":0,"x_max":0,"o":"m 226 0 l 289 0 l 289 417 b 593 625 381 568 482 625 b 719 601 646 625 671 618 l 736 656 b 603 683 694 678 647 683 b 289 503 469 683 361 608 l 286 503 l 279 667 l 226 667 z m 168 -304 b 369 -186 299 -296 369 -258 b 226 -85 369 -126 332 -100 l 208 -125 b 315 -190 275 -131 315 -147 b 158 -262 315 -231 279 -254 z "},"ř":{"ha":833,"x_min":0,"x_max":0,"o":"m 226 0 l 289 0 l 289 417 b 593 625 381 568 482 625 b 719 601 646 625 671 618 l 736 656 b 603 683 694 678 647 683 b 289 503 469 683 361 608 l 286 503 l 279 667 l 226 667 z m 450 796 l 508 796 l 671 996 l 640 1024 l 482 850 l 476 850 l 318 1024 l 288 996 z "},"ṙ":{"ha":833,"x_min":0,"x_max":0,"o":"m 226 0 l 289 0 l 289 417 b 593 625 381 568 482 625 b 719 601 646 625 671 618 l 736 656 b 603 683 694 678 647 683 b 289 503 469 683 361 608 l 286 503 l 279 667 l 226 667 z m 479 829 b 544 896 515 829 544 854 b 479 963 544 936 515 963 b 414 896 443 963 414 936 b 479 829 414 854 443 829 z "},"ṛ":{"ha":833,"x_min":0,"x_max":0,"o":"m 226 0 l 289 0 l 289 417 b 593 625 381 568 482 625 b 719 601 646 625 671 618 l 736 656 b 603 683 694 678 647 683 b 289 503 469 683 361 608 l 286 503 l 279 667 l 226 667 z m 275 -274 b 340 -207 311 -274 340 -249 b 275 -140 340 -167 311 -140 b 210 -207 239 -140 210 -167 b 275 -274 210 -249 239 -274 z "},"ṝ":{"ha":833,"x_min":0,"x_max":0,"o":"m 226 0 l 289 0 l 289 417 b 593 625 381 568 482 625 b 719 601 646 625 671 618 l 736 656 b 603 683 694 678 647 683 b 289 503 469 683 361 608 l 286 503 l 279 667 l 226 667 z m 308 842 l 650 842 l 650 892 l 308 892 z m 275 -274 b 340 -207 311 -274 340 -249 b 275 -140 340 -167 311 -140 b 210 -207 239 -140 210 -167 b 275 -274 210 -249 239 -274 z "},"ṟ":{"ha":833,"x_min":0,"x_max":0,"o":"m 226 0 l 289 0 l 289 417 b 593 625 381 568 482 625 b 719 601 646 625 671 618 l 736 656 b 603 683 694 678 647 683 b 289 503 469 683 361 608 l 286 503 l 279 667 l 226 667 z m 104 -222 l 446 -222 l 446 -172 l 104 -172 z "},"ś":{"ha":833,"x_min":0,"x_max":0,"o":"m 443 -17 b 718 171 618 -17 718 71 b 436 372 718 271 667 324 b 217 510 286 404 217 439 b 410 631 217 572 264 631 b 636 557 500 631 576 601 l 669 601 b 414 683 606 649 503 683 b 153 506 235 683 153 603 b 419 319 153 408 250 353 b 654 168 631 276 654 228 b 449 36 654 97 585 36 b 146 133 308 36 221 76 l 114 89 b 443 -17 193 33 306 -17 z m 371 794 l 571 1004 l 524 1047 l 338 826 z "},"ŝ":{"ha":833,"x_min":0,"x_max":0,"o":"m 443 -17 b 718 171 618 -17 718 71 b 436 372 718 271 667 324 b 217 510 286 404 217 439 b 410 631 217 572 264 631 b 636 557 500 631 576 601 l 669 601 b 414 683 606 649 503 683 b 153 506 235 683 153 603 b 419 319 153 408 250 353 b 654 168 631 276 654 228 b 449 36 654 97 585 36 b 146 133 308 36 221 76 l 114 89 b 443 -17 193 33 306 -17 z m 253 794 l 411 969 l 417 969 l 575 794 l 606 824 l 443 1024 l 385 1024 l 222 824 z "},"š":{"ha":833,"x_min":0,"x_max":0,"o":"m 443 -17 b 718 171 618 -17 718 71 b 436 372 718 271 667 324 b 217 510 286 404 217 439 b 410 631 217 572 264 631 b 636 557 500 631 576 601 l 669 601 b 414 683 606 649 503 683 b 153 506 235 683 153 603 b 419 319 153 408 250 353 b 654 168 631 276 654 228 b 449 36 654 97 585 36 b 146 133 308 36 221 76 l 114 89 b 443 -17 193 33 306 -17 z m 385 796 l 443 796 l 606 996 l 575 1024 l 417 850 l 411 850 l 253 1024 l 222 996 z "},"ş":{"ha":833,"x_min":0,"x_max":0,"o":"m 331 -304 b 532 -186 461 -296 532 -258 b 433 -90 532 -131 493 -106 l 457 -17 b 718 171 624 -12 718 74 b 436 372 718 271 667 324 b 217 510 286 404 217 439 b 410 631 217 572 264 631 b 636 557 500 631 576 601 l 669 601 b 414 683 606 649 503 683 b 153 506 235 683 153 603 b 419 319 153 408 250 353 b 654 168 631 276 654 228 b 449 36 654 97 585 36 b 146 133 308 36 221 76 l 114 89 b 407 -15 186 39 286 -8 l 369 -118 b 478 -189 446 -129 478 -149 b 321 -262 478 -231 442 -254 z "},"ș":{"ha":833,"x_min":0,"x_max":0,"o":"m 443 -17 b 718 171 618 -17 718 71 b 436 372 718 271 667 324 b 217 510 286 404 217 439 b 410 631 217 572 264 631 b 636 557 500 631 576 601 l 669 601 b 414 683 606 649 503 683 b 153 506 235 683 153 603 b 419 319 153 408 250 353 b 654 168 631 276 654 228 b 449 36 654 97 585 36 b 146 133 308 36 221 76 l 114 89 b 443 -17 193 33 306 -17 z m 324 -304 b 525 -186 454 -296 525 -258 b 382 -85 525 -126 488 -100 l 364 -125 b 471 -190 431 -131 471 -147 b 314 -262 471 -231 435 -254 z "},"ṡ":{"ha":833,"x_min":0,"x_max":0,"o":"m 443 -17 b 718 171 618 -17 718 71 b 436 372 718 271 667 324 b 217 510 286 404 217 439 b 410 631 217 572 264 631 b 636 557 500 631 576 601 l 669 601 b 414 683 606 649 503 683 b 153 506 235 683 153 603 b 419 319 153 408 250 353 b 654 168 631 276 654 228 b 449 36 654 97 585 36 b 146 133 308 36 221 76 l 114 89 b 443 -17 193 33 306 -17 z m 414 829 b 479 896 450 829 479 854 b 414 963 479 936 450 963 b 349 896 378 963 349 936 b 414 829 349 854 378 829 z "},"ṣ":{"ha":833,"x_min":0,"x_max":0,"o":"m 443 -17 b 718 171 618 -17 718 71 b 436 372 718 271 667 324 b 217 510 286 404 217 439 b 410 631 217 572 264 631 b 636 557 500 631 576 601 l 669 601 b 414 683 606 649 503 683 b 153 506 235 683 153 603 b 419 319 153 408 250 353 b 654 168 631 276 654 228 b 449 36 654 97 585 36 b 146 133 308 36 221 76 l 114 89 b 443 -17 193 33 306 -17 z m 431 -274 b 496 -207 467 -274 496 -249 b 431 -140 496 -167 467 -140 b 365 -207 394 -140 365 -167 b 431 -274 365 -249 394 -274 z "},"ß":{"ha":833,"x_min":0,"x_max":0,"o":"m 560 -17 b 778 176 685 -17 778 67 b 461 524 778 408 461 364 b 610 826 461 635 610 683 b 403 1015 610 931 531 1015 b 144 740 251 1015 144 910 l 144 0 l 206 0 l 206 721 b 400 963 206 885 285 963 b 549 822 496 963 549 901 b 399 518 549 697 399 653 b 715 172 399 318 715 365 b 560 36 715 103 664 36 b 389 99 496 36 444 57 l 357 53 b 560 -17 413 10 481 -17 z "},"ſ":{"ha":833,"x_min":0,"x_max":0,"o":"m 361 0 l 419 0 l 419 753 b 614 963 419 878 474 963 b 778 928 676 963 715 956 l 797 975 b 610 1015 729 1007 669 1015 b 361 747 443 1015 361 915 l 361 667 l 160 661 l 160 614 l 361 614 z "},"ť":{"ha":833,"x_min":0,"x_max":0,"o":"m 551 -17 b 754 25 633 -17 693 0 l 738 72 b 560 38 683 50 629 38 b 374 244 411 38 374 115 l 374 614 l 729 614 l 729 667 l 374 667 l 374 888 l 322 888 l 314 667 l 111 661 l 111 614 l 313 614 l 313 250 b 551 -17 313 90 368 -17 z m 567 761 l 611 761 l 622 1031 l 622 1129 l 564 1129 z "},"ţ":{"ha":833,"x_min":0,"x_max":0,"o":"m 444 -304 b 646 -186 575 -296 646 -258 b 547 -90 646 -131 607 -106 l 571 -17 b 754 25 643 -14 699 1 l 738 72 b 560 38 683 50 629 38 b 374 244 411 38 374 115 l 374 614 l 729 614 l 729 667 l 374 667 l 374 888 l 322 888 l 314 667 l 111 661 l 111 614 l 313 614 l 313 250 b 521 -15 313 100 363 -4 l 483 -118 b 592 -189 560 -129 592 -149 b 435 -262 592 -231 556 -254 z "},"ț":{"ha":833,"x_min":0,"x_max":0,"o":"m 551 -17 b 754 25 633 -17 693 0 l 738 72 b 560 38 683 50 629 38 b 374 244 411 38 374 115 l 374 614 l 729 614 l 729 667 l 374 667 l 374 888 l 322 888 l 314 667 l 111 661 l 111 614 l 313 614 l 313 250 b 551 -17 313 90 368 -17 z m 429 -304 b 631 -186 560 -296 631 -258 b 488 -85 631 -126 593 -100 l 469 -125 b 576 -190 536 -131 576 -147 b 419 -262 576 -231 540 -254 z "},"ṭ":{"ha":833,"x_min":0,"x_max":0,"o":"m 551 -17 b 754 25 633 -17 693 0 l 738 72 b 560 38 683 50 629 38 b 374 244 411 38 374 115 l 374 614 l 729 614 l 729 667 l 374 667 l 374 888 l 322 888 l 314 667 l 111 661 l 111 614 l 313 614 l 313 250 b 551 -17 313 90 368 -17 z m 536 -274 b 601 -207 572 -274 601 -249 b 536 -140 601 -167 572 -140 b 471 -207 500 -140 471 -167 b 536 -274 471 -249 500 -274 z "},"ṯ":{"ha":833,"x_min":0,"x_max":0,"o":"m 551 -17 b 754 25 633 -17 693 0 l 738 72 b 560 38 683 50 629 38 b 374 244 411 38 374 115 l 374 614 l 729 614 l 729 667 l 374 667 l 374 888 l 322 888 l 314 667 l 111 661 l 111 614 l 313 614 l 313 250 b 551 -17 313 90 368 -17 z m 365 -222 l 707 -222 l 707 -172 l 365 -172 z "},"ẗ":{"ha":833,"x_min":0,"x_max":0,"o":"m 551 -17 b 754 25 633 -17 693 0 l 738 72 b 560 38 683 50 629 38 b 374 244 411 38 374 115 l 374 614 l 729 614 l 729 667 l 374 667 l 374 888 l 322 888 l 314 667 l 111 661 l 111 614 l 313 614 l 313 250 b 551 -17 313 90 368 -17 z m 239 1013 b 294 1071 271 1013 294 1039 b 239 1128 294 1103 271 1128 b 183 1071 207 1128 183 1103 b 239 1013 183 1039 207 1013 z m 486 1013 b 542 1071 518 1013 542 1039 b 486 1128 542 1103 518 1128 b 431 1071 454 1128 431 1103 b 486 1013 431 1039 454 1013 z "},"ŧ":{"ha":833,"x_min":0,"x_max":0,"o":"m 111 324 l 313 324 l 313 250 b 551 -17 313 90 368 -17 b 754 25 633 -17 693 0 l 738 72 b 560 38 683 50 629 38 b 374 244 411 38 374 115 l 374 324 l 701 324 l 701 376 l 374 376 l 374 614 l 729 614 l 729 667 l 374 667 l 374 888 l 322 888 l 314 667 l 111 661 l 111 614 l 313 614 l 313 376 l 111 369 z "},"ù":{"ha":833,"x_min":0,"x_max":0,"o":"m 360 -17 b 622 129 467 -17 550 44 l 628 129 l 635 0 l 686 0 l 686 667 l 625 667 l 625 190 b 369 39 533 86 464 39 b 182 260 238 39 182 111 l 182 667 l 121 667 l 121 251 b 360 -17 121 71 199 -17 z m 451 794 l 485 826 l 299 1047 l 251 1004 z "},"ú":{"ha":833,"x_min":0,"x_max":0,"o":"m 360 -17 b 622 129 467 -17 550 44 l 628 129 l 635 0 l 686 0 l 686 667 l 625 667 l 625 190 b 369 39 533 86 464 39 b 182 260 238 39 182 111 l 182 667 l 121 667 l 121 251 b 360 -17 121 71 199 -17 z m 365 794 l 565 1004 l 518 1047 l 332 826 z "},"û":{"ha":833,"x_min":0,"x_max":0,"o":"m 360 -17 b 622 129 467 -17 550 44 l 628 129 l 635 0 l 686 0 l 686 667 l 625 667 l 625 190 b 369 39 533 86 464 39 b 182 260 238 39 182 111 l 182 667 l 121 667 l 121 251 b 360 -17 121 71 199 -17 z m 247 794 l 406 969 l 411 969 l 569 794 l 600 824 l 438 1024 l 379 1024 l 217 824 z "},"ũ":{"ha":833,"x_min":0,"x_max":0,"o":"m 360 -17 b 622 129 467 -17 550 44 l 628 129 l 635 0 l 686 0 l 686 667 l 625 667 l 625 190 b 369 39 533 86 464 39 b 182 260 238 39 182 111 l 182 667 l 121 667 l 121 251 b 360 -17 121 71 199 -17 z m 514 804 b 636 979 603 804 631 893 l 589 982 b 515 853 585 913 564 853 b 304 986 438 853 408 986 b 181 811 214 986 186 899 l 228 808 b 303 938 232 881 253 938 b 514 804 379 938 408 804 z "},"ü":{"ha":833,"x_min":0,"x_max":0,"o":"m 360 -17 b 622 129 467 -17 550 44 l 628 129 l 635 0 l 686 0 l 686 667 l 625 667 l 625 190 b 369 39 533 86 464 39 b 182 260 238 39 182 111 l 182 667 l 121 667 l 121 251 b 360 -17 121 71 199 -17 z m 285 831 b 340 889 317 831 340 857 b 285 946 340 921 317 946 b 229 889 253 946 229 921 b 285 831 229 857 253 831 z m 532 831 b 588 889 564 831 588 857 b 532 946 588 921 564 946 b 476 889 500 946 476 921 b 532 831 476 857 500 831 z "},"ū":{"ha":833,"x_min":0,"x_max":0,"o":"m 360 -17 b 622 129 467 -17 550 44 l 628 129 l 635 0 l 686 0 l 686 667 l 625 667 l 625 190 b 369 39 533 86 464 39 b 182 260 238 39 182 111 l 182 667 l 121 667 l 121 251 b 360 -17 121 71 199 -17 z m 238 842 l 579 842 l 579 892 l 238 892 z "},"ŭ":{"ha":833,"x_min":0,"x_max":0,"o":"m 360 -17 b 622 129 467 -17 550 44 l 628 129 l 635 0 l 686 0 l 686 667 l 625 667 l 625 190 b 369 39 533 86 464 39 b 182 260 238 39 182 111 l 182 667 l 121 667 l 121 251 b 360 -17 121 71 199 -17 z m 408 792 b 615 997 551 792 604 906 l 569 1004 b 408 839 558 926 508 839 b 247 1004 308 839 258 926 l 201 997 b 408 792 213 906 265 792 z "},"ů":{"ha":833,"x_min":0,"x_max":0,"o":"m 360 -17 b 622 129 467 -17 550 44 l 628 129 l 635 0 l 686 0 l 686 667 l 625 667 l 625 190 b 369 39 533 86 464 39 b 182 260 238 39 182 111 l 182 667 l 121 667 l 121 251 b 360 -17 121 71 199 -17 z m 408 792 b 543 918 489 792 543 846 b 408 1046 543 992 489 1046 b 274 918 328 1046 274 992 b 408 792 274 846 328 792 z m 408 828 b 318 918 358 828 318 868 b 408 1010 318 969 358 1010 b 499 918 458 1010 499 969 b 408 828 499 868 458 828 z "},"ű":{"ha":833,"x_min":0,"x_max":0,"o":"m 360 -17 b 622 129 467 -17 550 44 l 628 129 l 635 0 l 686 0 l 686 667 l 625 667 l 625 190 b 369 39 533 86 464 39 b 182 260 238 39 182 111 l 182 667 l 121 667 l 121 251 b 360 -17 121 71 199 -17 z m 326 790 l 457 1015 l 408 1042 l 289 808 z m 513 790 l 643 1015 l 594 1042 l 475 808 z "},"ǔ":{"ha":833,"x_min":0,"x_max":0,"o":"m 360 -17 b 622 129 467 -17 550 44 l 628 129 l 635 0 l 686 0 l 686 667 l 625 667 l 625 190 b 369 39 533 86 464 39 b 182 260 238 39 182 111 l 182 667 l 121 667 l 121 251 b 360 -17 121 71 199 -17 z m 379 796 l 438 796 l 600 996 l 569 1024 l 411 850 l 406 850 l 247 1024 l 217 996 z "},"ų":{"ha":833,"x_min":0,"x_max":0,"o":"m 628 -311 b 742 -261 681 -311 713 -290 l 714 -229 b 636 -262 696 -247 671 -262 b 549 -179 592 -262 549 -236 b 686 -10 549 -121 588 -62 l 686 667 l 625 667 l 625 190 b 369 39 533 86 464 39 b 182 260 238 39 182 111 l 182 667 l 121 667 l 121 251 b 360 -17 121 71 199 -17 b 622 129 467 -17 550 44 l 628 129 l 635 1 b 496 -187 550 -50 496 -111 b 628 -311 496 -272 551 -311 z "},"ǖ":{"ha":833,"x_min":0,"x_max":0,"o":"m 360 -17 b 622 129 467 -17 550 44 l 628 129 l 635 0 l 686 0 l 686 667 l 625 667 l 625 190 b 369 39 533 86 464 39 b 182 260 238 39 182 111 l 182 667 l 121 667 l 121 251 b 360 -17 121 71 199 -17 z m 285 831 b 335 881 313 831 335 853 b 285 929 335 908 313 929 b 236 881 257 929 236 908 b 285 831 236 853 257 831 z m 532 831 b 581 881 560 831 581 853 b 532 929 581 908 560 929 b 482 881 504 929 482 908 b 532 831 482 853 504 831 z m 235 1038 l 579 1038 l 579 1083 l 235 1083 z "},"ǘ":{"ha":833,"x_min":0,"x_max":0,"o":"m 360 -17 b 622 129 467 -17 550 44 l 628 129 l 635 0 l 686 0 l 686 667 l 625 667 l 625 190 b 369 39 533 86 464 39 b 182 260 238 39 182 111 l 182 667 l 121 667 l 121 251 b 360 -17 121 71 199 -17 z m 285 831 b 335 881 313 831 335 853 b 285 929 335 908 313 929 b 236 881 257 929 236 908 b 285 831 236 853 257 831 z m 532 831 b 581 881 560 831 581 853 b 532 929 581 908 560 929 b 482 881 504 929 482 908 b 532 831 482 853 504 831 z m 388 972 l 517 1108 l 474 1142 l 356 997 z "},"ǚ":{"ha":833,"x_min":0,"x_max":0,"o":"m 360 -17 b 622 129 467 -17 550 44 l 628 129 l 635 0 l 686 0 l 686 667 l 625 667 l 625 190 b 369 39 533 86 464 39 b 182 260 238 39 182 111 l 182 667 l 121 667 l 121 251 b 360 -17 121 71 199 -17 z m 285 831 b 335 881 313 831 335 853 b 285 929 335 908 313 929 b 236 881 257 929 236 908 b 285 831 236 853 257 831 z m 532 831 b 581 881 560 831 581 853 b 532 929 581 908 560 929 b 482 881 504 929 482 908 b 532 831 482 853 504 831 z m 382 986 l 435 986 l 568 1114 l 540 1140 l 411 1032 l 406 1032 l 276 1140 l 249 1114 z "},"ǜ":{"ha":833,"x_min":0,"x_max":0,"o":"m 360 -17 b 622 129 467 -17 550 44 l 628 129 l 635 0 l 686 0 l 686 667 l 625 667 l 625 190 b 369 39 533 86 464 39 b 182 260 238 39 182 111 l 182 667 l 121 667 l 121 251 b 360 -17 121 71 199 -17 z m 285 831 b 335 881 313 831 335 853 b 285 929 335 908 313 929 b 236 881 257 929 236 908 b 285 831 236 853 257 831 z m 532 831 b 581 881 560 831 581 853 b 532 929 581 908 560 929 b 482 881 504 929 482 908 b 532 831 482 853 504 831 z m 429 972 l 461 997 l 343 1142 l 300 1108 z "},"ụ":{"ha":833,"x_min":0,"x_max":0,"o":"m 360 -17 b 622 129 467 -17 550 44 l 628 129 l 635 0 l 686 0 l 686 667 l 625 667 l 625 190 b 369 39 533 86 464 39 b 182 260 238 39 182 111 l 182 667 l 121 667 l 121 251 b 360 -17 121 71 199 -17 z m 419 -274 b 485 -207 456 -274 485 -249 b 419 -140 485 -167 456 -140 b 354 -207 383 -140 354 -167 b 419 -274 354 -249 383 -274 z "},"ủ":{"ha":833,"x_min":0,"x_max":0,"o":"m 360 -17 b 622 129 467 -17 550 44 l 628 129 l 635 0 l 686 0 l 686 667 l 625 667 l 625 190 b 369 39 533 86 464 39 b 182 260 238 39 182 111 l 182 667 l 121 667 l 121 251 b 360 -17 121 71 199 -17 z m 374 799 b 506 921 440 817 506 849 b 336 1029 506 994 429 1026 l 332 982 b 450 914 408 979 450 957 b 363 838 450 874 413 853 z "},"ư":{"ha":833,"x_min":0,"x_max":0,"o":"m 360 -17 b 622 129 467 -17 550 44 l 628 129 l 635 0 l 686 0 l 686 636 b 810 808 743 657 810 700 b 783 907 810 842 801 875 l 731 879 b 750 804 744 856 750 828 b 633 667 750 721 704 681 l 625 667 l 625 190 b 369 39 533 86 464 39 b 182 260 238 39 182 111 l 182 667 l 121 667 l 121 251 b 360 -17 121 71 199 -17 z "},"ứ":{"ha":833,"x_min":0,"x_max":0,"o":"m 360 -17 b 622 129 467 -17 550 44 l 628 129 l 635 0 l 686 0 l 686 636 b 810 808 743 657 810 700 b 783 907 810 842 801 875 l 731 879 b 750 804 744 856 750 828 b 633 667 750 721 704 681 l 625 667 l 625 190 b 369 39 533 86 464 39 b 182 260 238 39 182 111 l 182 667 l 121 667 l 121 251 b 360 -17 121 71 199 -17 z m 365 794 l 565 1004 l 518 1047 l 332 826 z "},"ừ":{"ha":833,"x_min":0,"x_max":0,"o":"m 360 -17 b 622 129 467 -17 550 44 l 628 129 l 635 0 l 686 0 l 686 636 b 810 808 743 657 810 700 b 783 907 810 842 801 875 l 731 879 b 750 804 744 856 750 828 b 633 667 750 721 704 681 l 625 667 l 625 190 b 369 39 533 86 464 39 b 182 260 238 39 182 111 l 182 667 l 121 667 l 121 251 b 360 -17 121 71 199 -17 z m 451 794 l 485 826 l 299 1047 l 251 1004 z "},"ử":{"ha":833,"x_min":0,"x_max":0,"o":"m 360 -17 b 622 129 467 -17 550 44 l 628 129 l 635 0 l 686 0 l 686 636 b 810 808 743 657 810 700 b 783 907 810 842 801 875 l 731 879 b 750 804 744 856 750 828 b 633 667 750 721 704 681 l 625 667 l 625 190 b 369 39 533 86 464 39 b 182 260 238 39 182 111 l 182 667 l 121 667 l 121 251 b 360 -17 121 71 199 -17 z m 374 799 b 506 921 440 817 506 849 b 336 1029 506 994 429 1026 l 332 982 b 450 914 408 979 450 957 b 363 838 450 874 413 853 z "},"ữ":{"ha":833,"x_min":0,"x_max":0,"o":"m 360 -17 b 622 129 467 -17 550 44 l 628 129 l 635 0 l 686 0 l 686 636 b 810 808 743 657 810 700 b 783 907 810 842 801 875 l 731 879 b 750 804 744 856 750 828 b 633 667 750 721 704 681 l 625 667 l 625 190 b 369 39 533 86 464 39 b 182 260 238 39 182 111 l 182 667 l 121 667 l 121 251 b 360 -17 121 71 199 -17 z m 511 804 b 633 979 600 804 628 893 l 586 982 b 513 853 582 913 561 853 b 301 986 435 853 406 986 b 178 811 211 986 183 899 l 225 808 b 300 938 229 881 250 938 b 511 804 376 938 406 804 z "},"ự":{"ha":833,"x_min":0,"x_max":0,"o":"m 360 -17 b 622 129 467 -17 550 44 l 628 129 l 635 0 l 686 0 l 686 636 b 810 808 743 657 810 700 b 783 907 810 842 801 875 l 731 879 b 750 804 744 856 750 828 b 633 667 750 721 704 681 l 625 667 l 625 190 b 369 39 533 86 464 39 b 182 260 238 39 182 111 l 182 667 l 121 667 l 121 251 b 360 -17 121 71 199 -17 z m 419 -274 b 485 -207 456 -274 485 -249 b 419 -140 485 -167 456 -140 b 354 -207 383 -140 354 -167 b 419 -274 354 -249 383 -274 z "},"ṿ":{"ha":833,"x_min":0,"x_max":0,"o":"m 386 0 l 451 0 l 747 667 l 688 667 l 503 249 b 422 57 474 182 449 118 l 417 57 b 333 249 392 118 364 182 l 150 667 l 86 667 z m 417 -274 b 482 -207 453 -274 482 -249 b 417 -140 482 -167 453 -140 b 351 -207 381 -140 351 -167 b 417 -274 351 -249 381 -274 z "},"ẁ":{"ha":833,"x_min":0,"x_max":0,"o":"m 186 0 l 269 0 l 371 401 b 414 594 388 461 400 525 l 419 594 b 463 403 436 525 447 463 l 567 0 l 650 0 l 818 667 l 757 667 l 653 235 b 611 57 639 174 626 117 l 606 57 b 561 235 593 117 576 174 l 456 656 l 382 656 l 275 235 b 232 57 260 174 244 117 l 226 57 b 186 235 215 117 201 174 l 81 667 l 15 667 z m 460 794 l 493 826 l 307 1047 l 260 1004 z "},"ẃ":{"ha":833,"x_min":0,"x_max":0,"o":"m 186 0 l 269 0 l 371 401 b 414 594 388 461 400 525 l 419 594 b 463 403 436 525 447 463 l 567 0 l 650 0 l 818 667 l 757 667 l 653 235 b 611 57 639 174 626 117 l 606 57 b 561 235 593 117 576 174 l 456 656 l 382 656 l 275 235 b 232 57 260 174 244 117 l 226 57 b 186 235 215 117 201 174 l 81 667 l 15 667 z m 374 794 l 574 1004 l 526 1047 l 340 826 z "},"ŵ":{"ha":833,"x_min":0,"x_max":0,"o":"m 186 0 l 269 0 l 371 401 b 414 594 388 461 400 525 l 419 594 b 463 403 436 525 447 463 l 567 0 l 650 0 l 818 667 l 757 667 l 653 235 b 611 57 639 174 626 117 l 606 57 b 561 235 593 117 576 174 l 456 656 l 382 656 l 275 235 b 232 57 260 174 244 117 l 226 57 b 186 235 215 117 201 174 l 81 667 l 15 667 z m 256 794 l 414 969 l 419 969 l 578 794 l 608 824 l 446 1024 l 388 1024 l 225 824 z "},"ẅ":{"ha":833,"x_min":0,"x_max":0,"o":"m 186 0 l 269 0 l 371 401 b 414 594 388 461 400 525 l 419 594 b 463 403 436 525 447 463 l 567 0 l 650 0 l 818 667 l 757 667 l 653 235 b 611 57 639 174 626 117 l 606 57 b 561 235 593 117 576 174 l 456 656 l 382 656 l 275 235 b 232 57 260 174 244 117 l 226 57 b 186 235 215 117 201 174 l 81 667 l 15 667 z m 293 831 b 349 889 325 831 349 857 b 293 946 349 921 325 946 b 238 889 261 946 238 921 b 293 831 238 857 261 831 z m 540 831 b 596 889 572 831 596 857 b 540 946 596 921 572 946 b 485 889 508 946 485 921 b 540 831 485 857 508 831 z "},"ỳ":{"ha":833,"x_min":0,"x_max":0,"o":"m 174 -304 b 436 -83 314 -304 397 -196 l 750 667 l 690 667 l 517 247 b 439 60 493 190 465 119 l 433 60 b 342 247 401 119 368 192 l 147 667 l 83 667 l 407 -12 l 383 -71 b 175 -247 343 -172 278 -247 b 110 -236 151 -247 126 -242 l 93 -290 b 174 -304 113 -299 146 -304 z m 461 794 l 494 826 l 308 1047 l 261 1004 z "},"ý":{"ha":833,"x_min":0,"x_max":0,"o":"m 174 -304 b 436 -83 314 -304 397 -196 l 750 667 l 690 667 l 517 247 b 439 60 493 190 465 119 l 433 60 b 342 247 401 119 368 192 l 147 667 l 83 667 l 407 -12 l 383 -71 b 175 -247 343 -172 278 -247 b 110 -236 151 -247 126 -242 l 93 -290 b 174 -304 113 -299 146 -304 z m 375 794 l 575 1004 l 528 1047 l 342 826 z "},"ŷ":{"ha":833,"x_min":0,"x_max":0,"o":"m 174 -304 b 436 -83 314 -304 397 -196 l 750 667 l 690 667 l 517 247 b 439 60 493 190 465 119 l 433 60 b 342 247 401 119 368 192 l 147 667 l 83 667 l 407 -12 l 383 -71 b 175 -247 343 -172 278 -247 b 110 -236 151 -247 126 -242 l 93 -290 b 174 -304 113 -299 146 -304 z m 257 794 l 415 969 l 421 969 l 579 794 l 610 824 l 447 1024 l 389 1024 l 226 824 z "},"ÿ":{"ha":833,"x_min":0,"x_max":0,"o":"m 174 -304 b 436 -83 314 -304 397 -196 l 750 667 l 690 667 l 517 247 b 439 60 493 190 465 119 l 433 60 b 342 247 401 119 368 192 l 147 667 l 83 667 l 407 -12 l 383 -71 b 175 -247 343 -172 278 -247 b 110 -236 151 -247 126 -242 l 93 -290 b 174 -304 113 -299 146 -304 z m 294 831 b 350 889 326 831 350 857 b 294 946 350 921 326 946 b 239 889 263 946 239 921 b 294 831 239 857 263 831 z m 542 831 b 597 889 574 831 597 857 b 542 946 597 921 574 946 b 486 889 510 946 486 921 b 542 831 486 857 510 831 z "},"ẏ":{"ha":833,"x_min":0,"x_max":0,"o":"m 174 -304 b 436 -83 314 -304 397 -196 l 750 667 l 690 667 l 517 247 b 439 60 493 190 465 119 l 433 60 b 342 247 401 119 368 192 l 147 667 l 83 667 l 407 -12 l 383 -71 b 175 -247 343 -172 278 -247 b 110 -236 151 -247 126 -242 l 93 -290 b 174 -304 113 -299 146 -304 z m 418 829 b 483 896 454 829 483 854 b 418 963 483 936 454 963 b 353 896 382 963 353 936 b 418 829 353 854 382 829 z "},"ỵ":{"ha":833,"x_min":0,"x_max":0,"o":"m 174 -304 b 436 -83 314 -304 397 -196 l 750 667 l 690 667 l 517 247 b 439 60 493 190 465 119 l 433 60 b 342 247 401 119 368 192 l 147 667 l 83 667 l 407 -12 l 383 -71 b 175 -247 343 -172 278 -247 b 110 -236 151 -247 126 -242 l 93 -290 b 174 -304 113 -299 146 -304 z m 614 -272 b 679 -206 650 -272 679 -247 b 614 -139 679 -165 650 -139 b 549 -206 578 -139 549 -165 b 614 -272 549 -247 578 -272 z "},"ỷ":{"ha":833,"x_min":0,"x_max":0,"o":"m 174 -304 b 436 -83 314 -304 397 -196 l 750 667 l 690 667 l 517 247 b 439 60 493 190 465 119 l 433 60 b 342 247 401 119 368 192 l 147 667 l 83 667 l 407 -12 l 383 -71 b 175 -247 343 -172 278 -247 b 110 -236 151 -247 126 -242 l 93 -290 b 174 -304 113 -299 146 -304 z m 383 799 b 515 921 450 817 515 849 b 346 1029 515 994 439 1026 l 342 982 b 460 914 418 979 460 957 b 372 838 460 874 422 853 z "},"ỹ":{"ha":833,"x_min":0,"x_max":0,"o":"m 174 -304 b 436 -83 314 -304 397 -196 l 750 667 l 690 667 l 517 247 b 439 60 493 190 465 119 l 433 60 b 342 247 401 119 368 192 l 147 667 l 83 667 l 407 -12 l 383 -71 b 175 -247 343 -172 278 -247 b 110 -236 151 -247 126 -242 l 93 -290 b 174 -304 113 -299 146 -304 z m 524 804 b 646 979 613 804 640 893 l 599 982 b 525 853 594 913 574 853 b 314 986 447 853 418 986 b 190 811 224 986 196 899 l 238 808 b 313 938 242 881 263 938 b 524 804 389 938 418 804 z "},"ź":{"ha":833,"x_min":0,"x_max":0,"o":"m 100 0 l 731 0 l 731 54 l 193 54 l 715 635 l 715 667 l 156 667 l 156 614 l 622 614 l 100 33 z m 400 794 l 600 1004 l 553 1047 l 367 826 z "},"ž":{"ha":833,"x_min":0,"x_max":0,"o":"m 100 0 l 731 0 l 731 54 l 193 54 l 715 635 l 715 667 l 156 667 l 156 614 l 622 614 l 100 33 z m 414 796 l 472 796 l 635 996 l 604 1024 l 446 850 l 440 850 l 282 1024 l 251 996 z "},"ż":{"ha":833,"x_min":0,"x_max":0,"o":"m 100 0 l 731 0 l 731 54 l 193 54 l 715 635 l 715 667 l 156 667 l 156 614 l 622 614 l 100 33 z m 443 829 b 508 896 479 829 508 854 b 443 963 508 936 479 963 b 378 896 407 963 378 936 b 443 829 378 854 407 829 z "},"ẑ":{"ha":833,"x_min":0,"x_max":0,"o":"m 100 0 l 731 0 l 731 54 l 193 54 l 715 635 l 715 667 l 156 667 l 156 614 l 622 614 l 100 33 z m 282 794 l 440 969 l 446 969 l 604 794 l 635 824 l 472 1024 l 414 1024 l 251 824 z "},"ẓ":{"ha":833,"x_min":0,"x_max":0,"o":"m 100 0 l 731 0 l 731 54 l 193 54 l 715 635 l 715 667 l 156 667 l 156 614 l 622 614 l 100 33 z m 438 -274 b 503 -207 474 -274 503 -249 b 438 -140 503 -167 474 -140 b 372 -207 401 -140 372 -167 b 438 -274 372 -249 401 -274 z "},"ẕ":{"ha":833,"x_min":0,"x_max":0,"o":"m 100 0 l 731 0 l 731 54 l 193 54 l 715 635 l 715 667 l 156 667 l 156 614 l 622 614 l 100 33 z m 267 -222 l 608 -222 l 608 -172 l 267 -172 z "},"ð":{"ha":833,"x_min":0,"x_max":0,"o":"m 415 -17 b 732 350 607 -17 732 128 b 531 849 732 579 653 735 l 701 938 l 678 978 l 492 881 b 285 1006 431 931 360 971 l 254 964 b 439 854 322 931 385 894 l 247 754 l 271 713 l 479 821 b 658 489 571 740 635 638 b 417 614 601 561 511 614 b 93 304 221 614 93 488 b 415 -17 93 104 249 -17 z m 417 38 b 156 304 272 38 156 147 b 418 561 156 442 240 561 b 667 421 499 561 593 524 b 669 349 668 397 669 374 b 417 38 669 175 596 38 z "},"þ":{"ha":833,"x_min":0,"x_max":0,"o":"m 146 -301 l 208 -301 l 208 -58 l 204 78 l 207 78 b 428 -17 276 19 360 -17 b 740 343 592 -17 740 117 b 456 683 740 550 643 683 b 207 567 368 683 278 636 l 204 567 l 208 697 l 208 999 l 146 999 z m 425 38 b 208 136 371 38 286 65 l 208 507 b 446 629 292 590 375 629 b 675 343 608 629 675 507 b 425 38 675 163 568 38 z "},"ŋ":{"ha":833,"x_min":0,"x_max":0,"o":"m 553 -251 b 714 -44 664 -251 714 -183 l 714 415 b 474 683 714 596 636 683 b 211 539 367 683 288 621 l 206 539 l 199 667 l 146 667 l 146 0 l 208 0 l 208 478 b 464 628 304 579 369 628 b 651 407 596 628 651 557 l 651 -40 b 551 -197 651 -132 635 -197 b 469 -182 519 -197 489 -189 l 456 -232 b 553 -251 478 -242 518 -251 z "},"ȷ":{"ha":833,"x_min":0,"x_max":0,"o":"m 269 -318 b 531 -51 468 -318 531 -215 l 531 667 l 135 667 l 135 614 l 469 614 l 469 -60 b 274 -265 469 -183 429 -265 b 113 -225 217 -265 157 -247 l 88 -274 b 269 -318 138 -299 207 -318 z "},"ĳ":{"ha":833,"x_min":0,"x_max":0,"o":"m 183 0 l 246 0 l 246 667 l 183 667 z m 215 828 b 279 893 251 828 279 853 b 215 957 279 932 251 957 b 153 893 181 957 153 932 b 215 828 153 853 181 828 z m 526 -318 b 676 -124 629 -318 676 -254 l 676 667 l 614 667 l 614 -119 b 525 -265 614 -204 600 -265 b 456 -251 499 -265 472 -257 l 440 -301 b 526 -318 461 -310 494 -318 z m 646 828 b 710 893 682 828 710 853 b 646 957 710 932 682 957 b 583 893 611 957 583 932 b 646 828 583 853 611 828 z "},"ɐ":{"ha":833,"x_min":0,"x_max":0,"o":"m 401 -17 b 689 82 521 -17 636 44 l 661 128 b 408 38 607 89 510 38 b 210 250 256 38 211 139 b 722 501 572 281 722 351 b 489 683 722 626 608 683 b 211 567 390 683 288 629 l 207 567 l 201 667 l 149 667 l 149 240 b 401 -17 149 99 224 -17 z m 210 296 l 210 510 b 479 631 304 589 393 631 b 658 497 569 631 658 593 b 210 296 658 390 550 326 z "},"ɒ":{"ha":833,"x_min":0,"x_max":0,"o":"m 431 -17 b 740 343 596 -17 740 117 b 457 683 740 550 646 683 b 208 568 363 683 267 629 l 206 568 l 199 667 l 146 667 l 146 0 l 197 0 l 204 75 l 207 75 b 431 -17 275 19 361 -17 z m 426 38 b 208 136 371 38 288 64 l 208 507 b 447 629 282 586 369 629 b 675 342 610 629 675 507 b 426 38 675 163 571 38 z "},"ɓ":{"ha":833,"x_min":0,"x_max":0,"o":"m 431 -17 b 740 342 594 -17 740 117 b 457 681 740 547 646 681 b 207 564 371 681 275 633 l 201 564 l 208 772 b 367 963 208 885 256 963 b 461 940 396 963 429 957 l 481 990 b 365 1015 446 1006 401 1015 b 146 775 228 1015 146 926 l 146 0 l 197 0 l 204 75 l 207 75 b 431 -17 274 19 363 -17 z m 428 38 b 208 136 372 38 286 65 l 208 504 b 447 626 292 588 378 626 b 675 342 611 626 675 504 b 428 38 675 163 571 38 z "},"ɔ":{"ha":833,"x_min":0,"x_max":0,"o":"m 360 -17 b 713 332 560 -17 713 111 b 368 683 713 556 557 683 b 108 582 243 683 163 635 l 143 540 b 367 629 201 593 272 629 b 647 332 533 629 647 508 b 357 38 647 157 531 38 b 124 133 264 38 183 78 l 92 90 b 360 -17 160 26 253 -17 z "},"ɕ":{"ha":833,"x_min":0,"x_max":0,"o":"m 496 36 b 363 61 447 36 403 44 b 582 193 432 143 517 193 b 676 129 650 193 676 164 b 496 36 676 74 615 36 z m 250 -146 b 328 15 267 -86 294 -32 b 496 -17 378 -6 435 -17 b 731 132 656 -17 731 49 b 585 243 731 199 681 243 b 313 86 494 243 394 185 b 185 332 233 138 185 224 b 474 631 185 508 311 631 b 688 540 563 631 631 597 l 724 582 b 472 683 667 640 589 683 b 121 332 285 683 121 556 b 279 40 121 197 183 97 b 196 -125 246 -8 218 -64 z "},"ɖ":{"ha":833,"x_min":0,"x_max":0,"o":"m 760 -249 b 832 -232 786 -249 817 -240 l 818 -182 b 761 -194 804 -187 783 -194 b 686 -58 703 -194 686 -140 l 686 999 l 625 999 l 625 724 l 628 589 l 625 589 b 407 683 558 649 490 683 b 93 332 242 683 93 547 b 388 -17 93 107 213 -17 b 625 97 481 -17 568 36 l 628 97 l 625 -69 b 760 -249 625 -193 668 -249 z m 396 38 b 158 332 247 38 158 156 b 410 629 158 500 271 629 b 625 531 479 629 550 603 l 625 160 b 396 38 551 82 474 38 z "},"ɗ":{"ha":833,"x_min":0,"x_max":0,"o":"m 386 -17 b 624 99 481 -17 565 38 l 628 99 l 633 0 l 686 0 l 686 821 b 772 965 686 906 708 965 b 825 954 793 965 811 960 l 839 1004 b 771 1018 821 1013 796 1018 b 625 831 679 1018 625 957 l 625 724 l 628 589 l 625 589 b 407 683 558 649 490 683 b 93 332 242 683 93 547 b 386 -17 93 107 213 -17 z m 396 38 b 158 332 247 38 158 156 b 410 629 158 500 269 629 b 625 531 479 629 549 603 l 625 160 b 396 38 551 82 474 38 z "},"ɘ":{"ha":833,"x_min":0,"x_max":0,"o":"m 407 631 b 663 376 535 631 646 538 l 151 376 b 407 631 161 549 271 631 z m 375 -17 b 726 332 567 -17 726 114 b 408 683 726 550 582 683 b 94 375 226 683 94 567 b 97 324 94 358 94 340 l 664 324 b 372 36 658 138 526 36 b 147 108 281 36 210 65 l 122 61 b 375 -17 183 22 257 -17 z "},"ɑ":{"ha":833,"x_min":0,"x_max":0,"o":"m 388 -17 b 625 99 481 -17 567 38 l 628 99 l 635 0 l 688 0 l 688 667 l 636 667 l 629 590 l 626 590 b 408 683 560 649 492 683 b 93 332 242 683 93 547 b 388 -17 93 107 213 -17 z m 396 38 b 158 332 247 38 158 156 b 411 629 158 500 271 629 b 625 531 481 629 550 603 l 625 160 b 396 38 551 82 474 38 z "},"ʙ":{"ha":833,"x_min":0,"x_max":0,"o":"m 165 0 l 478 0 b 746 190 642 0 746 61 b 597 353 746 289 672 335 l 597 357 b 715 503 664 378 715 418 b 471 667 715 617 622 667 l 165 667 z m 226 376 l 226 614 l 458 614 b 653 497 594 614 653 572 b 446 376 653 422 596 376 z m 226 53 l 226 324 l 454 324 b 682 193 601 324 682 278 b 464 53 682 100 610 53 z "},"ə":{"ha":833,"x_min":0,"x_max":0,"o":"m 418 -17 b 739 335 604 -17 739 113 b 404 683 739 553 606 683 b 151 606 286 683 213 644 l 176 558 b 400 631 239 601 310 631 b 675 358 558 631 665 535 l 111 358 b 107 307 108 342 107 324 b 418 -17 107 111 222 -17 z m 417 36 b 163 306 268 36 171 128 l 675 306 b 417 36 667 131 561 36 z "},"ɚ":{"ha":833,"x_min":0,"x_max":0,"o":"m 313 -17 b 589 326 481 -17 589 131 b 582 419 589 360 586 392 l 668 454 b 779 324 681 358 733 324 b 861 357 817 324 843 342 l 838 396 b 786 372 825 383 806 372 b 713 493 749 372 725 388 l 672 510 l 571 469 b 304 683 531 610 428 683 b 90 614 203 683 144 651 l 115 567 b 303 631 168 604 218 631 b 513 446 397 631 481 572 l 47 258 b 313 -17 63 106 151 -17 z m 313 36 b 106 231 207 36 131 100 l 522 396 b 528 319 526 372 528 347 b 313 36 528 157 444 36 z "},"ɛ":{"ha":833,"x_min":0,"x_max":0,"o":"m 443 -17 b 733 85 554 -17 650 8 l 703 128 b 449 36 626 58 544 36 b 207 185 301 36 207 89 b 467 324 207 278 301 324 l 549 324 l 549 376 l 486 376 b 244 506 325 376 244 425 b 449 631 244 590 324 631 b 685 551 554 631 617 600 l 715 593 b 447 683 647 646 567 683 b 182 511 293 683 182 625 b 301 357 182 439 231 389 l 301 351 b 143 181 217 329 143 279 b 443 -17 143 58 260 -17 z "},"ɜ":{"ha":833,"x_min":0,"x_max":0,"o":"m 390 -17 b 692 181 575 -17 692 58 b 535 351 692 279 619 329 l 535 357 b 654 511 607 389 654 438 b 389 683 654 625 542 683 b 117 592 268 683 186 646 l 149 549 b 386 631 217 600 279 631 b 590 506 513 631 590 590 b 353 376 590 426 513 376 l 283 376 l 283 324 l 371 324 b 628 183 535 324 628 278 b 386 36 628 89 533 36 b 131 128 292 36 208 57 l 99 86 b 390 -17 185 8 281 -17 z "},"ɞ":{"ha":833,"x_min":0,"x_max":0,"o":"m 460 -17 b 739 181 638 -17 739 58 b 586 351 739 279 661 332 l 586 357 b 701 511 658 383 701 442 b 453 683 701 625 597 683 b 94 325 260 683 94 557 b 460 -17 94 101 246 -17 z m 457 36 b 157 325 271 36 157 143 b 454 631 157 508 286 631 b 639 506 564 631 639 590 b 447 376 639 432 568 376 l 413 376 l 413 324 l 464 324 b 675 183 585 324 675 272 b 457 36 675 89 600 36 z "},"ɟ":{"ha":833,"x_min":0,"x_max":0,"o":"m 269 -318 b 531 -51 468 -318 531 -215 l 531 318 l 788 318 l 788 372 l 531 372 l 531 667 l 135 667 l 135 614 l 469 614 l 469 372 l 186 365 l 186 318 l 469 318 l 469 -60 b 274 -265 469 -183 429 -265 b 113 -225 217 -265 157 -247 l 88 -274 b 269 -318 138 -299 207 -318 z "},"ɠ":{"ha":833,"x_min":0,"x_max":0,"o":"m 397 -318 b 686 -58 575 -318 686 -217 l 686 657 b 774 801 686 740 708 801 b 825 790 794 801 811 796 l 839 840 b 772 854 821 849 797 854 b 625 665 679 854 625 792 l 628 589 l 625 589 b 407 683 564 646 492 683 b 93 342 242 683 93 553 b 388 0 93 122 213 0 b 625 114 482 0 568 51 l 628 114 l 625 -49 b 397 -267 624 -183 542 -267 b 174 -197 322 -267 243 -246 l 146 -246 b 397 -318 215 -290 301 -318 z m 396 54 b 158 342 247 54 158 169 b 410 629 158 504 269 629 b 625 531 479 629 550 603 l 625 176 b 396 54 551 97 474 54 z "},"ɡ":{"ha":833,"x_min":0,"x_max":0,"o":"m 397 -318 b 688 -56 576 -318 688 -215 l 688 667 l 636 667 l 629 590 l 626 590 b 408 683 564 646 492 683 b 93 342 242 683 93 553 b 388 0 93 122 213 0 b 624 114 481 0 565 51 l 628 114 l 626 -49 b 397 -267 625 -183 543 -267 b 172 -197 324 -267 243 -246 l 144 -246 b 397 -318 215 -292 303 -318 z m 396 54 b 157 342 247 54 157 169 b 411 629 157 504 271 629 b 625 531 481 629 550 603 l 625 176 b 396 54 551 97 474 54 z "},"ɢ":{"ha":833,"x_min":0,"x_max":0,"o":"m 472 -17 b 726 81 585 -17 671 26 l 726 336 l 449 336 l 449 285 l 669 285 l 669 107 b 476 36 624 65 556 36 b 185 336 311 36 185 150 b 482 631 185 518 318 631 b 686 540 576 631 640 586 l 722 582 b 479 683 671 632 596 683 b 121 336 281 683 121 550 b 472 -17 121 114 274 -17 z "},"ɣ":{"ha":833,"x_min":0,"x_max":0,"o":"m 418 -321 b 543 -179 503 -321 543 -262 b 460 46 543 -118 507 -54 l 747 667 l 685 667 l 504 263 b 421 89 474 197 454 151 l 415 89 b 333 263 383 151 364 197 l 153 667 l 86 667 l 376 46 b 294 -179 331 -54 294 -118 b 418 -321 294 -262 335 -321 z m 418 -271 b 353 -182 372 -271 353 -232 b 415 4 353 -133 382 -61 l 421 4 b 485 -182 456 -61 485 -128 b 418 -271 485 -232 465 -271 z "},"ɤ":{"ha":833,"x_min":0,"x_max":0,"o":"m 417 -17 b 663 207 571 -17 663 72 b 460 518 663 322 575 421 b 636 629 531 590 575 629 b 703 610 661 629 683 624 l 725 656 b 629 683 700 674 665 683 b 417 556 554 683 492 633 b 204 683 340 633 279 683 b 108 656 168 683 133 674 l 131 610 b 197 629 150 624 172 629 b 374 518 257 629 303 590 b 171 207 256 421 171 322 b 417 -17 171 72 263 -17 z m 417 38 b 233 207 303 38 233 110 b 417 485 233 308 310 396 b 600 207 524 396 600 308 b 417 38 600 110 531 38 z "},"ɥ":{"ha":833,"x_min":0,"x_max":0,"o":"m 625 -301 l 688 -301 l 688 667 l 625 667 l 625 189 b 369 39 529 88 464 39 b 182 260 238 39 182 111 l 182 667 l 119 667 l 119 251 b 360 -17 119 71 199 -17 b 629 132 467 -17 546 46 l 625 -42 z "},"ɦ":{"ha":833,"x_min":0,"x_max":0,"o":"m 146 0 l 208 0 l 208 475 b 464 625 304 576 369 625 b 651 404 596 625 651 554 l 651 0 l 714 0 l 714 413 b 474 681 714 593 636 681 b 207 532 368 681 286 618 l 201 532 l 208 772 b 367 963 210 885 256 963 b 461 940 396 963 429 957 l 481 990 b 365 1015 446 1006 401 1015 b 146 775 228 1015 146 926 z "},"ɧ":{"ha":833,"x_min":0,"x_max":0,"o":"m 551 -251 b 714 -44 664 -251 714 -183 l 714 413 b 474 681 714 593 636 681 b 207 532 368 681 286 618 l 201 532 l 208 772 b 367 963 210 885 256 963 b 461 940 396 963 428 956 l 481 990 b 365 1015 444 1006 401 1015 b 146 775 228 1015 146 926 l 146 0 l 208 0 l 208 475 b 464 625 304 576 369 625 b 651 404 596 625 651 554 l 651 -40 b 550 -197 651 -132 635 -197 b 468 -182 518 -197 488 -189 l 453 -232 b 551 -251 476 -242 517 -251 z "},"ʜ":{"ha":833,"x_min":0,"x_max":0,"o":"m 146 0 l 208 0 l 208 322 l 625 322 l 625 0 l 688 0 l 688 667 l 625 667 l 625 378 l 208 378 l 208 667 l 146 667 z "},"ɨ":{"ha":833,"x_min":0,"x_max":0,"o":"m 200 319 l 469 319 l 469 0 l 531 0 l 531 319 l 788 319 l 788 372 l 531 372 l 531 667 l 135 667 l 135 614 l 469 614 l 469 372 l 200 365 z m 485 829 b 550 896 521 829 550 854 b 485 963 550 936 521 963 b 419 896 449 963 419 936 b 485 829 419 854 449 829 z "},"ɪ":{"ha":833,"x_min":0,"x_max":0,"o":"m 125 0 l 708 0 l 708 54 l 446 54 l 446 614 l 708 614 l 708 667 l 125 667 l 125 614 l 385 614 l 385 54 l 125 54 z "},"ʝ":{"ha":833,"x_min":0,"x_max":0,"o":"m 585 -365 l 633 -340 b 508 -186 594 -275 553 -225 b 531 -60 524 -150 531 -107 l 531 667 l 135 667 l 135 614 l 469 614 l 469 -72 b 460 -149 469 -97 467 -124 b 251 -83 390 -103 318 -83 b 101 -193 154 -83 101 -129 b 276 -318 101 -258 163 -318 b 481 -235 374 -318 440 -287 b 585 -365 517 -268 551 -311 z m 278 -265 b 160 -196 204 -265 160 -236 b 251 -133 160 -161 188 -133 b 436 -197 310 -133 372 -150 b 278 -265 408 -236 360 -265 z m 485 829 b 550 896 521 829 550 854 b 485 963 550 936 521 963 b 419 896 449 963 419 936 b 485 829 419 854 449 829 z "},"ʞ":{"ha":833,"x_min":0,"x_max":0,"o":"m 600 -301 l 663 -301 l 663 667 l 600 667 l 600 478 l 403 307 l 160 667 l 93 667 l 361 271 l 49 0 l 129 0 l 594 403 l 600 403 z "},"ɫ":{"ha":833,"x_min":0,"x_max":0,"o":"m 575 -17 b 740 25 640 -17 683 -3 l 721 72 b 583 38 672 49 626 38 b 438 193 489 38 438 88 l 438 492 b 522 461 461 474 488 461 b 642 632 610 461 636 549 l 594 638 b 522 510 592 568 569 510 b 438 557 489 510 464 532 l 438 999 l 128 999 l 128 946 l 376 946 l 376 614 b 296 642 354 631 328 642 b 175 471 207 642 181 556 l 222 465 b 296 593 225 538 247 593 b 376 549 328 593 351 574 l 376 201 b 575 -17 376 50 449 -17 z "},"ɬ":{"ha":833,"x_min":0,"x_max":0,"o":"m 339 458 l 376 458 l 376 201 b 575 -17 376 50 449 -17 b 740 25 640 -17 683 -3 l 721 72 b 583 38 672 49 626 38 b 438 193 489 38 438 88 l 438 458 l 640 458 l 640 510 l 438 510 l 438 999 l 128 999 l 128 946 l 376 946 l 376 617 b 258 669 354 646 317 669 b 149 575 193 669 149 629 b 339 458 149 507 201 458 z m 325 510 b 206 571 235 510 206 538 b 265 619 206 599 225 619 b 376 522 338 619 376 571 l 376 510 z "},"ɭ":{"ha":833,"x_min":0,"x_max":0,"o":"m 574 -251 b 740 -210 640 -251 686 -231 l 721 -161 b 582 -197 667 -186 625 -197 b 438 -42 488 -197 438 -147 l 438 999 l 129 999 l 129 946 l 376 946 l 376 -33 b 574 -251 376 -185 447 -251 z "},"ɮ":{"ha":833,"x_min":0,"x_max":0,"o":"m 488 -318 b 769 -21 631 -318 769 -212 b 442 236 769 142 651 272 l 742 635 l 742 667 l 203 667 l 203 999 l 142 999 l 142 0 l 203 0 l 203 614 l 658 614 l 351 208 l 386 168 b 492 192 417 183 440 192 b 706 -25 626 192 706 110 b 486 -264 706 -168 606 -264 b 246 -171 365 -264 297 -221 l 210 -214 b 488 -318 265 -265 346 -318 z "},"ʟ":{"ha":833,"x_min":0,"x_max":0,"o":"m 228 0 l 735 0 l 735 54 l 289 54 l 289 667 l 228 667 z "},"ɯ":{"ha":833,"x_min":0,"x_max":0,"o":"m 731 667 l 669 667 l 669 164 b 526 39 626 81 588 39 b 432 190 463 39 432 90 l 432 667 l 374 667 l 374 164 b 232 39 329 81 292 39 b 136 190 167 39 136 90 l 136 667 l 75 667 l 75 183 b 219 -17 75 50 126 -17 b 383 101 294 -17 335 25 b 515 -17 401 22 443 -17 b 669 90 590 -17 631 25 l 672 90 l 679 0 l 731 0 z "},"ɰ":{"ha":833,"x_min":0,"x_max":0,"o":"m 671 -301 l 731 -301 l 731 667 l 669 667 l 669 164 b 526 39 626 81 588 39 b 432 190 463 39 432 90 l 432 667 l 374 667 l 374 164 b 232 39 329 81 292 39 b 136 190 167 39 136 90 l 136 667 l 75 667 l 75 183 b 219 -17 75 50 126 -17 b 383 101 294 -17 335 26 b 515 -17 401 22 443 -17 b 671 96 589 -17 631 24 l 676 96 l 671 -44 z "},"ɱ":{"ha":833,"x_min":0,"x_max":0,"o":"m 614 -251 b 758 -61 713 -251 758 -189 l 758 483 b 614 683 758 617 707 683 b 450 565 539 683 499 642 b 318 683 432 644 390 683 b 164 576 243 683 203 642 l 161 576 l 154 667 l 103 667 l 103 0 l 164 0 l 164 503 b 307 628 207 586 246 628 b 401 476 371 628 401 576 l 401 0 l 460 0 l 460 503 b 601 628 504 586 542 628 b 697 476 667 628 697 576 l 697 -56 b 613 -197 697 -137 685 -197 b 544 -185 586 -197 560 -190 l 529 -235 b 614 -251 550 -243 583 -251 z "},"ɲ":{"ha":833,"x_min":0,"x_max":0,"o":"m 74 -251 b 210 -65 168 -251 210 -193 l 210 478 b 465 628 306 579 371 628 b 651 407 596 628 651 557 l 651 0 l 714 0 l 714 415 b 474 683 714 596 636 683 b 213 539 367 683 289 621 l 207 539 l 200 667 l 149 667 l 149 -61 b 72 -197 149 -143 132 -197 b 17 -185 51 -197 31 -190 l 3 -235 b 74 -251 18 -243 49 -251 z "},"ɳ":{"ha":833,"x_min":0,"x_max":0,"o":"m 786 -251 b 857 -235 811 -251 842 -243 l 843 -185 b 788 -197 829 -190 808 -197 b 711 -61 728 -197 711 -143 l 711 415 b 472 683 711 596 635 683 b 211 539 365 683 288 621 l 206 539 l 199 667 l 146 667 l 146 0 l 208 0 l 208 478 b 464 628 304 579 369 628 b 650 407 594 628 650 557 l 650 -65 b 786 -251 650 -193 692 -251 z "},"ɴ":{"ha":833,"x_min":0,"x_max":0,"o":"m 151 0 l 211 0 l 211 333 b 204 581 211 407 208 492 l 210 581 b 313 436 242 536 282 478 l 619 0 l 682 0 l 682 667 l 622 667 l 622 333 b 629 88 622 261 625 175 l 624 88 b 521 232 589 131 551 189 l 214 667 l 151 667 z "},"ɵ":{"ha":833,"x_min":0,"x_max":0,"o":"m 417 -17 b 740 332 593 -17 740 103 b 417 683 740 564 593 683 b 93 332 240 683 93 564 b 417 -17 93 103 240 -17 z m 417 631 b 678 376 556 631 661 535 l 156 376 b 417 631 172 535 278 631 z m 417 36 b 153 324 268 36 157 143 l 681 324 b 417 36 681 147 568 36 z "},"ɶ":{"ha":833,"x_min":0,"x_max":0,"o":"m 329 -17 b 458 0 369 -17 410 -14 l 810 0 l 810 54 l 506 54 l 506 324 l 740 324 l 740 376 l 506 376 l 506 613 l 796 613 l 796 667 l 458 667 b 329 683 410 681 369 683 b 57 335 174 683 57 560 b 329 -17 57 110 174 -17 z m 333 38 b 121 335 213 38 121 140 b 333 629 121 528 213 629 b 444 608 368 629 410 619 l 444 58 b 333 38 410 47 367 38 z "},"ɸ":{"ha":833,"x_min":0,"x_max":0,"o":"m 139 335 b 386 629 139 513 242 624 l 386 38 b 139 335 242 43 139 157 z m 694 335 b 447 38 694 157 592 43 l 447 629 b 694 335 592 624 694 513 z m 386 -301 l 447 -301 l 447 -14 b 758 335 618 -8 758 115 b 447 681 758 554 618 675 l 447 999 l 386 999 l 386 681 b 75 335 215 675 75 554 b 386 -14 75 115 215 -8 z "},"ɹ":{"ha":833,"x_min":0,"x_max":0,"o":"m 607 667 l 544 667 l 544 250 b 240 42 453 99 351 42 b 114 65 188 42 163 49 l 97 11 b 231 -17 139 -11 186 -17 b 544 164 364 -17 472 58 l 547 164 l 554 0 l 607 0 z "},"ɺ":{"ha":833,"x_min":0,"x_max":0,"o":"m 231 -17 b 544 165 364 -17 472 58 l 547 165 l 554 0 l 607 0 l 607 999 l 544 999 l 544 250 b 240 42 453 99 351 42 b 114 67 188 42 163 49 l 97 11 b 231 -17 139 -11 186 -17 z "},"ɻ":{"ha":833,"x_min":0,"x_max":0,"o":"m 581 -251 b 688 -226 615 -251 663 -240 l 672 -176 b 582 -197 649 -186 613 -197 b 476 -36 503 -197 476 -147 l 476 667 l 415 667 l 415 217 b 228 42 363 88 299 42 b 114 67 179 42 158 50 l 97 11 b 221 -17 140 -10 179 -17 b 414 126 313 -17 371 43 l 418 126 l 418 -44 b 581 -251 418 -186 465 -251 z "},"ɽ":{"ha":833,"x_min":0,"x_max":0,"o":"m 465 -251 b 668 -210 550 -251 607 -235 l 651 -162 b 475 -197 599 -185 547 -197 b 289 11 325 -197 289 -119 l 289 417 b 593 625 381 568 482 625 b 719 601 646 625 671 618 l 736 656 b 603 683 694 678 647 683 b 289 503 469 683 361 608 l 286 503 l 279 667 l 226 667 l 226 15 b 465 -251 226 -143 283 -251 z "},"ɾ":{"ha":833,"x_min":0,"x_max":0,"o":"m 226 0 l 289 0 l 289 328 b 574 625 289 531 411 625 b 719 601 621 625 668 621 l 736 656 b 572 683 689 675 632 683 b 226 339 379 683 226 579 z "},"ʀ":{"ha":833,"x_min":0,"x_max":0,"o":"m 158 0 l 221 0 l 221 290 l 454 290 l 668 0 l 740 0 l 522 292 b 721 483 632 300 721 358 b 482 667 721 618 621 667 l 158 667 z m 221 343 l 221 614 l 467 614 b 657 482 585 614 657 576 b 467 343 657 389 585 343 z "},"ʁ":{"ha":833,"x_min":0,"x_max":0,"o":"m 675 667 l 613 667 l 613 376 l 379 376 l 165 667 l 93 667 l 311 375 b 113 183 201 367 113 308 b 351 0 113 49 213 0 l 675 0 z m 613 324 l 613 53 l 367 53 b 176 185 249 53 176 90 b 367 324 176 278 249 324 z "},"ʂ":{"ha":833,"x_min":0,"x_max":0,"o":"m 261 -251 b 346 -235 292 -251 325 -243 l 332 -185 b 263 -199 315 -190 289 -199 b 172 -56 188 -199 172 -139 l 172 53 b 443 -17 244 14 336 -17 b 718 171 618 -17 718 71 b 436 372 718 271 667 324 b 217 510 286 404 217 439 b 410 631 217 572 264 631 b 636 557 500 631 576 601 l 669 601 b 414 683 606 649 503 683 b 153 506 235 683 153 603 b 419 319 153 408 250 353 b 654 168 631 276 654 228 b 449 36 654 97 585 36 b 146 133 308 36 221 76 l 114 89 l 114 -57 b 261 -251 114 -190 160 -251 z "},"ʃ":{"ha":833,"x_min":0,"x_max":0,"o":"m 261 -318 b 449 -74 390 -318 449 -239 l 449 769 b 592 965 449 882 474 965 b 715 925 638 965 672 949 l 736 975 b 590 1018 683 1003 646 1018 b 388 774 450 1018 388 939 l 388 -69 b 260 -265 388 -182 367 -265 b 113 -225 204 -265 156 -246 l 88 -274 b 261 -318 143 -303 197 -318 z "},"ʄ":{"ha":833,"x_min":0,"x_max":0,"o":"m 261 -318 b 449 -74 390 -318 449 -239 l 449 325 l 708 325 l 708 376 l 449 376 l 449 769 b 592 965 449 882 474 965 b 715 925 638 965 672 949 l 736 975 b 590 1018 683 1003 646 1018 b 388 774 450 1018 388 939 l 388 376 l 121 371 l 121 325 l 388 325 l 388 -69 b 260 -265 388 -182 367 -265 b 113 -225 204 -265 156 -246 l 88 -274 b 261 -318 143 -303 197 -318 z "},"ʇ":{"ha":833,"x_min":0,"x_max":0,"o":"m 282 683 b 79 642 200 683 140 667 l 96 594 b 274 629 150 617 204 629 b 460 422 422 629 460 551 l 460 53 l 104 53 l 104 0 l 460 0 l 460 -221 l 511 -221 l 519 0 l 722 6 l 722 53 l 521 53 l 521 417 b 282 683 521 576 465 683 z "},"ʈ":{"ha":833,"x_min":0,"x_max":0,"o":"m 550 -251 b 754 -210 614 -251 694 -235 l 738 -162 b 558 -197 685 -185 629 -197 b 374 11 411 -197 374 -119 l 374 614 l 729 614 l 729 667 l 374 667 l 374 888 l 322 888 l 314 667 l 111 661 l 111 614 l 313 614 l 313 15 b 550 -251 313 -143 368 -251 z "},"ʉ":{"ha":833,"x_min":0,"x_max":0,"o":"m 372 39 b 219 247 265 39 219 106 l 219 357 l 586 357 l 586 175 b 372 39 508 81 451 39 z m 360 -17 b 588 111 451 -17 521 35 l 590 111 l 596 0 l 649 0 l 649 357 l 800 357 l 800 410 l 649 410 l 649 667 l 586 667 l 586 410 l 219 410 l 219 667 l 158 667 l 158 410 l 13 403 l 13 357 l 158 357 l 158 239 b 360 -17 158 67 222 -17 z "},"ʊ":{"ha":833,"x_min":0,"x_max":0,"o":"m 417 -17 b 738 297 621 -17 738 133 b 593 611 738 450 658 549 l 593 614 l 754 614 l 754 667 l 507 667 l 507 626 b 674 310 599 561 674 460 b 417 38 674 167 583 38 b 160 310 250 38 160 167 b 326 626 160 460 235 561 l 326 667 l 79 667 l 79 614 l 240 614 l 240 611 b 96 297 175 549 96 450 b 417 -17 96 133 213 -17 z "},"ʋ":{"ha":833,"x_min":0,"x_max":0,"o":"m 411 -17 b 740 400 626 -17 740 165 b 538 683 740 592 667 683 b 453 672 496 683 479 679 l 467 619 b 526 631 490 628 494 631 b 675 392 626 631 675 543 b 414 38 675 196 582 38 b 182 296 290 38 182 108 l 182 667 l 121 667 l 121 283 b 411 -17 121 69 251 -17 z "},"ʌ":{"ha":833,"x_min":0,"x_max":0,"o":"m 447 667 l 382 667 l 86 0 l 146 0 l 331 418 b 411 610 360 485 385 549 l 417 610 b 500 418 442 549 469 485 l 683 0 l 747 0 z "},"ʍ":{"ha":833,"x_min":0,"x_max":0,"o":"m 647 667 l 564 667 l 463 265 b 419 72 446 206 433 142 l 414 72 b 371 264 397 142 386 204 l 267 667 l 183 667 l 15 0 l 76 0 l 181 432 b 222 610 194 493 207 550 l 228 610 b 272 432 240 550 257 493 l 378 11 l 451 11 l 558 432 b 601 610 574 493 589 550 l 607 610 b 647 432 618 550 632 493 l 753 0 l 818 0 z "},"ʎ":{"ha":833,"x_min":0,"x_max":0,"o":"m 83 0 l 143 0 l 317 419 b 394 608 340 476 368 549 l 400 608 b 492 419 432 547 465 476 l 686 0 l 750 0 l 426 679 l 471 782 b 667 960 508 883 571 960 b 731 949 692 960 714 954 l 747 1001 b 668 1015 726 1010 694 1015 b 418 796 535 1015 456 907 z "},"ʏ":{"ha":833,"x_min":0,"x_max":0,"o":"m 388 0 l 449 0 l 449 240 l 738 667 l 668 667 l 525 451 b 422 292 489 394 454 349 l 417 292 b 311 451 383 349 347 396 l 168 667 l 99 667 l 388 240 z "},"ʐ":{"ha":833,"x_min":0,"x_max":0,"o":"m 778 -251 b 849 -235 803 -251 833 -243 l 835 -185 b 779 -197 821 -190 800 -197 b 703 -61 719 -197 703 -143 l 703 54 l 193 54 l 703 635 l 703 667 l 156 667 l 156 614 l 610 614 l 100 33 l 100 0 l 642 0 l 642 -68 b 778 -251 642 -193 682 -251 z "},"ʑ":{"ha":833,"x_min":0,"x_max":0,"o":"m 485 -165 b 519 0 494 -101 507 -46 l 597 0 b 796 149 728 0 796 65 b 683 261 796 218 754 261 b 485 53 604 261 536 197 b 189 54 388 53 290 53 l 708 635 l 708 667 l 156 667 l 156 614 l 618 614 l 100 33 l 100 0 l 467 0 b 432 -156 454 -46 442 -97 z m 611 53 b 538 53 586 53 561 53 b 679 211 579 167 632 211 b 743 147 724 211 743 183 b 611 53 743 100 696 53 z "},"ʒ":{"ha":833,"x_min":0,"x_max":0,"o":"m 404 -318 b 726 -15 567 -318 726 -211 b 417 257 726 157 614 257 b 318 243 394 257 358 256 l 699 635 l 699 667 l 149 667 l 149 614 l 608 614 l 215 211 l 249 168 b 394 207 303 194 329 207 b 663 -19 569 207 663 121 b 403 -264 663 -165 542 -264 b 122 -143 263 -264 185 -206 l 88 -187 b 404 -318 154 -249 242 -318 z "},"ʤ":{"ha":833,"x_min":0,"x_max":0,"o":"m 231 38 b 74 332 132 38 74 156 b 246 629 74 500 147 629 b 378 531 301 629 340 590 l 378 161 b 231 38 340 92 293 38 z m 643 -318 b 858 -22 756 -318 858 -222 b 646 244 858 138 776 244 b 597 239 632 244 615 243 l 831 635 l 831 667 l 438 667 l 438 999 l 378 999 l 378 728 l 382 592 l 379 592 b 242 683 351 640 306 683 b 10 332 119 683 10 547 b 222 -17 10 108 97 -17 b 379 97 297 -17 353 43 l 382 97 l 389 0 l 438 0 l 438 614 l 753 614 l 518 211 l 550 165 b 636 192 579 182 600 192 b 794 -24 736 192 794 111 b 643 -265 794 -182 728 -265 b 475 -189 560 -265 518 -232 l 440 -231 b 643 -318 488 -279 542 -318 z "},"ʦ":{"ha":833,"x_min":0,"x_max":0,"o":"m 453 -17 b 775 174 689 -17 775 54 b 489 533 775 419 489 376 b 597 632 489 597 532 632 b 733 579 653 632 693 611 l 763 619 b 597 683 718 658 663 683 b 507 667 564 683 533 678 l 215 667 l 215 888 l 164 888 l 156 667 l 50 661 l 50 614 l 154 614 l 154 235 b 453 -17 154 67 222 -17 z m 451 36 b 215 229 264 36 215 96 l 215 614 l 446 614 b 426 532 433 592 426 565 b 715 172 426 336 715 381 b 451 36 715 90 649 36 z "},"ʧ":{"ha":833,"x_min":0,"x_max":0,"o":"m 478 -318 b 626 -124 579 -318 626 -254 l 626 819 b 728 965 626 904 643 965 b 783 951 749 965 769 957 l 799 1001 b 726 1018 781 1010 754 1018 b 564 825 615 1018 564 954 l 564 667 l 267 667 l 267 888 l 214 888 l 207 667 l 101 661 l 101 614 l 206 614 l 206 185 b 369 -17 206 65 243 -17 b 478 8 397 -17 440 -6 l 463 58 b 378 38 438 47 403 38 b 267 179 288 38 267 94 l 267 614 l 564 614 l 564 -119 b 476 -265 564 -204 550 -265 b 407 -251 450 -265 424 -257 l 392 -301 b 478 -318 413 -310 446 -318 z "},"ʔ":{"ha":833,"x_min":0,"x_max":0,"o":"m 360 0 l 421 0 l 421 394 b 694 746 578 490 694 578 b 400 1015 694 921 567 1015 b 115 882 258 1015 172 946 l 153 840 b 400 961 204 901 278 961 b 631 747 549 961 631 875 b 360 431 631 610 540 529 z "},"ʕ":{"ha":833,"x_min":0,"x_max":0,"o":"m 413 0 l 474 0 l 474 431 b 203 747 293 529 203 610 b 433 961 203 875 285 961 b 681 840 554 961 629 901 l 717 882 b 432 1015 660 946 575 1015 b 139 746 267 1015 139 921 b 413 394 139 578 256 490 z "},"ʡ":{"ha":833,"x_min":0,"x_max":0,"o":"m 360 0 l 421 0 l 421 383 l 701 383 l 701 436 l 474 436 b 694 746 590 511 694 597 b 401 1015 694 921 568 1015 b 115 882 260 1015 172 944 l 153 840 b 401 961 206 900 279 961 b 631 747 550 961 631 875 b 374 436 631 618 529 522 l 225 436 l 119 431 l 119 383 l 360 383 z "},"ʢ":{"ha":833,"x_min":0,"x_max":0,"o":"m 415 0 l 476 0 l 476 383 l 717 383 l 717 436 l 461 436 b 206 747 307 522 206 618 b 433 961 206 875 286 961 b 683 840 556 961 631 900 l 719 882 b 433 1015 663 944 576 1015 b 142 746 267 1015 142 921 b 361 436 142 597 246 511 l 240 436 l 135 431 l 135 383 l 415 383 z "},"ǂ":{"ha":833,"x_min":0,"x_max":0,"o":"m 388 -301 l 446 -301 l 446 242 l 700 242 l 700 294 l 446 294 l 446 458 l 700 458 l 700 510 l 446 510 l 446 999 l 388 999 l 388 510 l 133 504 l 133 458 l 388 458 l 388 294 l 133 289 l 133 242 l 388 242 z "},"ʘ":{"ha":833,"x_min":0,"x_max":0,"o":"m 417 -17 b 740 504 619 -17 740 138 b 417 1015 740 831 619 1015 b 93 504 214 1015 93 831 b 417 -17 93 138 214 -17 z m 417 38 b 156 504 265 38 156 167 b 417 961 156 806 265 961 b 678 504 568 961 678 806 b 417 38 678 167 568 38 z m 417 424 b 494 504 457 424 494 457 b 417 585 494 554 457 585 b 339 504 376 585 339 554 b 417 424 339 457 376 424 z "},"Α":{"ha":833,"x_min":0,"x_max":0,"o":"m 313 539 b 414 856 349 647 382 743 l 419 856 b 521 539 451 743 483 647 l 579 368 l 254 368 z m 63 0 l 126 0 l 235 314 l 597 314 l 703 0 l 771 0 l 449 915 l 385 915 z "}}}
